<mxfile host="Electron" agent="Mozilla/5.0 (Windows NT 10.0; Win64; x64) AppleWebKit/537.36 (KHTML, like Gecko) draw.io/24.7.17 Chrome/128.0.6613.36 Electron/32.0.1 Safari/537.36" version="24.7.17">
  <diagram name="Страница — 1" id="yIphqvzQS5NhM2Z4it5l">
    <mxGraphModel dx="2607" dy="1520" grid="1" gridSize="10" guides="1" tooltips="1" connect="1" arrows="1" fold="1" page="1" pageScale="1" pageWidth="827" pageHeight="1169" math="0" shadow="0">
      <root>
        <mxCell id="0" />
        <mxCell id="1" parent="0" />
        <mxCell id="DhdpTAGQwJF97SSmaI3E-67" value="" style="shape=image;aspect=fixed;image=data:image/png,iVBORw0KGgoAAAANSUhEUgAABIQAAAL6CAYAAABHKo29AAAAAXNSR0IArs4c6QAAAARnQU1BAACxjwv8YQUAAAAJcEhZcwAADsMAAA7DAcdvqGQAAP+lSURBVHhe7N0LYFTVvS7wL6CAKIKAKFiVRxLeckRBCBWsEjHBWrAl9lgrHKuJgOSBJ1ygYO8tlnrASkgVTbQIYm0NItQjiRCkhZYgT8XwkoQAUkB5JYG8X3P3f83eM3uGmclMMgmT5PvZ1dl77efsTIaZL2utHfT+++9bJk6cCIvFokpZWRkuXryI4uJiVaqqqlS9KLt0CUe3bsOpfftgKa9A+xtvxA0dbkDbmhqUXr6Mc0VFuK5NG3S5azB6jxmN9h1vVNsRCeN1RERERERERFdXUFCQPkVNzb8vFOtTrt3Y/lr187322ja47rrrcF379rixYye0bddOLZdlqqxatcoWCJ09exanT59Gt27d0F7bQEqbNm3UBkRERERERERE1DSUl1fgclGRVopx8vRpdO12K7p0vdkWCLWSlSQMOnbsGC5duoR+/fqhR48e6NSpE8MgIiIiIiIiIqImqG3bNujapTN63Xk77v2PIagqL8XJ48dQU2PtIdbKaBkkXcOCg4PRTm9CRERERERERERETV/769rhrgH90Oba1rhw/qw1EJIgSLqJ3X777fpqRERERERERETU3AT3uhMXzn2P8rIytKqoqMDNN9/MlkFERERERERERM1Y++uuww96dMelwgJrCyEZPJqIiIiIiIiIiJq3DjfcgJLiYrSqrKzE9ddfr1cTEREREREREVFzdeMN16OstNQ6qDTvJkZERERERERE1Py1bdsWlZUV1tvO+8Mf//hHrFnzN9x00016DRERERERERERBaKgV1991RITE6PP+k6CoEGDBqnpixcvqcdnn52C/Px8NU1ERERERERE1Bi++OILHD58WN1W3ZWgoCD069cPI0aM0GsCw0cfrcGoH45C91tv1WscnfnuO2zbtg0/++lP9Zr6yfz71roHQhIEhYWF4dIlawgkjEBIeBMK/fOf/8SpU6fw85//XK8BNmzYgNLSUkyYMEEtz8nJ0ZcAISEhuP/++9X0unXrtONdVNNyHvIDNZMXQFZWFp555hm9xjfLly/Xp6zMx24J5NoLec7maW/89a9/RUlJiT4HREREoHv37mrafF1d/WzkWBcuXFA/fyIiIiIiIiJfrFixQn2fdHfzrLKyMnz88ceYMmWKXhMYJPDZ8o9/YMwDD1wRCnlaVlcSCPncZUyCoL///e8qhBE33nijKs7eeOONWruPScAgt7vftWuXmj9z5owKiMxhgAQxEhxIMQIJY32pk/OQ4MeZBEL1ZRzXfOyWQp6v/CwkwJFHX5+/hEDGtTPCIAn7jJ+nPEqo58wcABIRERERERH5QloGSRgkYyW7KpJfuGs9dDVJ0COBjwQ/EgAZGiIMMngdCEkQdPbsWUycOBE9evTQax117nyjKlZ71Bf/2tx3333Izs5W0zt27MDgwYPVtJBWJhIYOZNEr0uXLmpaWgbJD1vCJIMERsZyqjtpuSU/Q3MLLm/Iz80Igcyk5dfNN9+spoODg9XP0cwIjIiIiIiIiIhaGudQqCHDIOFVICRh0BNPPKHPWd1www22R3O3sTNnPsWhQ9mYPn35Fd2uXJHg4LbbbrO1Fhk2bJh6NEhYJPuRbkgGCRWkW5EwWgKZA4ijR482aIse6dYk5yTFOG8JoYw6KUYrJgk5jGmDhFfG85FpWd/cosmoM7aTZd7s2zwv52Xep3lejm0O0IRsJ9sb00Y3MSH1zq15ZB3zz0SWm7cxztVcJyHduXPn1HRubq5DCzLj3IzAiIiIiIiIiKilMYdCDRkGCa9bCJ08eRIffvih6o93/fXXqyJhUFFRkWpyJUGQDHAkQdAf/vAHfSvvjBs3To0H5DwOkNQb3Y6kpZARWMh6Ei5I4CDdxcaMGaPqhQQT//Ef/6HP1Y8RakgxghZ5lBYwxnnJeUidBFlGnXRjM8Y38oa0cDKHNxKWmPs7yjLZp+xbwrPGJM/N1VhQ8nzlXCTwkXWuu+46WwhnXAfpNiZdwIznJsslyJPrKd3Q5OdrkJ+jeZ6IiIiIiIiurnfffderQk2TV4HQjBkz9CmgY8eOqt+d4ZtvPkBGRkadgiCDBD0SLnz11Vd6zZWka5kRTBjBkBE8bNmyRbV4kXBCAhrnYMmZBBhG0GNu5eLMHGwY3dok6DHG1pEigYcR/hj7lQDEHG4YrZykyDrOjG5xRqsdCU28vX2/ed9yXmYSshjLnAMq+ZkZy5xbC5nJ/t0FbMY4Q9Iiy1WYI622pAuY0SpIrrX8bOSaSohnXHsJ8YwxqYiIiIiIiCgw/Nd//ZdXhfzH3E3M3H2sIXjdQuiee+7BSy+9pM8BW7cuwcaNG90GQRLeeHPreQlPZD0JFMwDTHsi68sYNAYJk6RVjYQzUoygQ7gKPMytebwZH0eCDfM4RTLOkbG9FCMMMfYroYc5aDLWl2BJwhNXjOcgz995/CMJw4xwxzn0MZ+Lc+sho1WRlM6dO+u1Vsagz7L9119/rdc6kqDGPKZTfRjXzgjr5JrKz/sf2otbwirj+cmjzHsK6oiIiIiIiIiaG+cxg5zHFPI3rwMhIUFMYWGh6j4mQZA5IDJ4GwQZpFWQ0QLFPMC0Mxlw2gg8JEiQ8MQgIYnUGeGHUYQ8mscXqgsJM4yBkiVYcRfq1IeESfI8pJjDLiHXXI4rz8U59Gkoch7SDUzOy0xaZxnjAsmjnI8U81hBBrluEtDJ85FrJ9fQ6D4myyT46du3r8PPTEIsea6+DmRNREREREREFBQUdMUNjMzke6msE2jcDSDdkKGQT4GQmDdvnj7lyNcgSEgLFOkaZW41IuGC1AtpJWK09jGPUSO3pTe3BJJtnIMLfzD2L92rjC5Nchw5Z2OZFAk5JBAx5qWVi7mbldGtS/bTp08fvfZKsl95nuYAS4IT2Z+EZf5kdBmTc7vrrrv0Wjv5JfE0po88XwmN5GdidB2TOrkWxnUwrpvxfGTaaAnkvIyIiIiIiIioviRf+Pjjj12OdSQlLS3NlkEEEhmT2TkMMhih0LZ/bdNr/CPo1VdftcTExOiz3jPGuPE1BCIiIiIiIiIioqsn8+9bfW8hZKhLiyAiIiIiIiIiIrq6OlzXpu6BEBERERERERERNU0MhIiIiIiIiIiIWpA31h9kIERERERERERE1NIwECIiIiIiIiIiakHuuPl6BkJERERERERERC3Jt+eKGQgREREREREREbUk/X7QiYEQEREREREREVFLcvjfBQyEiIiIiIiIiIhaGgZCREREREREREQtyPDQmxH06quvWl588UW9ioiIiIiIiIiImrP/mv8WWwgREREREREREbUkoT06MhAiIiIiIiIiImpJLpVUMhAiIiIiIiIiImpJTl0sZiBERERERERERNSS9P9BJ18Hlf4aK2PT0X3ubDx8q15Vm+824pUVwJTZD+NW87S+2L/k/N7BHn3OUQ886st5B6KvVyL2Hfuz6/HoXMxu0k/IlWb+MyQiIiIiIiK6yqa//I63gdB32PjKQnx6Wp9V7sGzyZNxlz7nyXcbX8FCfeN7nk3GZG82qhN3gVUdgqxAo8KgM6ZAxPoz2Tu0uYVCzfhnSERERERERBQA3nxvjTddxuzBQ3Lys7hHtdJIhjaJd2JXal/Ta3frw7O1bbVttNJwYVBzpv0M0vfgnmfNYciteHjKo8CnG7z6GRARERERERERiSNf/suLQOi7r7H39D2IdG6WcddkPHvPHqRv/E7Nfr0yFrGxellpRBTSquMV6KuolkKxpnlr2GTazmFZQ9HP6euNeEU/7iumg7p/Hqb6VzZqZ27UG+esr6Nv43o/daT/DO52DtNuvQtDe5zBd985X0cpRljn/hq7P0fz8zU/v0Z4rt6S7oe2c4yF/bD6udl+RlZXvPY8bm9az+O88zIiIiIiIiKiwDd+/HgvAqGzZ3C6R3d002fduWuytQWQakW0J93Fl+SvsWGvjALjTG9xpFofNZbT+DQdmCLnO1da2aywna/752E6z9NncFavtZLQ5R3gWW253gSq9uvhI7c/g9M4c/ZWPDxbP5btPM3d+VxfY4/n2ONRzHVa36oRnmutvsbKhZ+iu5yD/jM88445mOmh/bcXX9vmv8PXZ6TWUNv2RERERERERM1b7YFQt+7ocUUAIr7Dd9qX7O636i2HZIwb1drC9YDAX698B4iMRHd93uoszpzuDmMXjacHHp2iD2x968OIvEdCFbXAw/M4jU8XWuvxrOPYSXtXWLvUOXSHq+V6+Mzlz0D0QHePaZ2Ha+zuHL/+Enu63+py4O9Gea61+e47nIGpxZTzz1AzdGh3fLpBb/bz9Qbs7T7U/trzYnvvGa8LKd51oSQiIiIiIiK62moPhNSXZXvXMBvtS/anRjcm6X6jGo1Ii4u5eNS5GdDZjUjHs1eOHyTBgxetjxqWNdiyTnp6HkYrm7nonm5uTSKDZffAaXOaUNv18JXqGrYHXzqnDaorWS2Bmrtr7OEcv/5yD+65on+aaITn6i93jcOjZ75UAc3XX57B0LsaKnU0XhfJDl0oiYiIiIiIiAKZF4NKS5eguRi6d6HeAkRvEaFCAL2ljLlbmQopZMKgrf/OXgwdd2XAIMFDj6F3NdAt6D05jb1GfyLz+Dwen4eZuTVJDwydMhvP4h3YxiLyej/euhUPR96DPe+YW6BYuz3h0XEe7/Tm9hq7Pcev8eUeF+MVKY3xXL1w663orr0SbQHZdxuRfsU534q7hp5B+saN+BKRjncm82p7IiIiIiIioubLq0BIBRKexqiR1hj4FAul28yKM+ju1Eqkx6NTnG4Vbh3o+J0zj2LKVbmHeA90P7PC2s1HjSWjPxePz8PoGrQQn3a/srWTLTSTwYxruR51ctdk/c5ucg5SVCLn4ZbztVxjl+cogyRL6LdHP44RADp2hWrw51qruzBZjfujX4uFezF0rmM3PnHrw5Ho/umnuDLpqW17czcwUwjq8prYl72zx8Xg60REREREREQBKOjVV1+1vPjii/psSyChRzq6zzXfwp2s5Np8ibsdBqR2VdfS8ZoQERERERFR07Vp0yZvWwgREREREREREVFzwUCITO7C5Ctavbiqa+l4TYiIiIiIiKhpa4GBkHyZZ3cxIiIiIiIiImq51BhC0dHR+iwRERERERERETVnO3bssAZCzz77rF5FRERERERERETN2a5duziGEBERERERERFRS8NAiIiIiIiIiIioBfnoo48YCLUkr7/+Oq699lp9jgINfz7109yvH18fRERERETkTwyEiIiIiIiIiIhakJ/+9KfuB5U+sX6QPgWUlbdHWUUbnDzbR80/GrtSPfqLHCuoVVu073ovbuzxENrcFqUv8Z/t27frU1ZFRUX6lNXf//53nD9/Ho888ggef/xxvda1BR9Uq8eamhpUV1drj1Wo1B6rq6pQVVWpTWuPldqjNl2tlSqp19aRdfNLivH5kh+p7RubtDBISEhApXZu/vDh5jP49rsiPDmuD27rUr9s8dL+ruqxpro1qqqv0a6ZlDaorLgWvR44qJb5y6effoqzZ8/i5ptvxoEDBzBp0iT06WN9bV9N/v75tDTN/frV5/ltPXQGBWWt0brVNWq+QttHK0sFQrsFof+dP1B19fW/e07qU3aHjp3FrJ/do88REREREVGg2Llzp+dA6K4n7R/wa2rKUHxmC45teRbZR+/xaygkxxr0RA5K8w+g8NsNuPDN2+jQYww69ZmCazrdq4KU+sjIyMATTzyBNWvWqBTMlZ///OeYN28eXn75ZaSmpuq1rkkg9OOR7VFjsWjXxYIqrcgpVlXXaMX8qC3TpqtlHW1e1v3T37bi70sf0vfkvdatW+M3i9/FoZzj6IQzeOedd1QgJcWinYc3/PmFedP2c+h66w1Yt/kYpv+0P27uFKQvqZvC7G6444fl+pyVxVKNnWl9tfNtg8E/dgz0fHHs2DEV9gl5PHToEH75y1+q+f379yMzMxPnzp3D4MGD8dVXX2H58uVqmTttpoyApVc/VP5mhV7jH/X9+XyaPFn9Xn749Yd44q4n9NqmYdM3peqxuKwaZdovS0lFDfJLKrVHoLyqBmUV1ThTWIHT+RXY/GJfta4zBkJX2v/tOZwvbYfhITehvLQC//7+svZ+VIMbr2+DH3S7Hl8dL8DJswX46cie+ha++8fB73C5tBIj7gpFq9bXoqLKguJKi3rMOVuEb/btRdcbr8MzDw/QtyAiIiIioqvN60CopqoI1ZWXcOnU5zi1cy76T8pD2iuT6hwKPf/0l/qUVfxPozHsF1/DIv9Vl6CyLB/F32ch/+ifUXrxINp0CEb30ev0tX0nrYPGjRtnC4T27duHv/3tbzh40Nry5K9//asKhGbOnInXXnut1kDo/62qxI9HXY8f3X2dXgPtzCXAkKI9Byk1QdbnU2OB9j9rGJR+EX/62xZsff1h60ZekCBo5m9eR3ZBB9x061BVd+zjZ9Dr7kg17ewvb76kT13JX1+Yv/2uAtu/uYAfdLkO2Tn5mP6z4HqHdhe+7IHeDxTrc/KaK1evhW0fjsawH3+ILX/9FUY++Zm+tHaXL19GQUGBagkk5eOPP0ZwcDAGDhyIO+64A506dUJhYSEuXbqk1lu3bh169uyJo0eP1hoItX2gkz4FlP+jQJ+qv/r8fCQMikp8B2mLn0XxA5E4V3oWL9w3Q19aPyc2PYaSs9vUdP8nL6hHf5NAKOLuW9V0YYm0srOGnCcvlqtwqKi8GgdPl+HjHf/2eyBktIYsuNwJl4tvwg9/9b8u63xRsP1DfUp7PtrrrKKiCpVVZajUHou012ZlVbX6nbHU1KjWhIZHXkzSp67k6/Pbdvg7dO3cFbd2aI2Uvx3AgdMlKK5qpcK1oOpK3HJ9EJ7/cV/0vv1GfLLjJKb8yPdWchIGte3YA8N73aDmP95ehOdmpuHt16IwuE8bVFiCVDB0qqAUF44dYihERERERBQgJBDy2M/HUlOBqrLzqCr6NywVl1FTegYnz96plkXNXq2+hNZV6qowVd75YBTKy9ujpqoUBz4MxcGP/gMn/vU8ygqOoft/zMed96fg5v6/sn1B89Ynn3yigiDnrmJiyJAheOmll1QQJMVQWmptpVAb1f1LUh6daqBjBEEqFApS0xICWcMg6zrVFule5n1w8p9Tf4uo6N/g2t4/wdChD6L/Pb3Qq4c1jBif+Ac8O/93ttL/Z4mqvqEFBQXhyLFC9L2zE3YdPI9fPNLH5zBIvixLufCvP+O7zSvw7Ya3kX9yLrLeeQl/XjBBlb/8/gnttXdBe21ch8rS7zEiYhY2vT1J30PtpLXX6tWrVYufM2fOIDc3F7/61a9wzz33qJ+NdBXbu3cvduzYoVoJ3XTTTbjhBuuX2tqYQyBzOOSJt+vVhREGCePx2Yefw4LPF6jp+jj0QRfc9dMtGDG1Sq+pP/ldNopBe1mhuKIKBcXlqkWQtL67UOQYfBSW+O8cnEn4PXDMdO34nfUa13W+uPORaFUG/zQWd0+ajmE/m44RP4vGAz97Gg9NjMLYHz+Gh8aNxeiht2NUP+9ee946euYcru/QBW0tlZj77l58W9EOI+7uhZgf98e8XwzBsz8ehPZdOuO/l+/Dxi9O4rFht+H9fxzVt/aOhNXSMkjCoLattde4ViQMEsajvF/Iz/bmG9ri/CXv3l+JiIiIiKhxuA2EispuRFXpWVSXn0d15WXVQqiy9CQKLndVrYOkiKw1v1ePvjp4oABff3UOZ04X43z+zSj+3hrcSNexO+5bhNbXXou8zf+pwqGi77O0L2VdvA6FJAR66qmn1DhB0jLo3XffVfUSEEhLIFdFFBfbW6h4IgGIBEK/WfYNXvxDNmYtycYTs3bik80nVPAz+hdvqy+0T83bi+gFXyL65a8R9X92oaa6Ro015Iteo6ytt9p1vwllZ/LV9NX0/cUaHLtQjFs7tkPHG9qg0w2+dxWTayRflHuPn4a+E+MwOOq/cc8v56K0rBSd29+Jn8UvxePTF6ggqLy0HT7/6++QmZYC6Tr29WbPrXcM0kJo/vz5+OEPf6haBInf//73KghMSUnB559/rkKikpISNcZT//790aNHD7WeN8yhUEcPYc+1ceNVGOTPlkRm8jvx89mr1PShj+9GZfEpXCi2do/7ZdgvsfDvv1PTdSFhUP/HPkPhqU1YEXc9Dh9uqy+pP3N3VAkWCkurtZ9/FfJLgR/+n89UuVzZGk+8shn/9do/cElbbtFeamUW/51DY6kpL0FNWbFWirRp7bFCm68shaWqTHtPqICluly1iPMXuZ5HzrVG/1vb4o1PDsNyw03od3tn/J+f9MHPRvTAuP+4BU//6E6kTBuGR8J64/X1R3H05GXc2a0DTutdK72x++hZdL31TrTSfi6ttX9JpEjLICGP115rHa/I0HfIUCz6aI8+R0REREREV5vbQKi45AZUlpxCVfkF7cvLZVRoXzTbtO2B0T/qgpF3n8OwgUdUuXjqsL6Fb/Z/dQ7HjhYha8t3WL3t13h+Rnv8/sNV+MXjX+BXz1zCzN+EYdlnH2JZxl/x+5SnkLYzBa9v/ADzErP1PfhGulnIuDvLli1T3cIWLlyoAoMXX3wRU6dOxeTJk1U44A0ZKFpyneqgtrjzB51x+22d0fHaU5g4tidiF2ejtLwMu7JPI3zELbihbRWOffcdRgy5EdU11oGn68IIg46dbphgwexM6RmEJYWh06xOGPXaKLy57U1Az3127S9Azr8LkXf6MiaM6VmnrmLOXV4s1ZXqS3NZWRnG/moW/vc1axhUqZ3HiPCnMXLsOIQ9MBQj778d5cWF+la1Ky8vtx1Lfr4PPvggoqKi1KDhERERKiy69957MXToUNVdTFoO+UJCnnbao/xEXLUAkqCo1b5tDRoGDX7C2qpDwqA7R7+trtn3pWdV3Q0db8ADA8dg6Ku+D+p76l+/UmGQWLvoJ5j429Oq+EtZYY4+pb0JtbK+DX13GcgvteCDOeNUefL3G/Da8/djcfQP1fJ217p9u6q38oIrBy53VeetC+cuouqi9v556SxKTuxB2ekDKD+Xh4rzx1F1+RyqSy6hRnsvCGrdBq2ubY9W1/gv6Dp9/gJ63tIRn31xAoVB1+GaNm1Rpr3tvPv3k3hs0R5MePVLHDpVhHZtWuOZsX1wsbw1ktYcwNDeN+Gb02X6Xmp3WdvpXbffoL2vab/T2tvAxaIyDO3XHnvSp6hHZzdc43t4TEREREREDcftN6yKqmtRWfwtqkq+Q3VlsfatvQat2t2M6zoOQJtO/dC6TUd9TeCaaxz/EuyNc9+V49TJYmT873eInXMJi5K72h6XvNVDlf/7P1210k2V/5qajx9PuB3XtnG8O5i3Kioq8OqrryIpKQlvvvkm/vSnP+H9999XrYZkPKGVK1d63UKoUu4apn0L+u3zd6K0rAzZB7Mxb/oj+J+VR/EfoZ1QWm7tGtGlQxX2Hc/HkW9W4oWoXio8qapuuG4v/vLsqmdx8JT1y/CBMwfw/9L/H178eB4+/SIX6f86i9F3d8ef03OwdlMeXvswF7/500HEvvYlZr+ZjaS02rudSFAjPnzpv1RJ+3/RqC67hIryClQXFyDy6WhkpPwZ6drPZ8NHn+Lzv21DZclprZxBmbbcW3IcCfmuvfZaNXaUdBWU1kKdO3dGu3bt1OtWBuWWIEqKTPuqUA+F5Gt06QOdVOsMKRIQSV2DhkE/P4rqqiIcWD0Atw1biBNbn0NF0Un1+jzx/XFU1FSgTZu2iImM9jkUKi+0Br1GGCRj/Ej5+KvL+J+N3yM27SR+/nYeJqUcxcRluXjwD9+o4o0LRT/Qfpbf6XPAt5+PR9CaUOw+Vohj31/GibOXcSbf+rt4jfYOdU2rILTWSkPmCfL6cuaqzlulZcWozD+J8gvHtbkgpP9Vez1rRY2NVVONjZ9mqGKpkfcDeWL+e3KnC6txe5c2+OKbC7imTTtU1wTh8OkyrN5diArt1Vqsvbcf/d76O1heWQOL9s9AztlSfHehBPnF3v8OFJdVoaxS20e19ny1p1FuaYd7IlfYirW7rHSdtT5WS3JEREREREQBw+Of3CuLvkVV2VnUVBaqNS2oQut2XdC2Yz9c13UY2twYjMFhY1B06hN9C++dOF6KI4eKMCGqj7rlfOtr2tsea2rki7pWqq9BWalFlcpKbbrsGjw20fWAsmbOXcSEhAPypf+3v/0tFixYgN/97neqC9GiRYtUiyHhbQshuZ283DXMon2/KZZvQprdhwpx/OQFrN5hHSx2/7EavJ1ZhPwLh/D8pAhYLNdoX8xkYNnAD4S25WxDv+79UPlmFd74z2Uo+3cZVv4rDb/5yz9g6dgBPX/QCfOeG4oHw27HpId6IXpiP/wmeijuCumM/j1rHyunvKwUlspSTJq9BI//9yuYGPsbVBfno7KiEn9LeRX/++6bar1rKm/CD8d0w8iwNioMki6M5T4EQvLzlp+FtPyRRxkvSMYOkruOff/992qwXxk3SpZJGCSPdSGhj7TfkmCo6P4OqNKKUd9Qej92CNl/7YPiczvRbdBMnNo1F11Dn9F+Z/+NQu1a1mgvzhLpmqT91l7b5lo8HBbuUygkgVBViePg7z8dfiueHv0DzH60Nxb+LATzfxKMhIjeeD68pyreatX2NlSXX9TngIrLufjFbzaj/breuFxWg4pq+XnpCzXSJamVDEQjpQHIuGjll3L1OStXdb4oL69AyXcHUXnumOoeNm7iT1T9hnWfYOP/Zqjphx99RP0eaCv4Mw/ChctV6NCuNc7kl6vBuSsqtfdPyWKCWmvvWxYMvK09RvfvqH4vVv79hKovLK3B6XPFKNKuvy9K5Y5iFdp7p1bkKRzY+Az63fUfapkKgSQMkt8/7ferqo6/X0RERERE1DDcBkIyVlBl8b/VFze55XyQJQitW1+v7vzU5sY+aNtpANrd8iD63BOB1q3awlJq7wLijYKCSnToeB3aXddK2+8NqLa0tT1W17TRvhC2QVn5NSgqsuDS5QpYajrgeN53uPte7wZ4NXcRExIOtG/v2I3hmWeeUcW4q5TXg0qrQEhu9w4UlVq7JB06fg45l27GqW/WIrTfA/j6m+9x+cIpnDu/E09PkEDIGkrItr6QLmJGN7E3pvfH3e3t4whtO1RgK/40qMcgHPn+CG7971sw/S/TgFtaoW31D1B2uS32fvUtYn73T/zyN1sw+/Vd+O2fvsKyNQex+vOj+I/gjhg3vIu+F/dkrKCq0staKURNcT6qiy+qEjHpCTwy4ccIf+RBPPSj4Wpd6QJVWfI9KsvOoqrsnM8thOR1IGGPlLCwMNU9bNCgQejduze6du2Ktm3b4vrrr1eteuoaCInO/yhQLYIMDRkGGQ5+OxKfvvsWyi/loOPtkago+U6VYu11/O2lb3Hm0vcoqilG5+s7o1OHTrhr0GDc/Yr1TnW1kdDX7GR+qRpHaFX89cj+dyn2/bsER8+V4t/5Ffj2glYuej8GTlnFzSgtPIjuQ/8v1r7UA3t3aD//inz8fM4aFQo5s3Xkk1+4BmB9rzuhz1m5qvOFhMbVly+gqiRfjRlkqarAwz+OAPK/VUVNyzOrKtPeY70Lor1VKfvVrlVVVQ1Ky6UVTxUqKmpUKLP0l73w2i964eS5Ekx/+2us3va9Vi/vTfJ+Zh0Y31vXt7sGxRUWFJVbUFhmLVXSLEgn+5X3SXms0M6hrLxCX0JERERERIHAYwuh8stHtS/t36lQqLo8H0Gt2yKoVTtAujlopV3XoWh3/Q/QpsNtKM/P9vkP+EOG3qx9IW+lfVm/AUWXg9Rj/sUqfP9dOf6tfeE8daoABYXluHy5Bgf2dcSPJ/TSt6yduYuYkEDIuQVQdHS0akH0gx/8QM373EJI+/JUWlyCLrcMxD+OdFBh0J9ficKNHbupcEhaB/1q4oO46cZO2nOz3p1MBjCuq0Om4OfFve3wRn5P/OmZfqr40/QHpqsA5ULxBfzgph9g2ZNv4HdR8SgI2o0Onb7FR797CFuWhWP1y6Pwzux78bvnBuH5n/TGgJ7e3SlJutlVlxRg7dL/i3Vv/g8++dMf8emqPyE97a/4bN3/oqronFastzffsbM1dn91E6rLJDS4pOq8JYGQXG/5OZ07dw45OTnqjmJy57Hs7GztNfZv1U1Q1pEwSNaTrmR1cdE0hpAEQ+b5hrD+jWfxk+d/i8dnvIJ//f00Kku1a1ZmLWcunsaXZ7/EyaJvcbbse3xx6gvsOrYLX+74Cl/O3qvvwTMjEPrxC9bQplP6IDUtsk+X4cTFShRpT1S6HMkXfskRvB3weWTkz7D5kx0Iwik8OvX/qHL+xF9VGfvkJLRe3QtnCq3hgcQL1rcVbUp7g2llj4f8qqbyyq6oruq8VV6qvfaKL8JSWYKaCmv3t43vpahHIdNyzeS2863b+vcOY12ua63uyNat47UoLinXft8qtZ+T9hrX3rQG/uB6tGoVhF8s+RKZ+wpViyFpmdehTRC6d70e18utwrzUod01OP5dAcqqalCil3JtfwaZlNeG3GK/vKxCFSIiIiIiChweAyFLldwN5zKqyy+gqvy86rIjj2Ul+Qi67k60ufZmtL72Bq101L5YaN8OS7wfhLWt9sWjd0g7tLtO26ywG07/OwjFBd1w/mxb5Oe3x+WiDigpvhlFl7vg4oWOuP76AnS/7Vp969qZu4gJaf0jdx0z31lMwiJpHWS0EPI6EKqUQEj7EqxNF5dWYvfxKhUGbX57Mnr/oDPOnLuk5qV10K9+NkEFDVLkr/B1HUNIWgm9+P4hfFlyk15jVfaHMlX86T/v/k988NwH+O1jv8Wfn/0zCksLEL9uMkq7rcKAew+iu3YKcg2MEMVX5aUSCF1E5H8+hYjHJ2Lc+IcxduwoPHj/EDwwPBjVRedRXXxOrTskJBuDe+1Ud7qzSNcaH8jP3wiEpHuYTHfq1Am9evVCv3791EDS3bp1Q5s2bdQyCcGkxZAvpGWREf5I+7Lr/lGA8p7WMKUhQ6FHnk/Bx3+cjeqKQoyf/Cx27KhR01IKiwpxubIIX3+3D1+d/go5p3OQ++VR7PvNV/rWtbvth3/C/75uDYAkCDLCIPH9pXLkF1ehsLwKBaXVKCyrRkmF912NLDfcix/Hvouta9bh0zf/R5XKC/tU2fTBavw7/AhuudH+u27dc5C2oQVBQb6/3rxRJYOYFx3T56xc1XmrtLQElgrtdV56WQ0abYRBDz8do4rIfP9ttLq+i/Yu3FrlXf7S46ZrcOJ8GUb27YySomLtfa9Ue2+TQLwCKRtO4I30PNU1rLy8EmXa72Kl9l4Zcut1uLXzdeh0vfep/t09u2Dfvn3a660U5ZXVqgwfvwKHv7a+zu6f8B7KKqpQrB1bfv9OfpuHWT/zfYBzIiIiIiJqGB4DoZqqYlSVXbB+MSo+iYri4+qxwy0j0em2B9C+a3+13vWd+6Frn8dxbdtuaF3h3Reovv06oV27IK20Ut3G2mtFprXv5uqLX01VEC6cK8f2beeQ9t5x9O3bRxaobb3h3EVMWoJMmjQJTz/9tHqMjIzEmDFjMGzYMAwcOFB1IfK+y5gMKm0dLPWLg6dU+LNg2j24vv2NCLJcizPf56ow6H8SnkanDh3VWENSZAyhpjKOxk8G/gTPjHoG/7PhfzDn4zmqrqaqBrtPZ+Jy9WU1X1cS1kl3murL51FV5Fiqi7VSpC3Tu4ZJq6AaCRvrwAgFJbS57bbbVAB04403qjDr4sWLOH36NL799lucOHHC1lrouuuu07eunWXKCJzTxwsS0m1MdFrxBW7+p/UaNWQo9GjsSvwt5ffa7+QZhP/sUez+0nouFZUVKtwSdQmDDDKYtIRCpd9n2IoorajBpVLti355DYrKq1FWWYPyKt8SDRnI+KEX/m67c1l1+Rls2XBEhUE9u7aVtwBF/e7I+4FW5Den2uLxLate5H3Omas6b1ks9vD34V9Gq1Jdqr2eK0ps80ESBqn3Nf8lQnd264rDpwoxbsSd+EH7aly+XITLRcUqmLnlpnbo3vk67XejQr3ey0pLcHN7C174ST/syctHaHfvX/9CAp5/bt+FsxeLUKG9Bl576QH8ds7D+L+zw/HKvAdQWlaujnvq1EmGQUREREREAcbjtyvV4qD8vPaF89+oKDqBist56rHo1Hp8f3AlSguOqPWKz32Js/vfRlBQNarbeNetq0+/DriufRCuu14r1wWhbdsg9cXvUmElDh+8hH9s+Dc+z/g3Hv/pD5D01j3o01eSIu+Zu4g98sgjauBoubvYe++9pwabTk9Px5YtW7Br1y410HBeXh7OnDmj1q1NdbW0jrF+Sf3yg59i119i8XDYKPXlVeq+eHcCDv/ve/jxjx7S6qzraQ+qRU1dbzvf2ORcT1w4gfSv0nHnDXfi6O9yMW3MNFTlV6FSe/71UVVZpcKfDZ9+hsyN/8TnW/biH198g61fnsI/DxSgukR73ZVYw5X9J0bhwLejbcUXRpcxCX7+8Y9/4PPPP8e2bdvUz/v48eOqXrqSnT17VgVCubm56NDBHvB4ciluPPKPW+/EJYwwyCDXz6hr6FBo40frUVVyEg9EDlGhkIwVI+3X6hMGic9f/xHGPnaLdiGP24vmf7/KV+XjPRfU44bsAvzjUCHaBXk/jpDZjd364l//uIyvwg6qMGj2O9sw50/bsPCZMMS/9U/MfOtfaj3t16jR1VTVfXyf6tJCVF76DuXfHdbKN6pUXfzWNi31ZWcOqnVkXX+R116/Wy04eKYM//2zAbitXQVKi4pQUnQZE4bfgsdHdEd5SZEqXdtVI+6xPujXqzO++Xc+7rilq74X70nQk3/qKLb8Mwvn80+gb5/2CO3VHt1uuQ77s7/GsaNHGAYREREREQUgj4HQrgOh+OLLW5C16wZs294K/9pWox4zP9mBbZuyUPjvTO2L6FkUfpeF67r2R3mQ9uXRS7fcYh2rpaioUo0X9NmnZ5CSfAQffXACD469BbP/b1+89tYQ9OxzDa5p43uIYu4i9tlnn+m1jqRVkEhNTbWVxx9/XNV5Iq181OCp2v+st1XWu4RJ8CMtgVQAZJ2WdhpGCwdptSFf1uojv8w6qPTjeR/jwby/41dlX2L6TdYv6v4k59q6VWu0DWqLx+57DPu+3YeUdSlod3M7dLq2/gGHjBM05t6euH/wzRjV93qM7BWE+24rw/BuBeoW9DXl1nFXJPBwLt6SQKhLly7q9vJy63kZPFpajcnPQwLDS5cu4fz58yoUkteKPGdvA6Gqfdv0qSvDILPGCoX+nr4PlcXfYdQY6+9gfcMgcensN9j0yfeqbM2swJ49PXD7XT/F7rmh2Dk7GF/M6o2s/+5pK5tfrP0OgK6Mi/8nXu/4d30OeOXZUarIWDfGtJDxaBpSybmd+pRdWf5+fcp3lsoy9Tq2tYAr1kppgRpTyKirLrqo1pF1/WnwHbfg/MXzqGjVBkunDUPEgPboGFSCkMmr0fMXf8UNrcowqnc7JD9/Nx4JuxMf/vMEYiKsLT7r4ucP9FWhz9yf36e6kZVV2McLkjoiIiIiIgo8Qa+++qrl2Wef1Wc9a9WqFYJkYFfjseosyotOo3VQK1Rd5/3AxlMnf4lHJ96Bs6cLseOLQgwY1BFjHuyOXsHXo+NN0lKofqGJDBY9c+ZMFQpJtwjjUYq0GpIidVKkVZAEQb6YOPsL/PThe1SrHwkRLDUSEEnYU6V9abXeSUyCHzWItPZYo9XVyKPFguQ/Z+Bi5kx9T57951Tr+Ef53R/S/t8YOygfBekvotfdkfq8o7+8+ZI+daXXX38dCQkJqsuUN74v/R59f6N9yde/h3dq3wlvPvkmIvrKHZLq7rM/xOP+u26BRftiXFNhvQW93JrbUlmOmqoKWPQWSHuKeuGRF62DgvtK7h43ZcoUFQpJ8COhz4ULF9S8PH95LcgA0jfddBNCQ0PRsWNHNZbQ6NHetUKSgKdVz36qe5g3jEDIU3jk68/H2afJk1Ug9MC6jWq+PmFQY3voD99gWGg37TXWGte0CtLeX9QY0or83sjtywtKqrHlcKEKn1yp6/WT62YmAZurOl/Ia7wuPL3e6/L8Mr86geKq6zAqtBPKyipw6uxl7f3Igg7Xt8Htt3RA9reXcfjkeTw3zr8D0y/6aA+CQ/sh98hhtg4iIiIiIgpAO3fu9C0QcqloD3CDbx/4p//XV5AuV/fcdzMm/PRO3Hyrf8fV+fjjj922CnImXcS8aRVk9lDC31UQJEGP3FZZBopWRe7kI49yF7KqatW1Surl7j4SEEmpsdSg4PP/1vfkHSMYOlam35L70Ov44gvvggizunyhfHvH2/jtp7/F9W2vx5yIOZh8j+MX5brw5ctyfQIhGTdIQiAhd5ILDg5Wj3feeada1thqC4XqGwgJCTJ+nb+vSYVB4ifLcpFfca32e+O5FZB0S3PXEskf1y+Q1fX5nfzu39ieW4GCstZo27o1gloBZeXaPiwVGHL7tbhvwJW3+veHl1IycUOXzgyEiIiIiIgCkH8CIWoymvsX5qaOP5/6YSBERERERETkHQmEGu6WPUREREREREREFJDYQoiIiIiIiIiIqAVhCyEiIiIiIiIiohaIgRARERERERERUQvDQIiIiIiIiIiIqIVhIERERERERERE1MIwECIiIiIiIiIiamEYCBERERERERERtTAMhIiIiIiIiIiIWhgGQkRERERERERELQwDISIiIiIiIiKiFibo1VdftTz77LP6LJD85gp9ioiIiIh8FTt1ij7lGT9zEVFz5e37IBFdPTt37nQdCM2fHafPEREREZG3Fryy1KdAiJ+5iKi58eV9kIiuHgmEWlyXsdOnT+tTgSnQz4/IF3w9U0Pg64oaSmFhYb0KEVFT5+q9zZdCRE0LxxAiIiIiIiKiAJKJ+E6d0MlWwrEsT19ERH7DQIiIiIioGcvbNAcH0iZh55t3Y98Hj+PcuXP6EiKiQDYMC/cWoKCgAHsXAnNjloGZEJF/MRAiIiIiaqb2pN6L3mN/j4FRqzF86pcY8uTHOPznMdixYweqq6v1tYiIAlvvabMwZddafMZEiMivGAgRERERNUMSBt0TvVubSnUo98cfRPHWp7B5cQg++92dSF9wOzYsHogtKRE4e/asto4nGYgJCkKQrYQhKVdfZMiIMS0PQpjDCrK9i23c1tdVoJ6np/Py4pyJyCpvGcJt3cnikakqnbqZhUuLIqmzdzfLWxbu1P0sD8vC7dvEZzrOW4vsX99Ppv244badOB7Dzl09UeBgIERERETUDFksFqAsGSgudipL8GBiDsJn5+GRX59A5PyTGJd4ABdP7sGqVatw7NgxfQ/ujMSSHIvaf84SIOHpJNgzjRgERWbbllssOYhKC3EKWxpLoJ6nh/PyuIyo+Th//rzH4ixv2SKsGDYRj/SWuUzED12LiXp3soLVwCJb6mLvZlaQOQ1qdZtMJK+VNQwS/gzF2ol7retrJSm8N6ZlyvRqTLHtKwnhav1dmLsISJF1rX3YvA57XD1HFpaGKr5gIERERETkQXFxsepiJUWmG5scd+vWrfqc92pqaoCiIuDSZWQtX+5Y/jhYlS2v9cPni4KxYWFPtGnTBn2LX8OBVT/E8ePH9b14Fhw/H9Hb0/CpSi1ykbQgFdHpWYgPVos1wYh/T5KNxcjQa66GQD1Px/Ny5GkZUXPQtWtXt8VqF+YOtbbGGTp3IFYbAU9eDg6YlnWatAK7jhxVW3iSGT8JmDULA/V55H2GtbumYNY0x9jIvWFYmKKfQ+9pmDVlF+yHNZ2PVuKtTZZsXD1HFpaGKL6qQyDk3Jw1CDG1/st55Tb2MgpLnf6hy4jR6mvfaaMJnPPRr6Obc8ldOsrl9SQKROr16vxalr/YBtDvfsDIXYpRo5Za/0psniYX5H3S/D6Yi6WjAuvflKuGr6M6kXF2Dh06hIqKClVkurHH3ikvL8fOnTuRmen0DaMWKhAqLkbWR6sRNiPbZRkz8zAempWLcXOPY/xz0Xj0pVMoyC/AmjVr9L34IPdTpG2PxoQIfd4Q/CiiRmbjm7q84OTfhTA/t5JpiPNU7z3O3b/Y5YuofkytfWytdAxTsFpv1aNKkuPSKxxdhkVYjdpW814ecg7ok4rpXFdPwYpFHACbmoY6thDS/oEzmtjmJGF/ZIz2z15tTNvYSjqi9aU22ofUl/dHI3r/y4ERbATa+WjXMczluWRgcXyWPk0U+ILj5iE61fxa1r64v7wfSYnOn9BJu1hYGZWGEAmEQ+IxaF4cbH/UJo8yYkKQFpUDSwpfV3wd1Y20lCktLdXnoKa9bT3jL6NHj8aQIUOwb98+n0Iho4VQ27ZttTnHcYRclfJj8vUlVQVeJ06c0KZrl5u0AKkjo/Co8WIa2R8h+qSj7TiUo09q0wkh2uvQ9sdBKZHqLDzKTUKYwzbW4k3e26jn6YMrzsvE0zKiFq13CAZihambWG12Ye6ktZgY65QG9X4EE4f5tp+1xqjWeuui8X4LmIiujvp3GQsOxSDsxxE/hSW569OAqEQkRgFp669+AhNo5yMGDXJxLhnrkBodfWXARhSwIpCYZHot565HGqIwnh98XQqO22YL05lteEdaoUUiHdvi+KIy8HXkm/z8fJw+fVqfs5M6WdaYwsPDfQ6FVEumsjL181a0aU/FCL4kSLJt45I9KAlJGIz0rHh7uLj9EGx5ioOR6G9LYOzj5NiLiz8SiogUWIz9B8cjy2Eba3H/Wm7E81TMAZKn4MjDeXlcRkRW4UhSY/gMtXXR6uTcR8vJsIUpuLJnmIwXtBoDTfvxvJthGHgkxrru0LkYuNrcasnche2AvWsZUYCrfyCkgoh5iAu2NssfZfy5X5r4+twcPRcqf9G+EQaPVwnMVW7OXtv5mLvCGV0U9O4KGUsxSl9muyZ+MiBxHgbFm/u4Gy0rJujzwrnbhNO8dBewnbvRwkt/Pk4/tyu6ojlsa/7LnPkY+r6MhW63Efq6qpjP2eB47o7n47jsynm9u4jtuI7z1iLPX9/uip+bdX2H87W9ts3HkmltO7Wip3NyXObpuVxx3ZshaSVkvJYlfLW3WNCvp0Nxuk5ufsdUF09jG9sPzml/Dq9x59eE/Zo77Mv5+MYOnF7b9nNxWs/jvOOyOr8uPP5u2uutxbQPt+8H2jpeX2d3v1uyyNN5uT9GvayPQUhaFHKcvynWdo08vv95s46qcH89bRsa8+6vm/vXsrtr5niMOr+OyCYnx3VkIDwtayhjx45Fly5dVCh05swZvdZRbGys7VG1ENJIVzdFxhPyUMyBkGfmoCQFtt8y1eUqFetsv1c61UVrMPo2erLR2OdpPp6n4MjNeSmelhG1JOFIKsh0EeLoek9D5hVdxlxtI3UFyLRVOq9jXW7sx96lzPXxQ2Mz3axr30eBbTvX+yAKJHUMhLIQb/wFJBJIVx+4gxG3LV3/cqd98JT6bT42Rze3EAger02l4ao2yvHmfMKSkHPFP/ra9XkZWCn/mOckAfGT/fyhOwITok0fZHxuWaH9fEK0LYwPHOnAy7YTDNP+Mz/PXKw/KLUG2TYeg9L1bVWXQecvFfIFR14A2nL12vBiG5fX0ZUMLE4zn48nch56dxH1wUr+iiivU5mWYxndGI0PXK5+btr686KRavrUmLEuFdEOXS2cn6+3PD0XX55nU2a8lqXL4yCn8RzM3Uy9/x2LSDFt49AlzdifVp910Okvw6Zleo18qX85NVr7sTrVO3B6bWvrDYoPcQwQfVbX10Vtv2furqen9wNfrrO7363azqsh3i+1fcY7/56K2q+R5/c/4c17pLvr6Yr79yT3r2VvrhnfX/yhVSv3H5M8LWsomzZtwoULF1RLoe7du+u1jpKTk22PxlhHtkDIdpcx16WkpEStVnsg5E4w4udr/2Y6DCUgvxMJwJJE/d9aH5nHEKpHlzFHDXCeRERETVAdP82YvljkDMDLtr8yRiBF+/AbaU2JfP4H1do9a7z+AT4Y0ignfnG9vlnVS63nI62jBoXqy82067NS/yISHId50Vk46Oc/JEYkal9kXrb+lTpjsfYFx+VYENqXBldNl3OPYL95WWQqskwnGBU1yP48MxYjbUAUBlnn9G1NAzG6eH5pk60hjC0bqW0bt9fxShmSNM6bZz8fxd3zXI+0rGjM87q7iJufW8QE7cvYOv1DYwbW7U+CeZibK56vl1w/FytPy5ob9VqOjMT+JF8+hHv4HZMvD86vBcV4nTi/P+XgYNYghHr7MlHs+0o1v7a1vU6IBvbXow9tnV8XXvxuuuTx/aAu19lJrefVEO+X2j7TncMejRfXyOP7n67290h319PNe5U7bq9x7deM7y/+ce+99+L+++93WWRZY5JuYtIySMIg6T7mDSMQkkGpFRetgszFaCEkn+/ktVcn0sVLfRa0v9blDyZZ9tt51Z3PXcY8aMjzJCIiaiLq/+ctaTkT5o8P8NJCIEv7hzhE/4c5CCEySLLti3hjq/18VEsR+zdBN3JxZL8+6U9Gi6UMGfTaMaCw0740GMGd/IVZr7UyWj7oxfxpanwikvZbn2fGuv2IGh9qrfeKDGwd5hAw1ca766jJ0Z4r0l188PP0POvK/HOTsW72q7/y5y59GfttIaHw/fkqbp+LxtOy5ki9h4Sprpl1Y/pZSVcd9ZleXgs5SHJoAmG8TnIw4GVTUCCBZNiAKwcX1b5or9R+7tYvCy6+kMu+cpK0KT+6aq8LD+8HNt5e5/rw4/tlSBy2pQ9CfIi5BYAXvHn/q3Udd9fTh/cqr6+xi2vG95dmR24572sYJEJ+vhnp6emorKrE3156CWv/8hd89P77+HDlSnywfDnef+cdrExJwbtvvok/vfEGtm/fjtSYGHxyajy6deum78VZBFIsWabbtbsgYYvpd8Dx9eZuezf15jGEfNLI53lFva/bC0/LiOjqYvcvap7qHwipVhhhGKC+TWVYu4ppH3Th1Z3HTNSXMuk2ZP+H2foh2Ogape3b5VgI5mk/8uJ81qWaWwaYZTkOlJvlbr36kK5M2pedyHhTKyYvqYHAUz10Y5DWUBKALMU6yPhQerXQt7V3V9O+XDhcB+2L/cpt2teNSPu4Fh638XQdzbQPSJFpiPLlDlQqaPD0PJ25/7lZx5BarLpZOAYXLp5vrTw9lzo8zyYud+lkxA9yep3Vys3PKucgsoxwR9XLhCv2EFsCyTCXv0MyhlgWwpKky6GbL+/6a8zeo1Bez3UNt+r5uqj1d9MNj+8H9b3OmlrPqwHfL7UvezkS6hlj/nh1jTy8/9nU/h7p/fuOGx6vsadrxveX5kjuEjZ8+HCfwiDRs2dPdHn4I3zVaio25U/C5sInsKXoSfyr9JfYXjEFO6qewW7Lc9gbFIOvWk/F19dOR3abFzBixAifj0VERERNTx0DIe1DpdHsXY2VsE0fVNro9mFtUWH7EO4F11/K5EN3mMP4LY3F8/nEIEa1GEg1tR6Qa2KEYGEYdHCyfn1kvArfu895JSIRSWG+dIkyRCBFjTthb/1kH7DUyjrYbzyu/GZm3XZ/pL6d+vlf+fwiUnIQlabtX70G3G0jYZ6n6+goLGmlj6GBjM1hHdPFeJ6exxnw8HOTbhmDtDN1E1w4Pl9h+h1x8bw8PRffn2fTZB3UNsj1wL+1cvOzkt8JxFtvqz35IAY5tKowfiYhiB8kLSSsg/lG7k/CShcXXG5XHq/tzdUyO+01ttL02tZ+1kiX90N9scvXgfO8v14X3v1uXsnT+0FdrrOz2s6rYd8v5a5a6YO0c/X4XuTI/fufXW3vka6vpw88XmPP14zvL83Pfffdp249Xxey7bRp0zBnzhwkJiZi5syZiIuLw4wZM1S9PMq81MtyWU/qZTsiIiJq3oJeffVVy7PPPqvPAslvrsD82XH6XPMjt4rt0aOHPldXEmSswwR94E8ro24C1gW9jAEqJNMX+cA/59dUeLqO/v1SWDs5ruefm9zxZ92EOo5VcNWe19XVMK/n2n9WTUcgvy4a4zrX7Rgt633SWXN6/QeewsJCfapuOnbsiAWvLEXs1Cl6jWfN/TMXETU9jfU+eP78eXTt2lWfIyJ/8eV3a+fOnX7oMkbUEkjXErdjNRERUXMlAzPLLebfffddVWTaGKyZiKgl+etf/6oKETUfDITqJAIpV/xF31UdedYUrqO1W5HqWmLc1adO+PogV/i6IAp0eXl5+O6779Qt2aXItNRdLbGxsfoUEVHjunDhgipE1HwwEPI7+YLHpvxNj7ufm4xDJAOK82caOPg71jga4zrzZ+k7XrPGdvbsWX3KzlVdY0lOTtaniIiIiOqHgRARERGRGzU1NfqUnau6QJa3aQ4OpE3Czjfvxr4PHse5c+f0JURERNSSMRAiIiIiaqb2pN6L3mN/j4FRqzF86pcY8uTHOPznMdixYwfHQiIiImrhGAgRERERNUMSBt0TvVubSnUo98cfRPHWp7B5cQg++92dSF9wOzYsHogtKRFedIeTO90FIchWwpCUqy/yuMwfvNh/RoxpeRDCHFaQ7V2dk7t6b13Na0JEzZHFYkFVVRVLCysyVmFZWZn+KmgcDISIiIiImiH5QoGyZKC42KkswYOJOQifnYdHfn0CkfNPYlziAVw8uQerVq3CsWPH9D24MxJLcmR8PQtylgAJTyfBnnF4WuYPHvYvYVBktm25xZKDqLQQp1CooVzNa0JEzY10Tb7xxhvRuXNnlhZUOnTo0Ojd0oNeffVVy7PPPqvPAslvrsD82XFY82EqHvjRGL224XXp1lcds/Cmx/UaIiIiosbxzMNdUVhYqM/ZvfPOO+qxvLxcPbZt21Y9mj87GTp27IgFryxF7NQpeo1nxmeu2kj3Ljn+6NGj9RrvyJhBwydNAiqrkPXRar3WUWVlpcNfJy3af2LQ09vQs2dPNe1IWrwsQP+cLMSrwc3N856WyXx9edp/LpLCQnBovgUp5ls35iYhLOQQ5qs7Oro7n/qep6fz8rRM5okCi6v3QcMbb7yhHqdPn64eXfH2ffD8+fPo2rWrPkfO5P1YAgJpWUgth7QOys/PR/v27fUa3/nyu7Vz5062ECIiIiIKZBIGyYe2zMxMvcY76q+MxcUqDAqbke2yjJl5GA/NysW4uccx/rloPPrSKRTkF2DNmjX6XhqAtOQJ83MrmdxPkbY9GhPMYZAIfhRRI7PxTZ0OJuGNc/cvdvkiIqLmg4EQERERUQCTlkFDhgzBvn37fAqFVCBUVKS3anIcR8hVKT+Wpx5lsOkTJ05o07XLTVqA1JFReNRFaxdPy2ykBY/DGDvWEpOhL/fgiv2P7I8QfdLRdhzK0Se16YQQ5+NFqivgL/W+JkRERI2EgRARERFRgAsPD/c5FFJ3ESsrU2PXKDJQpYdSWlqqVpMgybaNS/ZQJSRhMNKz4mHPNzwt00WkwGLUB8cjS43341gcun058LD/7Ydgy30cjER/W1JkH8/HXtIRrS+9kjlA8hQc1fOaEJGPMhHfqRM62Uo4lkmmbZYZb1reCeEOK8j2LrZxrjftw3F7ouaBgRARERFREzB27Fh06dJFhUJnzpzRax3FxsbaHo2BKSsqKtSjtBbyVMyBkGfmUEXG5jHztMwf3OxfdQ1LxTrnlkWqK9lg9K1zAmM+nqfg6GpeE6KWahgW7i1AQUEB9i4E5sYsgy2ykSBn0gHb8oKCvZi4dqiPoU4m4icBq9X2qzFwboyLAClAmO6wOGqpqV+rv+rNeCyr+hwrgDAQIiIiImoCNm3ahAsXLqiWQt27d9drHSUnJ9seVQshjS0QuuJuY45Fbncrag+E6kk+LBtjCNWjy5ijYMTPj0ZqZAzsm2YgJiQBWJLIEIaomes9bRam7FqLz1Rgk4dli1ZgyupMTOutFmt6Y1qKpEbJ8LrjbeZ6rJgyHuFqJhyx2uZrrQcIMNp7XSSQrgfXg+Inw5pD+KvejMeq/7ECS4MEQl1v6adPEREREVF9STcxaRkkYZB0H/OGEQgZd0hz1SrIXIwWQtKSRUKZRuFzlzEPpCtaOhBpC5bUp3Jk8XZeRC1L3mdYu2sKxju/VfZ+BBOHHUCOl5lOXs4BDAvto89pm4cMxK4jR/W5AJKxDqnRE/TgOwKJSUDa+lz/1ZvxWPU/VoBpsBZCzSIU2vkifjXuZlV+v9b0zuFrfaP6HCv1c7iyRCLzFPD92kj8aunn+vo6OXeHujxkJpi2TUjB91pt9lJTnanYnq/pGjjUExERNUGtW7fWp+xc1TWkrVu3+hwGiZCfb0Z6ejoqqyrxt5dewtq//AUfvf8+Ply5Eh8sX47333kHK1NS8O6bb+JPb7yB7du3IzUmBp+cGo9u3brpe3EWgRSLu1ume1pmYh5DyCde7F/27TZYcre9t/W+bi88LSMif8lbtggrhk3EI0aLoGGhsEc5Zrtgz3R2Ye5Q+xhD1jIJK/SlTUXukf0IG2AfUj84dBCyDub4rd6Mx6r/sQJNw3UZszT1UOhzrJwPxG84hz9t+Ct6vPWCClN8r78ahuHny+U8zOWvGK0vvWXiixid/gfT+eUh8y+H8POfPWSdPZWC34+7D6f/07T9fwNf7wQGx5n3Zz/OnInau6+EQfO1/diOvQP3br2PoRARETVZvXvb+hvYuKprSHKXsOHDh/sUBomePXuiy8Mf4atWU7EpfxI2Fz6BLUVP4l+lv8T2iinYUfUMdluew96gGHzVeiq+vnY6stu8gBEjRvh8LCKixmcPdIbOHYjVmdNge3fedQSu2/IMg73Rj30MIntZjSn6UqKWoF6BkAQ+ropNUw6FdqZja2QkBquZh/DI88DunXm+1zeC7KXWlj/eczq/U5nYjZ/grttkJg+Zr85DjwXnMHm4Wmp1WwzCzfNXkFDpPYxekI5wtR/RG+H//TLw1hvIVvPS6uhFfZqIiCjwjRo1CiEhIbjmmmtUkWmpa0z33XefuvV8Xci206ZNw5w5c5CYmIiZM2ciLi4OM2bMUPXyKPNSL8tlPamX7YiIAps50EnSx/rRqK5hK7DeebAg1ZVsIEK8zPSdu4g5dyEjag7q30JI7krqqhi06aYYCn1/6hCC7+ilzwG33NYfud8e87m+Qends/aONIcw3pFWQj30oOb7nX9Dj/+MwS2yQMKhg09jqMfwxwV3290WjnsHHMJ3KrDqjfAlkdgr3cmcu6wREREFIAmBxowZg5iYGFVkWuqaks6dO6NHjx6444470KtXLwQHByM0NBT9+/dXjzIv9bJc1pP1iYiart6YNmsKVkyKNw0gnYn4oXOBhbH24Kg2fUIxbMV6fR+ZSNY2n2jrkxY4nLslGd2W/FVvxmPV/1iBpuG6jJk10VAoYKkuXTfjV9sjVdcsh5Y8XnsIQyPfw96dn+Ozt/o7BjkDQuFu5ACP3G63C6dtLZgewmTpTjYyXYVZK3fq1URERERERP4QnoSC1cAk09hAWF2ATPttx2rXexoybfuQ7c13LQsgIQMQlroO1jssZmBxPBA1Pth/9WY8Vv2PFWAaJxASDIX8JvujeciV8XuMMX/qaPDPXsbp+T/H6een613ddAeP4Kw+6RO32w1DD+cWTMOn4+cDgK3z2YWMiIjIW7GxsfoUEVFLFo6kgloCGgmFTOMDJTk0DXK3vVO9aR+O2weQ4Dhss91hUe6uuA1xkkH4q96Mx6r/sQJMq5qaGn2ygQUB578/rM8EPucuX0aXMF/rG4J1YOfXgVflTl71CFRUd65huHe46Z1Q1UnLIX3eW+62U13J+uNWWyBk3L3sBeC/5Xn8wTGMIiIiIreSk5P1KSIiIp3pDosOd1f0V70Zj2VVn2MFCMmCGqeFUBMLg5TbQhGcnq6HLdKtCtbgxNd6ufuYfrt3/5LxeCRQkTF56rb/79e+gL/2fNFp/CFtv//5NLbOd+rOdSoFmR5DImM7c0ClPfdn5gG2FkgSBhlBkO/jHhEREZHv8jbNwYG0Sdj55t3Y98HjOHfunL6EiIiIWrL6B0JBbopBm25yYZC4LQZzFgBJMlbPuJ8Dxt2zfK1vcDImj2/H+n5tpHaON2Pu1p9gYZyLbmfD/4A/LZfuZPJc9PIqcFdtYxXJdrZrYFwH/Zb0ioRYDIKIiIgay57Ue9F77O8xMGo1hk/9EkOe/BiH/zwGO3bsQHV1tb4WERERtUT1CoQk6HFVbJpqGGSQgEMGQHYeuNmnet8Dm/pxdzx7/S0T063nuUS/s5grEnDpz8X1um6OY7oGUuo24DURERHVl4RB90Tv1qZSHcr98QdRvPUpbF4cgs9+dyfSF9yODYsHYktKBM6erW0UwQzEBIUhKVef9TjvvMwqI0bGVvC8jvv6QOLpuQvzvOvnE5jXQo4n52UU87E9LSMioqam4bqMNfUwiIiIiKgJk/ELUJYMFBc7lSV4MDEH4bPz8MivTyBy/kmMSzyAiyf3YNWqVTh2zD4mot/lJmGB5FIU4NdiJJbkWMfAyFkCJDydBHvu42kZERE1JQ0WCDEMIiIiIqo/6d61detWfc576sYhRUXApcvIWr7csfxxsCpbXuuHzxcFY8PCnmjTpg36Fr+GA6t+iOPHj+t78adcJD2dgMHp6YjWa1qupnMtguPnI3p7Gj51kfp4WkZERIGvQQIhhkFERERE/lFeXo6dO3ciMzNTr/GOCoSKi5H10WqEzch2WcbMPIyHZuVi3NzjGP9cNB596RQK8guwZs0afS9+lLEYCYPT63DXFaduSmFGi5TauljlIiksCGHGChkxpm1N3NU3JL9eCy+f5xXXy931I6JAIK01jbtVsbSMcvr0afXe3piCFi1aZImOtv9tIvnNFZg/Ow5rPkzFAz8ao9c2vC7d+qpjFt70uF5DRERE1DieebgrCgsL9bm66dixIxa8shSxU6foNZ4Zn7m8IWHQvn37MGTIEISHh+u1nkkLoLAHH8Sebdtwj+mznjvlWVloGxaGlbGx2INoN7e4lxBhAfrnZCE+uLZ5b6cj1ehGV5KuSa7WX4cJlhREXHFsg6v1J2CdbTsnEqAs6I+crHgE5yYhLCQB2/VFhuh0V7cPdj6+p3lvp+tzLWp5nrWer8GxPjcpDCFpUdbr43EZNQee3gffeOMN9Th9+nT16Iq374Pnz59H165d9TlyJoH++++/X+9/l6hpkd+fp556Cq1a1b3dji+/W1988QUDISIiIqJAD4SEr6HQP5MG4P7778fu3btxb0wMUFamL3GtYNs2dHroIbz7wgvYGxSDP/7xj/oSs9pCBfO8fbrv4iAs6J+DLLWS63Ws2xuc17EHJfZwxrFeWJc57VMCn8hUN6FOfTifu6d5+3TDXAtNrc/TcVsrI2jSZxXn9aKRbguYPC2j5oCBEFHT5msg1HCDShMRERGR34wdOxZdunRRodCZM2f0WkexsbG2R9VlTFNRUaEe1XhCHkppaalazdjOb3KSsCB7Cd5zTB18ZAxknIP+C8zdnOwDHFvSo5G6oJG7fvmqQa+FN0zXy+Jp/CLzes6Bj6dlRETUlDAQIiIiImoCNm3ahAsXLqgWQt27d9drHRndvOSxurpaTdsCoSvuNuZYSkpK1Gr+DYS2IyEyAYPn+7NL0XYcytEna5WBmEgg3ZIORMZocy6Yx9yRLmPmMXr0EuNyQ1815LXw4nkSERE5CbguYw8+VnsfdyIiIiJ/uuk6z10lvBFoYwhlvtJbrbthwwaMmzsXOHBAX+La/t27MWjyZKTGxGB/2xkexhBy7nbkTFqQmLo3RafD4tCHSerr3k0Ktv051TscV7Z9D3g6BGlR1u5Zbse7MY8hpFd5x/n4rjTGtQhBUpgXz9NhP67mDe7qhadl1BywyxhR09bkxxBiIERERESNLZADIbnlvNxlzJcwSMit4w+uuh81lhpUV1Wrlj/Sasgoxrw8GkW6AX1yajxGjBiBefPm6XsiopaCgRBR08YxhIiIiIiakbZt22L48OE+hUGiZ8+e6PLwR/iq1VRsyp+EzYVPYEvRk/hX6S+xvWIKdlQ9g92W59QA0l+1noqvr52O7DYvqDDI12MREZH/SDhfVVXF0sKKdN0uq+UGEP7GFkJERETU4gV6l7H6uHjxovqAKR82nVsHtW7dWt3eVh6lXHPNNWjXrh06d+6sb01ELQlbCAUGeX/u0KGDek+mlqO4uBiXL19G+/bt9RrfsYUQEREREdlIuNOjRw/ccccd6NWrF4KDgxEaGor+/furR5mXelku6zEMIiK6uqSFkIRBzgPcszTvcjUCQAZCREREREREREQtDAMhIiIioiYiNjZWnyIiIiKqHwZCnmyMQef2QaqMez1Xr9S4qxdqWQw26bONLwMJ+rldWUbhraPAsddHofMLGfr6Ojlvh7pcvPWgadsHl+KYVrvpBVOdqdiug+naONQTERFRvbm+FTwRUUuTifhOndDJVsKxLE9fZMiMNy3vhHCHFWR7F9u4qlf7ideWEDU/DITcykDCBCCtxIKLJekYMGuyClPc1+sByifAZJm9qsKwMFvOz1zSbefV64V5mLz8Zf28hXbur+zHwoQI6+zRpRjXPgTfzDZt/zawYSMw9nXz/uzH2fBCsDUMmqDtx3bsHEz8OIShEBER0VWUt2kODqRNws4378a+Dx7HuXPn9CVERE3ZMCzcW4CCggLsXQjMjVkGW44jIc6kA7blBQV7MXHtUKdQqDZ5WBbeCZ3WA97dKuAqyoixjUMzaqnpu5e/6s14LKv6HCuAMBByZ+M6rHxmAsaqmQjELgLWZmg/UHf1CMbzmy24+PoEtaQxbXrB2vLHe+bz1hxdj7WIwrg+MpOLt56Lx4B1Fix5WC216hOH583zV5BQKRWT123D82o/QrsmbycBsxbrLaYkNLuaraeIiIhalj2p96L32N9jYNRqDJ/6JYY8+TEO/3kMduzYoe5iQ0TUHPSeNgtTdq3FZyrvycOyRSswZXUmpvVWizW9MS1FUqNkH1r6aNtkFqAgabw+H6gyEBMJpFsssFjSMSh+Mqw5hL/qzXis+h8rsDAQcuPYkf0Y1i9EnwN6hQ7CrsM5buuvCr171vrHzCGMd6SV0AA9qDmWkYYBs+PQSxZIOPRFNMZ7DH9ccLddn/GYOGI/clVgJaHZBKyX7mTOXdaIiIjIryQMuid6tzaV6lDujz+I4q1PYfPiEHz2uzuRvuB2bFg8EFtSInD27FltHU+0D7v6Xz6tJQxJtg+7npb5g+zf+Xju5p2XWWXEmM/L9Tru6xuKHM/ddfO0jIhcyvsMa3dNwfhwfd7Q+xFMHHYAOb40EmoKMtYhNXoCrH09IpCYBKSt194o/FVvxmPV/1gBhoFQU6S6dEn3tAmqa5ZDSx6vRWD8M6lYvzEDybMGOQY5IwbAx3zJyu12WfjG1oIpAkukO9lj61SYlbBRryYiIiK/ktsWoywZKC52KkvwYGIOwmfn4ZFfn0Dk/JMYl3gAF0/uwapVq3DsmIwa6MlILMmRv35akLMESHg6CfaPu56WXWW5SVggmVhAaqLXlChA5C1bhBXDJuIRo0XQsFA330t24Yjte8kuzB1qH2PIWiZhhb60qcg9sh9hA+wNFoJDByHrYI7f6s14rPofK9AwEGqCNi2J196+wuxj/tTR2IQkHJwQiYOLEvUucLovDsKnHmgGt9uFoa/zO/LDiVg4Alg5gV3IiIiIPJHuXVu3btXnvFdTUwMUFQGXLiNr+XLH8sfBqmx5rR8+XxSMDQt7ok2bNuhb/BoOrPohjh8/ru/Fs+D4+YjenoZPXSQUnpY1vlwkPZ2AwenpiNZrAlXTuaZEV5s90Bk6dyBWZ06DrYfYriNuvpcMQ6jte4l9DCJ7WR344wUR+REDITecu4IZXcXc1Tcm68DOK4Hn5E5e9QhUVHeuMEyMCNYrNKpOWg7p895yt53qSjYIwbY3Xn3w7faTgbfleaQ4hlFERETkoLy8HDt37kRmpm/3uFGBUHExsj5ajbAZ2S7LmJmH8dCsXIybexzjn4vGoy+dQkF+AdasWaPvpQHIgJthjdzKJWMxEganI8Xnv6U5ddlS552LpLAghBl9t9w+H+euZ43dFY2ouTMHOkmw9RBTXcNWYL3zW6bqSjYQIbbUiIgYCLnTZwCGLV+nhy3SrQrW4MRdvVtyG3hfB332hj6IdYmMyVO3/R97fTLmDpjnNP6Qtt/Z0Vg5wak719GleMtjSGRsZw6otOc+OB6wtUCSMMgIgnwf94iIiKglGj16NIYMGYJ9+/b5FAoZLYTatm2rzTmOI+SqlB+TgTVS1WDTJ06c0KZrl5u0AKkjo/Coi49CnpbZ5CYhzBy46CXGr0MNZiAmMhtLEl2lQduREOJ8/Eh1ReyMLlvpiN5+CDnaZ574rHQMTlis7Vn2DaRnxWu1/lHva0rU4vXGtFlTsGKS+VbxmYgfOhdYGGsPjpoJ525JRrclf9Wb8Vj1P1agYSDkTp84bFgHRMlYPe21f+mNu2e5q79qZEwe387h2Ouj1Pg993wchT2vu/hw9HAKLmZLdzJ5jnp5DhhX21hFsp3t2hjXR78lvSIhFoMgIiIiX4WHh/scCqm7iJWVqbFnFG3aUyktLVWrSZBk28Yle4gSkjDYKQzxtEwXkQKLUR8cjyztWHI8c/G9JY97GTGRyF7yHuJdhij28XnsxblbmfGcJPlJsQ0WmpIORDrUuWIOnJyDJrN6XlMichSehILVwCTT2EBYXYBM+23Hmo+QAQhLXQdrjp6BxfHa97Hx2ruEv+rNeKz6HyvAMBDyRAIOGQDZeeBmd/WKBDTmblC+Bzb14+549vpeL2yznv9m/c5irkjwpT9H1+u6OY7p2kip24DXRERE5Gzs2LHo0qWLCoXOnDmj1zqKjY21PaoWQpqKigr1qMYT8lDMgZBn5hDFOQzxtOwqyEnCguwleM91GuQl4znloP8CX7t8ma+Hp/GLmtA1JQoI4UgqMN9W3gUJhUzjAyU5NA1yt72reqkzdUkLNMFx2KYCaiO43oY4ecvzV70Zj1X/YwUYBkJERERETcCmTZtw4cIF1VKoe/fueq2j5ORk26NqIaSxBUJX3G3MsZSUlKjVag+E6sk85k6DdhnbjoTIBAye788WNdtxSPUG0LuKWeSTf4z+12AioqtEWl6q0NiphaW/6s14LKv6HCuAMBAiIiIiCnDSTUxaBkkYJN3HvGEEQjIoteKiVZC5GC2E5EOshDKNwucuY85dsGrpkhVdl4GknRnHCNEHppZBpaUbWiIitP8Sl2QjsrEHySYiIvKDoEWLFlmio+0NWJPfXIH5s+Ow5sNUPPCjMXptw+vSra865oOPBfrNQImIiKi5uek6oLCwUJ+rm44dO2LBK0sRO9W7mxYbn7lqI7ecl7uM+RIGCbl1/MFV96PGUoPqqmrV8kdCIqMY8/JoFAljPjk1HiNGjMC8efP0PRFRS+HpffCNN95Qj9OnT1ePrnj7Pnj+/Hl07dpVnyNnVVVV6Ny5swq7qeUoKytDfn4+2rdvr9f4zpffrS+++IIthIiIiIgCmdwlbPjw4T6FQaJnz57o8vBH+KrVVGzKn4TNhU9gS9GT+FfpL7G9Ygp2VD2D3ZbnsDcoBl+1noqvr52O7DYvqDDI12MRERFR08NAiIiIiCiA3XffferW83Uh206bNg1z5sxBYmIiZs6cibi4OMyYMUPVy6PMS70sl/WkXrYjIiKi5o2BEBEREVEzJt0OevTogTvuuAO9evVCcHAwQkND0b9/f/Uo81Ivy2U9WZ+IiIiaPwZCRERERERERAHk2LFjVwy4z9K8y+nTpxt93KiAG1T6p09wUGkiIiJqfIE6qLRZbGys7dbyRET+xkGlA4MM8v/+++/X+98lalrk9+epp55Cq1Z1b7fj66DSDISIiIiINE0hECIiakgMhIiaNt5ljIiIiIhs8jbNwYG0Sdj55t3Y98HjOHfunL6EiIiIWjIGQkRERETN1J7Ue9F77O8xMGo1hk/9EkOe/BiH/zwGO3bsQHV1tb4WERERtUQMhIiIiIiaIQmD7onerU2lOpT74w+ieOtT2Lw4BJ/97k6kL7gdGxYPxJaUCJw9e1Zbx5MMxAQFqUEvrSUMSbn6Io/L/EH273w8d/POy6wyYszn5Xod9/UNRY7n7rrVdRkREVHtGAgRERERNUNyxxKUJQPFxU5lCR5MzEH47Dw88usTiJx/EuMSD+DiyT1YtWqVurONZyOxJMd6R5ScJUDC00mw5xCell1luUlYIJlYQKrrNQ3g601ERAGPgRARERFRAJPuXVu3btXnvCd3qUFREXDpMrKWL3csfxysypbX+uHzRcHYsLAn2rRpg77Fr+HAqh/i+PHj+l48C46fj+jtafjURQrhaVnjy0XS0wkYnJ6OQL99SV2vaWBdbyKqDwl5q6qqWFpYKSkpQVlZmf4qaBwMhDzJiLE1wx211PSvq5t6azNkF+s3Kufmw+YyCnJauUtHISgmQ19fJ8/JoS4XS0eZth21VP3FyfwczcX2fE3XxqGeiIiI6qS8vBw7d+5EZmamXuMdFQgVFyPro9UIm5HtsoyZeRgPzcrFuLnHMf65aDz60ikU5BdgzZo1+l4agHxWCGvkliwZi5EwOB0pEfq815w+V6nzzkVSWBDCjP5Zbp+PbOvcxYvduoiodvL+feONN6Jz584sLah06NDB+m93I2Ig5Jb2j3YkkG6RZrjpGBQ/WYUpbutzl+LIBGuTXcf1rwbtw4befNhe7H8RC46bh+jUl03nl4ulL+9HUqL+KUl7LqOCQnBwnmn7lcD6DCAixbw/+3G2xQVbPxBFavuxHTsHUWkhDIWIiIjqYfTo0RgyZAj27dvnUyhktBBq27atNuc4jpCrUn4sTz3KYNMnTpzQpmuXm7QAqSOj8Kj2McCZp2U2uUkIMwcuenH+u1X9yGe3bCwxPuc42I6EEOfjR6orYmd0y9I++2w/hBwEIz4rHYMTFmt71j8XZsVrtf5R12vq1fUmoiZBvktdc801Tu9NLM29yM+8sTEQcidjHVKjJ8D60SECiUlA2vpc9/XBcYizfc4IwYAwfbIRZMRYW/54z3TeInc90hCF8eoDRC6WTo7HoHSL41/RHJ6fKxIqpSI6fRskG7IKRtxK7UDx8oFJSKujGH2aiIiIvBUeHu5zKKTuIlZWpr5YKNIM3UMpLS1Vq0mQZNvGJXuIEpIw2CkM8bRMF5ECi1EfHI8s9Uckx+J7Sx73MmIikb3kPcRfcSLCPgaPvTh3KzOekyQ/KbbPgCnpQKRDnSvmwMk5aDKr6zX14noTERG5wUDIjdwj+xE2IESf0z6vhA5C1sEct/WOcnAwaxBCG/pfZL171roJ5hDGO9JKaJAe1OSuT8OgeXHWDxASDmVFY4KvH8TcbRc8HlFh+3FEZU/BiNs2AevkQ5F///RHRETU7I0dOxZdunRRodCZM2f0WkexsbG2R6PZeUVFhXpU4wl5KOZAyDNziOIchnhadhXkJGFB9hK85zoN8pLxnHLQf4GvXb7M18PT+EV1vaYBdr2JiKhJYSDUAOQvUfuTEhvuH2XVpSsIQesmqA8AdfsrWgQmRKdiXUYGFscPcgxywgbAHnn5wO12WbBnZhFIkQ8tE9ZBwizmQkRERN7ZtGkTLly4oFoKde/eXa91lJycbHtULYQ0tkDoiruNORYZzFI0+PgF5jF3GrTL2HYkRCZg8Hx/tprZjkPqM40xhIA0E2LrZ6LGl4n4Tp3QyVbCsUx6vZplxpuWd0K4wwqyvYttnOoz491tT9Q8MBDyK+tAzC8PyLGOqdNAMhbHI0vG73HZF957EYlJ2B/pIrzKOgjnNk9ecbtdGEyNqqwiEpEUBqTyQxQREVGtpJuYtAySMEi6j3nDCIRkUGrFRasgczFaCMkfmySUaRQ+dxlz7oLlPO8kui4DSTszjhGiD0wtg0pLNzT5/BSBxCXZiGzsQbKJSDMMC/cWoKCgAHsXAnNjlsEW2UgYNOmAbXlBwV5MXDvUt1Anbxlyxhvbr8bAuTEuAqQAofcckeIwfqu/6s14LKv6HCuAMBByw7krmNFVzF29NQyaDKzUB1huQNaBnVcCk+WFVo9ARXXnCkOUdfAgK1UnLYf0eW+52051JTN3n7OGZkFB1mvF5s1ERESeyS3nfQ2DRMjPNyM9PR2VVZX420svYe1f/oKP3n8fH65ciQ+WL8f777yDlSkpePfNN/GnN97A9u3bkRoTg09OjUe3bt30vTiTlr5Zbsbj8bTMxDyGkE/0VsYei3F8fd0r0iDzObo7X+d1TPtX+5NBpS3I0jcMjs9y83yc9+/N8ZzVdRlRy9J72ixM2bUWn6nAJg/LFq3AlNWZmNZbLdb0xrQUSY2S4fXQ/L2nYZrtLbcPQofpkwHHx5sh+VxvxmPV/1iBhYGQOyEDEJa6TvuRCulWBWtw4q4+YzHiB81zMZaP9qLQb/fuXzIej7zQZEyeuu0/d+lkF+es7XdeNFIjnZpr5y7FUo8hkbGdOaDSnnuIdoFsLZDsoZnF4vu4R0RERC2R3CVs+PDhPoVBomfPnujy8Ef4qtVUbMqfhM2FT2BL0ZP4V+kvsb1iCnZUPYPdluewNygGX7Weiq+vnY7sNi9gxIgRPh+LiChg5H2GtbumYLzz21jvRzBx2AHk1KmVz1Ec2TUQIbaAKYD4ejMkX+vNeKz6HyvAMBByJzgO29TdI6Q1i8R8eoDhpl5aCiE1UjUNa9wmYvLXId/Cldylo9T5haRFIcdVO2r5y12OdCezPxdp0DPexaoOZDvbtZGi4lFTiykJsRgEERER+eK+++5Tt56vC9l22rRpmDNnDhITEzFz5kzExcVhxowZql4eZV7qZbmsJ/WyHRFRU5G3bBFWDJuIR4zAZlgo+uiTjnbhyFF9UpueO9Q+RpC1TMIKfalZZvwkHFgYi0CMyn29GZKv9WY8Vv2PFWgYCHkiAYdq7uXUl91FfXDcNludUaxBiO+BTf24O5693nau2/Q7i7kiwZf5+VyxrpvjmK6NFFd5ExERETWezp07o0ePHrjjjjvQq1cvBAcHIzQ0FP3791ePMi/1slzWk/WJiAKfPdAZOncgVmdOg60Bz64jsOU+DoYh1JYU2ccgspfVmKIvtcrDsvBOWBS6F5n2/mdEzQYDISIiIiIiImpizIFOkr31juoatgLrnQcLUl3JfOn2JWFQDJBSwDCImi0GQkRERERNRGxsrD5FRESu9ca0WVOwYlK8aQDpTMQPnQv40u0rMxlzB84yDUwdmJy7JRndlvxVb8Zj1f9YgYaBEBEREVETkZycrE8REZFb4UkoWA1MMo0NhNW+tfTJyzkArJikb28tPt22vrH4ejMkX+vNeKz6HyvAMBAiIiIiasbyNs3BgbRJ2Pnm3dj3weM4d+6cvoSIqKkKR1KB+bbyLkgoZBofKMmhaZC77e31vadlOmwvJSC7jvl4MySf6814rPofK8AELVq0yBIdHa3PAslvrsD82XFY82EqHvjRGL224XXp1lcd86dP2M+FiIiIqLEUFhbqU3XTsWNHLHhlKWKnOg5J6o7xmash7Um9F/dE79bnrP6ZNABtRr6Le++9F61bt9ZriYg8vw++8cYb6nH69Onq0RVv3wfPnz+Prl276nPkrKqqSg3wL3duppajrKwM+fn5aN++vV7jO19+t7744gu2ECIiIiJqjuxhUKpDuT/+IIq3PoXNi0Pw2e/uRPqC27Fh8UBsSYnA2bNntXU8yUCM+sunUcKQlKsvqvMyf5D9Ox/P3bzzMquMGPN5uV7HfX1DkeO5u26elhEREdWOgRARERFRM2SxWICyZKC42KkswYOJOQifnYdHfn0CkfNPYlziAVw8uQerVq3CsWPH9D24MxJLcixq/zlLgISnk2DPIeq67CrLTcICycsCUhO9pkREFPACrsvYg4+xyxgRERE1rpuuC9wuYzt27EB5eTlGjx6t13hHxgwaPmkSUFmFrI9W67WOKisrVdcEo1i0/8Sgp7ehZ8+eatqRtEpZgP45WYhX4yKY5+u6TObrq7b9ezqXXCSFheDQfBn4wd06Bnf1DcWX59HY50bNEbuMBQZ2GWuZ2GWMiIiIiBxIGLRz505kZtpvoOyNmpoa1SJIwqCwGdkuy5iZh/HQrFyMm3sc45+LxqMvnUJBfgHWrFmj76WRZcQgKKyRW7lkLEbC4HSkROjzXpMAxtRlS523hEtBCDP6brl9PrKtc/cvdvkiIqLGxUCIiIiIKIBJy6AhQ4Zg3759PoVCKhAqKkLbtm21OcdxhFyV8mNyO+VUVFdX48SJE9p07XKTFiB1ZBQeddEipa7LbHKTEGYOXPQSY72fr59kICYyG0sSXaVB25EQ4nz8SHW17IwuW+mI3n4IOQhGfFY6Bics1vYs+wbSs+K1Wv+o9zUlIiIyYSBEREREFODCw8N9DoUk2EFZmRpfRtGmPZXS0lK1mgRJtm1csgclIQmDnQKPui7TRaTAYtQHxyNLOw85F3PxvSWPexkxkche8p6bLlb28XnsJR2OgxsYz0mSnxRYTy0CKeq2w+Y6V8yBk3PQZFbPa0pETZKM5+b4/sPS3Mvp06fV+3lj4hhCRERE1OIF8hhCBvmwuGLFCly4cAG/+MUv0L17d32JXWxsLJKTk9XjT3tuxJgxY5CVlYWwGTNkYAF9LdfOfPEFuj/6KP40bRq+aj0Vf/zjH/UlZtK1yd04NXVd5g/O+/c0r0+nRyFtAfCeLURxsc4V5+tuHekq9rTszLq+dBWLTEV0ursAy3n/3hxPr7LxtIyobjiGUGCQYP7999+v979L1LTI789TTz2FVq3q3m7H1zGEGAgRERFRi9cUAiFpGSQthKSlkLQYqo3cVv7BBx/EP/7xDzzw4otALd3Aju7YgT5RUXj7+efx9bXTr04gJEHKgv7IkZBGuoyFJGC7vsjgOmRx3r+neZm2tshx3JfzOq7O1906xsDUsj+pX4cJlglYpx5dtRJy3r83x9OrbDwtI6obBkJETRsHlSYiIiJqZnwNg4TqMqaRQamVoiKPxegyJi2RGrvJuks+dxlz7oJVS5es6LoMJO3MOEaIPjC1BEPSDS0REdp/iUuyEdnYg2QTERF5iS2EPNkYg84TrB8fhi3KwYYX9D+/uKzPxVsPhmDuF6oak9dZsORh63TjykBC+0is1OcchWFh9jaMyxiFew7Pw8XXTZ+C5Dl9MsFU5/h8MCIJezbH4egLQYharteZ2K6D6doIh+tGREQUoAK5hdDWrVvVXcZ8CYPE8ePHcXDV/aix1KC6qlp1QZCQyCjGvDwaRQKXT06Nx4gRIzBv3jx9T0TUUrCFEFHTxhZCfpOBhAlAWokFF0vSMWDWZLx11FN9DoJnS51WspNwcEIMNkn1VSHBj34utpKOyfrSXi/Mw+TlL+vnLXLx1iv7sTBBD4OOLsW49iH4xng+Ut4GNmwExr5u3p/9OPYwSNuP7dg5mPhxCMa9zr+LERER1ZXcJWz48OE+hUGiZ8+e6PLwR/iq1VRsyp+EzYVPYEvRk/hX6S+xvWIKdlQ9g92W57A3KEaNGSTdxLLbvKDCIF+PRURERE0PAyF3Nq7DymcmYKyaiUDsImBtRq77em16rNEiqE8oBuiTjWHTC6NM4Y43zOetOboeaxGFcX1kJhdvPRePAc4tnPrE4XmPLZ4kVErF5HXb8LzajwjG828nAbMW6+GYtDq6mkEZERFR03PfffepW8/XhWw7bdo0zJkzB4mJiZg5cybi4uIwY8YMVS+PMi/1slzWk3rZjoiIiJo3BkJuHDuyH8P6hehzQK/QQdh1OMdtvQOH0KgBSYuc9kFY/5g5hPGOtBIaoAc1xzLSMGB2HHrJAgmHvojGeF+7u7nbrs94TByxH7kqsArG85snYL12zp1fyFCLiYiIqGF17twZPXr0wB133IFevXohODgYoaGh6N+/v3qUeamX5bKerE9ERFePdN+tqqpiaWGlpKQEZWVl+qugcTAQ8qNjr49SAY3jWDwNQHXp0o9TUtexiiIw/plUrN+YgeRZgxyDnBED4GO+ZOV2uyx8Y2vBFIEl0p3ssXXqWiVs1KuJiIiIiIhIjel24403qoCepeWUDh06qJ99Y2Ig5Ee9XthmHTtHhR2+duPy3qYl8dgl4/cYY/7U0dgEGesoEgcXJTq2ZvriIOp06m63C0Nf56To4UQsHAGsvKpjLRERETUtsbGx+hQRETVX0kLommuu0e+SyNJSivzMGxsDITecu4IZXcXc1Tt4OAVpz5hbxfiXdWDnlcBzQejcvh6BiurOFYaJEaa7gKk6aTmkz3vL3XaqK9kgBNsCIRlHSM57MvC2PI+Uhu9aR0RE1EwkJyfrU0RERET1w0DInT4DMGz5Oj1skW5VsAYn7uo3ZpiCmQysX260ipHbwDdEayEZj0cCFRmTp277P/b6ZMwdMM9p/CFtv7OjsXKCU3euo0vxlseQyNjOHFBpz31wPGBrgSRhkBEE+T7uEREREfkub9McHEibhJ1v3o19HzyOc+fO6UuIiIioJWMg5E6fOGxYB0TJWD3tIwHj7llu649gsapzqm9wMiaPb8cyxjq65+Mo7HE11tHDKfqt843no5XngHG1jVUk29mujXEd9FvSKxJiMQgiIiJqLHtS70Xvsb/HwKjVGD71Swx58mMc/vMY7NixA9XV1fpaRERNTSbiO3VCJ1sJx7I8fZEhM960vBPCHVaQ7V1s41Cfh2Xh9u3jM9UKRM0KAyFPJOCQMYGcB252VS9BkV7nuL7vgU39uDuevd421tFm/c5irjg9nyvXdXMc07WRUrcBr4mIiKi+JAy6J3q3NpXqUO6PP4jirU9h8+IQfPa7O5G+4HZsWDwQW1IicPbsWW0dTzIQ4zDmQRiScvVFdV7mD7J/5+O5m3deZpURYz4v1+u4r28ocjx3162uy4iai2FYuLcABQUF2LsQmBuzDLZ8R8KgSQdsywsK9mLi2qFOoVBtjiJklr69doADk+IRsJlQRozt933UUtMvu7/qzXgsq/ocK4AwECIiIiJqhmRQUpQlA8XFTmUJHkzMQfjsPDzy6xOInH8S4xIP4OLJPVi1ahWOHTum78GdkViSY1H7z1kCJDydBPtH3rouu8pyk7BA8rKA1AyvN5Gf9Z42C1N2rcVnRsueRSswZXUmpvVWizW9MS1FUqNkH0KdcISH65O9QzBQnww8GYiJBNK133WLJR2D4ifDmkP4q96Mx6r/sQILAyEiIiKiACbdu7Zu3arPeU/duraoCLh0GVnLlzuWPw5WZctr/fD5omBsWNgTbdq0Qd/i13Bg1Q9x/PhxfS+eBcfPR/T2NHzq4gNvXZc1vlwkPZ2AwenpiNZrAlXzuN5EDSzvM6zdNQXjjTDH0PsRTBx2ADm+NBIyZK7Hiinj4bzLgJCxDqnRE2AdCCQCiUlA2nrtl91f9WY8Vv2PFWAYCBEREREFsPLycuzcuROZmb51VlCBUHExsj5ajbAZ2S7LmJmH8dCsXIybexzjn4vGoy+dQkF+AdasWaPvpZFJU/uwRm7JkrEYCYPTkWL9BO+DDMduWeq8c5EUFoQwo3+W2+cj2zp38WK3LqK6ylu2CCuGTcQjRougYaFwPWLHLhyx3YxnF+YOtY8RZC2TsEJfKvKWhVvr149HQVJAxkHIPbIfYQPsd70ODh2ErIM5fqs347Hqf6xAw0CIiIiIKICNHj0aQ4YMwb59+3wKhYwWQm3bttXmHMcRclXKj8mfzVPVYNMnTpzQpmuXm7QAqSOj8Khx/wiTui6zyU1CmDlw0UtMhr7cL6R5fzaWJLpKg7YjIcT5+JHqatkZ3bLSEb39EHIQjPisdAxOWKztWe86kBWv1fpHg15voibHHugMnTsQqzOnwdZDbNcRuL4J8zCE2pIi+xhE9rIaU/Slove0TGv9+PXacVwNQk3UdJVWVDMQIiIiIgp04eHhPodC6i5iZWWQMWQUbdpTKS0tVatJkGTbxiV7UBKSMNgp8KjrMl1ECixGfXA8stQ4DI7F95Y87mXERCJ7yXuIdxmU2MfgsRfnbmXGc5LkJ8XWTSAlHYh0qHPFHDg5B01mDXi9iZo0c6CTZO/OpbqGrcB657dK1ZVsIEJsqZEPwpOweoq5dRFR88BAiIiIiKgJGDt2LLp06aJCoTNnzui1jmJjY22PqoWQpqKiQj2q8YQ8FHMg5Jk5KHEOPOq67CrIScKC7CV4z3Ua5CXjOeWg/wJfu3yZr4en8YuayfUmajS9MW3WFKxwuCtYJuKHzgUWxno/DlBmpsP261eYWxcFDuduSUa3JX/Vm/FY9T9WoGEgRERERNQEbNq0CRcuXFAthbp3767XOkpOTrY9qhZCGlsgdMXdxhxLSUmJWq32QKgBmcfcadAuY9uREJmAwfP92WpmOw6p7wF6VzGLNBOK0eaIqNGFJ6FgNTDJNDYQVhcg037bsdr1ycEih+3Ndy0LICEDEJa6Tn+vycDieCBqvPbO5q96Mx6r/scKMEGLFi2yREfb/yaR/OYKzJ8dhzUfpuKBH43Raxtel2591TF/+kSg39+BiIiImqPCwkJ9qm46duyIBa8sRexU8wgU7hmfubwh3cSkZZCEQdJ9zBuZr/RW627YsAHj5s4FDhzQl7i2f/duDJo8GakxMdjfdoYtXHIkgx8vQP+cLBfdrOq6zEQCoQX9keNz9ybZv6duV0JazMjx9XWj02Fx6H9mPkd35+u8jumYan8hSAoLQVpUDrK0DXOTwhCSFuXi+Tjv35vj6VU2dV1G5J6n98E33nhDPU6fPl09uuLt++D58+fRtWtXfY6cVVVVoXPnzioE94q8d0Za342i001da/1Vb8ZjWdXnWG6UlZUhPz8f7du312t858vv1t+3bmMgRERERCQCNRCSW87LXcZ8CYOE3Dr+4Kr7UWOpQXVVtWr5I62GjGLMy6NRpHvRJ6fGY8SIEZg3b56+JyJqKRgIBQafAyFqFq5GIMQuY0REREQBTO4SNnz4cJ/CINGzZ090efgjfNVqKjblT8LmwiewpehJ/Kv0l9heMQU7qp7Bbstz2BsUg69aT8XX105HdpsXVBjk67GIiIio6WEgRERERBTA7rvvPnXr+bqQbadNm4Y5c+YgMTERM2fORFxcHGbMmKHq5VHmpV6Wy3pSL9sRERFR88ZAiIiIiKgZk24HPXr0wB133IFevXohODgYoaGh6N+/v3qUeamX5bKerE9ERETNHwMhIiIiIiIiIqIWhoEQERERURMRGxurTxERERHVDwMhT+SWcUFBqoxamqtXatzV63KXjkLQqKW4ckljkNuMWs/tyjIKcrrq/GIy9PV18pwc6nKxdJRpW/35ZMSY6kzFdh1M18ahnoiIiOrN9a3giYiouTl27Ji68yNLyymnT59W36EbE28775YEK+swwZKCCDX9MgbkbENcsLt6fTNVF4nUsCTkbIuDrbrRuDon4fwczOtI+DMZWKnP5y7FqJB4DEq3ICVCllvrlubEIc6Yd3UcCYMi9yPJYb8hSIvKwTbHkyEiIgo4gXrb+frK2zQHpRdzUXwhF2079kKP8BTcfPPN+lIiIjvedj4w1NTU4P3336/3v0vUtMjvz1NPPYVWrerebsfX284zEHJHwo11E2DRExFpVTMZK7EtdLHrej3wkPnFiML+NMlXGicQyogZhSOJRgjjTSDkdN4SAKk8SM7XGuIcnGcKg1xyFSq52E6FSwcxTwVoss5ihG6TaSIiosDSHAOhPan34p7o3fqc1T+TBqDNyHdx7733onXr1notEREDIaKmztdAiF3G3Mg9sh9hA0L0OSA4dBCyDua4rVdyl2LywXlIGW+dbXB696x1E5zDn9oFx83DoPjFkE5iuevTMGieHl7lrkdaVjQm+JrYuNsueDyiwvbjiOo5Foy4bROwTrqTOXdZIyIiIr+yh0GpDuX++IMo3voUNi8OwWe/uxPpC27HhsUDsSUlAmfPntXW8UT+IBSGJFuPcE/zzsusrN3PPa/jvj6QeHruwjzv+vkE5rWQ49m7/9vPT9R1GRERBSIGQn6Ti6WT0xCV2AhtX6TVjfxDKy2VLLW15HEnAhOiU7EuIwOL4wc5BjlhA2CPvHzgdrssGJmZHDdF+khOWKc+LDAXIiIiahjyGQFlyUBxsVNZggcTcxA+Ow+P/PoEIuefxLjEA7h4cg9WrVqlxq1oMLlJWCC5FAX4tRiJJTnWMS1ylgAJTydpn3QNdV1GRESBhoGQn+QunYy0qJU+t9Spi4zF8chCGJLqGT5FJCZhf2Qk9iclOnbhyjoIW37jC7fbhcHUqMoqIhFJYUBqZAyYCREREbm3Y8cObN26VZ/znoxBgaIi4NJlZC1f7lj+OFiVLa/1w+eLgrFhYU+0adMGfYtfw4FVP8Tx48f1vfhTLpKeTsDg9HQEyoiRV0/TuRbB8fMRvT0Nn7pIduq6jIiIAgMDITccuoJpjK5iruuPYHF8FrLiQ6xNZEPikZUVj5AGutNYRIr85WUlMFma49YjUFHducIQNd6UYqk6aTmkz3vL3XaqK9kghNoOIeMIyXnLoEXyPDieEBERkSfl5eXYuXMnMjMz9RrvqECouBhZH61G2Ixsl2XMzMN4aFYuxs09jvHPRePRl06hIL8Aa9as0ffiRxmLkTA4vQ4tm526IoUZrU7cdaUy6nORFBaEMGMF6Wpv29bEXX1D8uu18PJ5XnG93F0/IiJqKRgIuRMyAGGp67R/KoV0q4I1OHFZH2ftBmWUnCSEaf8QW+8yJv/YWm/37l8yHo8cT8bkqdv+pVVT/KB5Tq2atP3Oi0ZqpFN3LrnLmMeQyNjOHFBpzz1Eu0C2FkgSBhlBkO/jHhEREbVEo0ePxpAhQ7Bv3z6fQiGjhVDbtm21OcdxhFyV8mN56rG6uhonTpzQpv1J+0wQmY0lLls3b0dCiCnkUCVSnZWd0RUpHdHbD3nZkjkY8VnpGJwgYybK8YH0rHit1oNc7TOcw3lYi3+7uPv7WtThefogN2kBUkdG4VEXO6zrMiLyTL5TVlVVsbSwUlJSgrKyMv1V0DgYCLkTHIdt6UCk/g8x0vUAw139VSNj8vh2DnKHMfmAEZIWhRxXf5qKSFGh1v5I04eRycD42v6KJdvZro1xfSymW85LiMUgiIiIyFfh4eE+h0IS7GifLNUXC0U+ZHoopaWlajUJkmzb+ElGTCSyl7yHeJefAezjztiLc1cqIyiRzxbm1sWOAcqVwY32OUl9NnHezkQ+vxgBSnA8shzOw1rqNl6jaw1zLbx4nor5ejkHTWb29UISBjsFTHVdRkTekvfhG2+8EZ07d2ZpQaVDhw7WP+Y0IgZCnsgHBFcfBNzVGyQ0st1y3vfApn7cHc9eHxy3zXr+nm6LL89Bf46u13VzHNO1keLPD1BEREQt2dixY9GlSxcVCp05c0avdRQbG2t7ND5UVlRUqEc1npCHYg6E/ConCQuyl+A91wmIl4ygJAf9F5i7OZkClPRopC5o5K5fvmrQa+ENc+Dkafwi83rOAVNdlxGRt+R36JprroE1vGVpKUV+5o3pujatGQgRERERNQWbNm3ChQsXVEuh7t2767WOkpOTbY+qhZDGFghdcbcxxyJN1YV/A6HtSIhMwOD5/mwpsh2HvL77hd6FSjVhdjPuonnMnQbtMtaQ18KL50lEROSEgRARERFRgJNuYtIySMIg6T7mDSMQkkGpFRetgszFaCEkf5mWEMQ9e7cga7cj53kn0XUZPNmZcYwQp8GYTceWcXneM4ctMtiydM+SsQwjkLgkG5G1DR7tc5exQLgWdXieREREmqBFixZZoqPtDUaT31yB+bPjsObDVDzwozF6bcPr0q2vOuZPnwj0m28SERFRc1RYWKhP1U3Hjh2x4JWliJ06Ra/xzPjMVRu55bzcZcyXMEjIreMPrrofNZYaVFdVq5Y/EhIZxZiXR6NI+PHJqfEYMWIE5s2bp++JiFoKT++Db7zxhnqcPn26enTF2/fB8+fPo2vXrvpcXWQivtMkrNDngGFYuDcT03rrsyIzHp0mmdZYuBeZthVk+0UIdd7GTX3esnAMXTsRezOnwWH1BiIDDMuYMhIuU8shA0rn5+ejffv2eo3vfPnd+uKLL9hCiIiIiCiQyV3Chg8f7lMYJHr27IkuD3+Er1pNxab8Sdhc+AS2FD2Jf5X+EtsrpmBH1TPYbXkOe4Ni8FXrqfj62unIbvOCCoN8PRYRUeOTEKgABQUF2LsQmBuzDHKvREWFQQdsywsK9mLi2qEIX2ZbwweZSJ67S58OUNL1VbVMDMIo8+2n/VVvxmNZ1edYAYSBEBEREVEAu++++9St5+tCtp02bRrmzJmDxMREzJw5E3FxcZgxY4aql0eZl3pZLutJvWxHRNRU9J42C1N2rcVnKu/Jw7JFKzBltbmVT29MS5HUKBne3afRLm/ZImDhQgzT5wOPMYaYdHFNx6D4ybDmEP6qN+Ox6n+swMJAiIiIiKgZk24HPXr0wB133IFevXohODgYoaGh6N+/v3qUeamX5bKerE9E1GTlfYa1u6ZgvHNDx96PYOKwA8jxpZFQ3jLEHJmFpEf0+UCUsQ6p0RP0u/pFIDEJSFuf6796Mx6r/scKMAyEiIiIiIiIqMmSVjwrhk3EI0aLoGGh6KNPOtqFI0f1SW167tBO6NTJXMzjEuVhWcxaTIwN7C60uUf2I2xAiD4HBIcOQtbBHL/Vm/FY9T9WoAm4QCi/lIWFhYWFhYWlcUtTERsbq08REbV09kBn6NyBWG0e8HnXEdhyHwfDEGpLiuxjENnLahjDYecti8HaiSlOg04TNS9sIURERETURCQnJ+tTREQtnTnQSYKtHY/qGrYC650HC1JdyQYixKuAxzqQ9K65Q60th4bOxa5dczE0fJm+nKh5YCBERERE1IzlbZqDA2mTsPPNu7Hvg8dx7tw5fQkRUXPUG9NmTcGKSfGmAaQzET90LrAw1h4ceRSOJHPLob0LMWzYQnXb+UDj3C3J6Lbkr3ozHqv+xwo0DISIiIiImqk9qfei99jfY2DUagyf+iWGPPkxDv95DHbs2IHq6mp9LSKiZiY8CQWrgUmmsYGwugCZzbH/V8gAhKWuQ4aaycDieCBqfLD/6s14rPofK8AwECIiIiJqhiQMuid6tzaV6lDujz+I4q1PYfPiEHz2uzuRvuB2bFg8EFtSInD27FltHU8yEBMUhCBbCUOS7QYqdV3mD17sPyPGtDwIYQ4ryPauzsldvS8a+7o479Nc/LF/okAgLXjMt5V3QUIhUyufJIemQe62d1PfexoyzWMUBZLgOGxLByLV77jc83wb4iSD8Fe9GY9V/2MFGAZCRERERM2QxWIBypKB4mKnsgQPJuYgfHYeHvn1CUTOP4lxiQdw8eQerFq1CseOHdP34M5ILMmxqP3nLAESnk6CPWOo6zJ/8LB/CYMis23LLZYcRKWFOIVCDamxr4t9n/aSjmh9KRE1MxEptt/1FOs9z638VW/GY1nV51gBhIEQERERUQCT7l1bt27V57xXU1MDFBUBly4ja/lyx/LHwapsea0fPl8UjA0Le6JNmzboW/waDqz6IY4fP67vxbPg+PmI3p6GT10kGHVd5g+O+89F0oJURKdnId72l9pgxL8n6ctiWJv2N56reV2IiIjMGAh5sjEGndsHqTLuddO/zG7qj70+ylbfuX0MNun1jSsDCbZzcC6j8NZR/TxfcPr4I8/JoS4Xbz1o2vbBpZC/F256wVRnKrbrYLo2DvVERERUJ+Xl5di5cycyM51vmeOZCoSKi5H10WqEzch2WcbMPIyHZuVi3NzjGP9cNB596RQK8guwZs0afS+NTFryhPm55VDup0jbHo0Jzn+pDX4UUSOz8U29DpaLpLCYRgyVGvt4RETUnDEQcisDCROAtBILLpakY8CsySpMcV8PHD2chcnrpF5KCsZaq6+CMCzMNs7DKOmYrC/t9cI8TF7+su28Vfjzyn4sTNA/KR1dinHtQ/DNbNP2bwMbNgJjXzfvz36cDS8EW8OgCdp+bMfOwcSPQxgKERER1cPo0aMxZMgQ7Nu3z6dQyGgh1LZtW23OcRwhV6X8WJ56lMGmT5w4oU3XLjdpAVJHRuFRF2Mk1HWZTW4SwtQ4DI4lxos05Ir9j+wP1/d52Y5DthvCbEdCiPPxItXV8ad6XxciIiI/YSDkzsZ1WPnMBD3UiUDsImBtRq77eiUMffvok41o0wvWlj/eczrvo+uxFlEYp849F289F48B6yxY8rBaatUnDs+b568goVIqJq/bhudt1yAYz7+dBMxarLeWklZHV6vlFBERUdMVHh7ucyik7iJWVqbGMVC0aU+ltLRUrSZBkm0bl+zBSUjCYKRnxWv/4hvqukwnYy8Y9cHxyNLHYTAX92MyeNj/9kOw3wjYbCT625IiH8bdsYVVIUjYnqoPIOoprKrndfH5eERERLVjIOTGsSP7Mayf/W9JvUIHYdfhHLf1EnbkHszC3MGN2FVK7561/jFzCOMdaSU0QA9qjmWkYcDsOPSSBRIOfRGN8R7DHxfcbddnPCaO2I9cFVgF4/nNE7BeupM5d1kjIiIij8aOHYsuXbqoUOjMmTN6raPY2Fjbo2ohpKmoqFCPajwhD8UcCHlmDk5S4JjP1HWZP7jZv+oalop1zh89VFeyweh7RfriBVtYlYMlI6ORrqY9hVX1vC4+H4+IiKh2DIT8RsIOe3cqc1cyv1NduoLQ+ZMJ6ngOLXm8FoHxz6Ri/cYMJM8a5BjkjBiAOjV0crtdFr6xXYsILJFr9Ng6FWYlbNSriYiIyKNNmzbhwoULqqVQ9+7d9VpHycnJtkfVQkhjC4SuuNuYYykpKVGr1R4INSDzGEL16DLmKBjx86ORGmkeeycDMSEJwJJE1wEMEdFVJnd8tAbFLC2lnD59Wv0715iCFi1aZImOtjeGTX5zBebPjsOaD1PxwI/G6LUNr0u3vuqYDz4WGDfElIGXn8dK69g4QlrjfDIBe/q97LL+4uuOHydk8OXF/XLs6/mR7DtquYzf46plkAwq/TL6XrHMRb0ES4PjgUWm81R1B5FY6xhITvtzu510E5sMvO18PlIfgrlfRCPtqo63REREBNx0HVBYWKjP1U3Hjh2x4JWliJ06Ra/xzPjM5Q3pJiYtgyQMku5j3sh8pbdad8OGDRg3dy5w4IC+xLX9u3dj0OTJSI2Jwf62M2zhkqMMxAQtQP8c8x27DHVdZiKB0IL+yHHVbcojL/avbj1vHxEoOt3cwsbd9l6et0d+uC4+acjnQs2dp/fBN954Qz1Onz5dPbri7fvg+fPn0bVrV32OnEkw//7779f73yVqWuT356mnnkKrVnVvt+PL79YXX3zBQMgtp6DHFhCFLnZd7xT8SGiz/rG6tt7xhrtAxYdAyGVYY92vDCjt+dyd9+dmuyuCIuO83QVaREREjS+QAyG55bzcZcyXMEjIreMPrrofNZYaVFdVqy8Y0mrIKMa8PBpF/kL5yanxGDFiBObNm6fviYhaCgZCRE2br4EQu4y502cAhi1fpw+ALN2qgIkRwe7rzY4uxeLlxgDTEpz4OuizN4wuajImT932f+z1yZg7YJ5TKKPtd3Y0Vk5w6s6lPae3PHbvMrYzDxqtPXfVAinRFAZJACXnzTCIiIjIG3KXsOHDh/sUBomePXuiy8Mf4atWU7EpfxI2Fz6BLUVP4l+lv8T2iinYUfUMdluew96gGHzVeiq+vnY6stu8oMIgX49FRERETYv8EYiBkDt94rBhHRAlY/W0jwSMu2e5q1fBj3VA6c6D5S5djRV4yJg8vh1LWjXJed7zcRT2OHV1Ux5OwcXsJBycoD8fKc8B42pr7STb2a6NFLk++i3pFQmxGAQRERH54r777lO3nq8L2XbatGmYM2cOEhMTMXPmTMTFxWHGjBmqXh5lXupluawn9bIdERERNW8MhDyRgEMNEu3UDcplvT5Yssv6xgxB3B3PXt/rhW3W89ys31nMFQm+TM/nynXdHMd0baR47nZGREREDa1z587o0aMH7rjjDvTq1QvBwcEIDQ1F//791aPMS70sl/VkfSIiImr+GAgREREREREREbUwDISIiIiImojY2Fh9ioiImisZ26WqqoqlhZWSkhKUlZXpr4LGwbuMERERUYsX6LedJyJqDLzLWGCQO0B26NAB11xzjV5DLUFxcTEuX76M9u3b6zW+8+V3a/v27WwhRERERNSc5W2agwNpk7Dzzbux74PHce7cOX0JEREFImkhJGFQUFAQSwsqVyMAZCBERERE1EztSb0Xvcf+HgOjVmP41C8x5MmPcfjPY7Bjxw71F2giIiJquRgIERERETVDEgbdE71bm0p1KPfHH0Tx1qeweXEIPvvdnUhfcDs2LB6ILSkROHv2rLaOJxmIcfiLZhiScvVFHpf5gxf7z4gxLQ9CmMMKsr2rc3JX7wvnfXiad328jBjzc3J3Tu7qG5Ic035NHUtjnwsREfkTAyEiIiKiZki6HKAsWQYlcCpL8GBiDsJn5+GRX59A5PyTGJd4ABdP7sGqVatw7NgxfQ/ujMSSHIvaf84SIOHpJNgzAU/L/MHD/iUMisy2LbdYchCVFuIUCgWo3CQskLwuYNmvu72kgyN/0tWTifhOndDJVsKxLE9fZMiMNy3vhHCHFWR7F9s41ectCzftI15bStS8BFwgJIM6srCwsLCwsLA0Zglk0r1r69at+pz3ampqgKIi4NJlZC1f7lj+OFiVLa/1w+eLgrFhYU+0adMGfYtfw4FVP8Tx48f1vXgWHD8f0dvT8KmLzMXTMn9w3H8ukhakIjo9C/HBarEmGPHvSWq0GBl6TWDSzv3pBAxOZ8BC5JthWLi3AAUFBdi7EJgbswy2fEfCoEkHbMsLCvZi4tqhTqFQ7Y4e2YUpq419JCFcrw84ptaRo5aa3nT9VW/GY1nV51gBhC2EiIiIiAJYeXk5du7cicxM3/42rQKh4mJkfbQaYTOyXZYxMw/joVm5GDf3OMY/F41HXzqFgvwCrFmzRt9LA5APy2F+bjmU+ynStkdjQoQ+bwh+FFEjs/FNvQ6Wi6SwmIYLlTIWI2FwOlKcz71WTl251DWVczV1lav1WjfwcyNqJL2nzcKUXWvxmcp78rBs0QpMWZ2Jab3VYk1vTEuR1CjZx1Y+wxDaR58MWNp7QSSQrrfcGxQ/GdYcwl/1ZjxW/Y8VWBgIEREREQWw0aNHY8iQIdi3b59PoZDRQqht27banOM4Qq5K+TH5JpWqBps+ceKENl273KQFSB0ZhUdtrXLsPC2zyU1CmDnU0EuMFwnFFfsf2R8h+qSj7TiUo09q0wkhzseLVFfg6pAvD9lYkugqDfLmXI2uXOmI3n4IOdIqKisdg1WrKP2LSVa8VkvUguR9hrW7pmC8c3Oe3o9g4rADyPG6kVAecg7swtyhrrqcBZCMdUiNngDru0gEEpOAtPW5/qs347Hqf6wAw0CIiIiIKMCFh4f7HAqpu4iVlUHGe1G0aU+ltLRUrSZBkm0bl+xBRUjCYKfAwdMyXUQKLEZ9cDyy1F9SHYv71jIe9q8CEVdGor8tKfJhLBxbWBWChO2piFTT3oVV3sqIiUT2kvdM3dzMvDlX43pI8pNi+xKSkg7tfM11ThrhuRE1prxli7Bi2EQ8YrQIGhYK1w17duHIUX1SmzbCHnuZhBX6UtWqKNPoLrYaA+fGuBhz6OrLPbIfYQPscXhw6CBkHczxW70Zj1X/YwUaBkJERERETcDYsWPRpUsXFQqdOXNGr3UUGxtre1QthDQVFRXqUY0n5KGYAyHPzEGFc+DgaZk/uNm/6hqWinXOgYbqSjYYfV0GLrWwhVU5WDIyWu8C4Cms8lFOEhZkL8F7rtMgLxnXIwf9F/hwx6+Gfm5EjcIe6AydOxCrM6fB1kNs1xHYch8H5i5g9jGI7GU1puhLHYVj/JRdWGvtk0bUbDAQIiIiImoCNm3ahAsXLqiWQt27d9drHSUnJ9seVQshjS0QuuJuY46lpKRErVZ7IFRP5nFt6tFlzFEw4udHIzXSPB5OBmJCEoAliQ0QTNXXdiREJmDwfH925zK6xhljWEgzIY4PRM2ZOdAxDfisuoatwHrnxpSqK9lAhNhSI98NrM/GRAGIgRARERFRgJNuYtIySMIg6T7mDSMQkkGpFRetgszFaCEkLUUklGkUPncZ80C6oqmuUkawpFIRZNWrBY6QcXm8ae1k785mHevHed5JdF0GknZmHCNEH5haBomWbmgSgkUgcUk2Ij0OKu3tcyNqSnpj2qwpWDHJfJv4TMQPnQssjK3bncLylmHRisAcYNq5W5LRbclf9WY8Vv2PFWgYCHlSh1vJZcQY//CPukojimc43nHCoVjPKXfpKAQ5/+lNnpNDXS6WjjJtO2qp+jBhf36OxXYdTNfGoZ6IiIjqRG4572sYJEJ+vhnp6emorKrE3156CWv/8hd89P77+HDlSnywfDnef+cdrExJwbtvvok/vfEGtm/fjtSYGHxyajy6deum78VZBFIs5lu7m3laZmIeQ8gnXuxf9u02WHK3vZfn7ZHswzHUurIYx9DXvSINMp+HN+fqdEy1Pwl47CFYcHxWHa+1mTfnQhRgwpNQsBqYZBobCKsLkGm/7ZgXMhFvbD90LgY63LUsgIQMQFjqOr01YAYWxwNR47VfTH/Vm/FY9T9WgGEg5JbR3Fb+kfXuVnISlrw8IEf/h3kb4q7azz4MSR4GIQyOm4fo1JdNgVUulr68H0nGHS5yl2JUUAgOzjNtvxJYr72yI1LM+7MfZ5s8WQmDIrX92I6dg6i0EIZCRERE9SB3CRs+fLhPYZDo2bMnujz8Eb5qNRWb8idhc+ET2FL0JP5V+ktsr5iCHVXPYLflOewNisFXrafi62unI7vNCxgxYoTPxyIialzhSCqoJaCRUMg0PlCSw9uau+3N9TLtbvsAEhyHbbbWkfJFVf8e6q96Mx6r/scKMEGLFi2yREfb71eQ/OYKzJ8dhzUfpuKBH43Raxtel2591TF/+oTL+zw0Pgk31k2w/fVGWtVMxkpsC13suj4uBzGjjiBxW1w9/wrju4yYUTiSaLzYpIXQyxiQ4/zic6y3n7eawajJwEp17tIyyBoGXfGHKwfOx3Gznew75CDmqYEfZZ3FCN3GpslERBR4CgsL9am66dixIxa8shSxU10PSerM+MzV0C5evIiysjJUVVWpbmRSZJwgeWzdujVatWqlHqVcc801aNeuHTp37qxvTUQtiaf3wTfeeEM9Tp8+XT264u374Pnz59G1a1d9jpzJ+7W8D0uPC2o55N/q/Px8tG/fXq/xnS+/W9IymC2E3HDu72f0B3RXj4x1SB10EItVGqgVvYtVg9K7Z62b4HvyKK2EBsUvhjRny12fhkHz9CArdz3SsqIxwdfExt12weMRFbYfR9TFCEbctglYJ9eH9zUlIiJqFPKlokePHrjjjjvQq1cvBAcHIzQ0FP3791ePMi/1slzWYxhERETUMjAQ8qfU/Rigd5dKHxSPyQ3VVUp16QqytlTSjuW5JY87EZgQLbdnlb6NgxyDnLABqNPQV263y4J9bC29v/uEdSrMYi5ERERERERE1PgYCPlT9DxbS52ICdEOI4z7U8bieGTJ+D3GmD91FJGYhP2Rkdif5HQ71qyDqNOZu90uDFcMrh6RiKQwON0eloiIiDyJjY3Vp4iIiIjqh4GQG4F8KznrwM4rgcnSPa0egYrqzhXmOPK5qpOWQ/q8t9xtp7qSDUKo7RDG3ctk0CJ5HhxPiIiIyFvJycn6FBEREVH9MBByx9dbyUVMMN25S+7alYpo1Q9LBl9uiFvQy3g8EqjImDx123/u0smIH2Rv1WSl7XdeNFIjnbpz5S7FUo8hkbGdOaDSnnuIdoFsLZAkDDKCIN/HPSIiIiLf5W2agwNpk7Dzzbux74PHce7cOX0JERERtWQMhNzx+VZyEUjJiUJaiNSHIH5Qeh3H9vGVjMnjW7gidxiT8XtC0qKQ4+okI1JgyZHuZPJc9DIZGF/b85HtbNdGilwf/Zb0ioRYDIKIiIgay57Ue9F77O8xMGo1hk/9EkOe/BiH/zwGO3bsUHcZIyKiwHTs2DE1XixLyymnT59W36MbE287T0RERKRpbredlzDonujd2lSqtcImGpsXhzjcgr51uxvR7sY70H/iSnTr1k1fzxVp+Rxp2uNILMnJQrz6Y09dl/mDF/uXu7NGmtZYkoMs2wqy/QL0v+Kc3NX7wnkfnuZdHy8jJgiRqcZzcndO7uobkhzTfN3N/P0zpsbA284HBnlffv/99+v97xI1LfL789RTT6FVq7q32/H1tvMMhIiIiIg0zS0Q2p1yD+6dPBlw1RLo+gR9wm7tvG7Iu+n/4PHHH1e3oXfNMXTITQqztjjOikdwnZf5Qy37V2FQtimgyEVSWAjSooxQyHF7O3f1vnDeh6d5F8fLTUJYSAK22wIWd+fkrr4hBdK5kD8wECJq2nwNhNhljIiIiCiASfeurVu36nPek78wo6gIuHQZWcuXO5Y/DlZly2v98PmiYGxY2BNt2rRB3+LXcGDVD3H8+HF9L54Fx89H9PY0fOpiLMO6LvMHx/3nImlBKqLTzeFEMOLfWwIkLIbHIRKvOu3cn07A4PR08E+mRETkbwyEiIiIiAJYeXk5du7ciczMTL3GOyoQKi5G1kerETYj22UZM/MwHpqVi3Fzj2P8c9F49KVTKMgvwJo1a/S9NDJpyROWBL/mRLmfIm17NNS9PsyCH0XUyGx8U6+DSUujetzxtTYZi5EwuC7jUkoLHdNYkOqayrkGISxJf8K1XusGfm5ERHTVMRAiIiIiCmCjR4/GkCFDsG/fPp9CIaOFUNu2bbU5GeXFcyk/lqceZVyhEydOaNO1y01agNSRUXjURbegui6zka5S5lBDLw53QXXjiv2P7I8QfdLRdhzK0Se16QR1cxBzcTc+TmPIQIx0c0t0lQZ5c67SxUwGKk1H9PZDyJFWUVnpGKxaRcm+gXS/ddkjIqKmiIEQERERUYALDw/3ORRSdxErK1N3LlG0aU+ltLRUrSZBkm0bl+xhREjCYKdQoa7LdHLHUqM+OB5ZpruvGMV9axkP+1eBiCsj0d+WFBkBirm46aplC6tCkLA91XaHVW/CKm9lxEQie8l7bsbg8eZcjeshyU8KrJctAinqjrDmOieN8NyIiCgwMBAiIiIiagLGjh2LLl26qFDozJkzeq2j2NhY26NqIaSpqKhQj2o8IQ/FHAh5Zg4jnEOFui7zBzf7V13DUrHOOdBQXckGo6/LwKUWtrAqB0tGRiNdTXsKq3yUk4QF2UvwXr1GZDauRw76LwiD0VOsVg393IioVvI7V1VVxdLCSklJCcrkjzSNiIEQERERUROwadMmXLhwQbUU6t69u17rKDk52faoWghpbIFQcbHHIh9ERe2BUAMyj2tTjy5jjoIRPz8aqZHm8XAyEBOSACxJbIBgqr62IyEyAYPnu2hBVWdG1zi9q5hFmglxfCCiQCXvwzfeeCM6d+7M0oJKhw4dGv3f4IC77fyDj/EeCkRERNS4brousG87L93EpGWQhEHSfcwbma/0Vutu2LAB4+bOBQ4c0Je4tn/3bgyaPBmpMTHY33aGLVxyJIMVu7udeF2XmUggtKB/HW5H78X+1a3n7aPsRKebW724297L8/ZI9lHbWETSmkeOoa8bnQ6LQ5Mc83l4c65Ox1T7C3G41b5/bv3vzbnoVdQk8LbzgUFai0hAICE4tRzSOig/Px/t27fXa3zn623nGQgRERFRixfIgZDccl7uMuZLGCTk1vEHV92PGksNqquq1V8dpdWQUYx5eTSKdFP45NR4jBgxAvPmzdP3REQtBQOhwMBAqGW6GoEQu4wRERERBTC5S9jw4cN9CoNEz5490eXhj/BVq6nYlD8JmwufwJaiJ/Gv0l9ie8UU7Kh6Brstz2FvUAy+aj0VX187HdltXlBhkK/HIiIioqaHgRARERFRALvvvvvUrefrQradNm0a5syZg8TERMycORNxcXGYMWOGqpdHmZd6WS7rSb1sR0QUuDIR36kTOtlKOJbl6YsMmfGm5Z0Q7rCCbO9iGxf1mfEejkHUxDEQIiIiImrGpNtBjx49cMcdd6BXr14IDg5GaGgo+vfvrx5lXupluawn6xMRBb5hWLi3AAUFBdi7EJgbswy2vEbCoEkHbMsLCvZi4tqhTqFQ7SQMWhS6V99HJqb11hcEGhkjTR94f9RS0y0F/VVvxmNZ1edYAYSBEBERERERETVZvafNwpRda/GZynvysGzRCkxZbQ5wemNaiqRGycjUa2qXifUHFiIlYFMgQ4Z+90ALLJZ0DIqfDGsO4a96Mx6r/scKLAyEiIiIiJqI2NhYfYqIiFzK+wxrd03BeOeh0Ho/gonDDiDH20ZCmeuxYuARJBvdzsJNLZACScY6pEZPgPW+hBFITALS1uf6r96Mx6r/sQIMAyFPNsagc/sgVca9bvpBuqg/9vooW529xGCTWtqYMpBwxXkYZRTeOqqf6wsZ+vo6eU4Odbl460HTtg8uxTGtdtMLpjpTsV0f07VxqCciIqJ6c30reCKili1v2SKsGDYRjxiNeYaFoo8+6WgXjmjfh6x2Ye5QY3wgo0zCCn2psuIAQvVuZ6sHzkVMAA4ilHtkP8IGhOhzQHDoIGQdzPFbvRmPVf9jBRoGQm5lIGECkFZiwcWSdAyYNVmFKe7qe72wTZuXOmvZsygMwxYlYqzaV2MLw8Js+7lYSzom60t7vTAPk5e/rD8fkYu3XtmPhQnWLBNHl2Jc+xB8M9u0/dvAho3A2NfN+7MfZ8MLwdYwaIK2H9uxczDx4xCGQkRERFdR3qY5OJA2CTvfvBv7Pngc586d05cQETVl9kBn6NyBWJ05DbbOXbuOwPZVx8EwhNqSIvsYRPayGg43zJ8yy9btLHz8FG23rvdK1FQxEHJn4zqsfGaCHuhEIHYRsDYj1329gwwkzxqERAlJGsGmF6wtf7zndN5H12MtojBOvTnm4q3n4jFgnQVLHlZLrfrE4Xnz/BUkVErF5HXb8LztTTYYz7+dBMxarLeUklZHV6PVFBERUcu0J/Ve9B77ewyMWo3hU7/EkCc/xuE/j8GOHTtQXV2tr0VE1BSZA50k2HqIqa5hK7DeebAg1ZVsIEICfUggokbEQMiNY0f2Y1g/e3OvXqGDsOtwjtt6BxvX4WBjtA7Su2etf8wcwnhHWgkN0IOaYxlpGDA7Dr1kgYRDX0RjvMfwxwV32/UZj4kj9iNXBVbBeH7zBKyX7mTOXdaIiIjIryQMuid6tzaV6lDujz+I4q1PYfPiEHz2uzuRvuB2bFg8EFtSInD27FltHU8yEKPfPcVawpB0xd/F7HdYkRLmsIJs72Ibt/V1Fcjn6bwPT/Ouj5cRY35O7s7JXX1DkmPar6ljaexzoZarN6bNmoIVk+JNA0hnIn7oXGBhrD04qk34eExZsUi/1bw+UPUVAxNdfc7dkoxuS/6qN+Ox6n+sQMNAyO+s3a8mRjRg6yDVpSsInT+ZoLpmObTk8VoExj+TivUbra2ZHIKcEQPc9LmthdvtsvCNrQVTBJZId7LH1qkwK2GjXk1ERER+ZbFYgLJkoLjYqSzBg4k5CJ+dh//P3v+AR1XeeeP/O2pV+P26UGR91j67rYYJ1Bgur6WCEFptXQIk8dLEXqTbXq7h6rUkhMVk4n7DDyhU+8UFSvZpJllKSNzHDcqzfhsqiX6bjBDWta4kNSitC0QhQ9CrW33aIoan5Y8WnN/5nLnPzJkzc+ZfZiYzyfvldZtz7vP/kD8z77nv+yz/7nso2fwrLGs4gXO/ehPPPvsszpyRUQMjWYSmYXmCihfDTUD9Iy7t1Y8iIUvJMf9yr3cYFZ15lrAlXbLlPOPkcWGLZHsZK3DfA6UXVWopUVoUuTC6D1hhGhsI+0bRF9cTw4rgOlqOLr1b2jxsvGMfXJmXBwF5+Shs74bv43Y3Gp1ARan2XjRZ9WY81tiPlWEYCCWbtJTJ3xR3i514HGpy4oiM32OM+ZOgJfUuDJWVhLZm+vmQTZ/bKGy3K8Qc6/1Y2oCtC4E9ZexCRkREFIl073r11VfVXOw+/fRT4A9/AP7P79H/9NPB5Z/m6uVnP/wS/m2HAwe23orrr78ecy78ECee/QreffddtZfIHM7NqBroxE/1HMUD15Z2VPX2w+l//euA8xlJYxrVC+TxkS3nGZ127o/UY24vAxaa7IrgGjU/Vj4MCYVM4wMFhzl221vqc9egz9hHRqZBGkcdDvcCJXpLPHnm+WHUye+2ZNWb8VhjP1aGYSBkw9oVzOgqZldv0LtfPTC2oCYa38DOe4BV8iSvMQQqeneuwuDWTHqdtBxS87Gy207vSlYAhz8QknGE5LwrgafkOtrGaeBtIiKi7PDxxx9jcHAQfX3WATEi0wOhCxfQ/5N9KHz0WNhy72Pv4K/WebBs47soXVWF+7/3a4x+NIrnn39e7SUOnp+ic6AKZdaXQY77UbHoGE4m0vhGWvIUmlr2JEMqztPPA1dhdepCJXcj6uf2oi3ul5qWrlz6PZVzNXWVi3qvU3xtRJS44jZ/i7yg3w/JqjfjsXzGcqwMwkDIzqx8zH+6W4Ut0q0KvuDErl7nwYH9sLSGkcfAxzvocyxkPB4JVGRMnsT2f2ZnJTaGtGbS9ru+CnvKLN25Tjdjd8SQyNjOHFBp1z7XCfhbIEkYZARB8Y97RERENBndc889uPPOO/HWW2/FFQoZLYRuuOEGbS54HKFw5eMzMlBGuz7Y9HvvvadNR+dxbUH7ogrcb7wUWnQ7wo+WMIC3/Z+nDaA+zxRO6KVEP4uIPC4UBm3jK9UxJBRpPc+UcaNaurk1hHuHEcu5Gl25elE18DaGpVVUfy/m6q2iZN9Ab79TqyUiosmCgZCdWXU40A1UyFg9U7W/kMbTs+zqdcM4GdQaJh1kTJ74wpUzOxfr4/d8eX8F3twZ5kXF0jacOybdyeQaVVkFLIs2VpFs5783xv1Rj6TXSYjFIIiIiCheRUVFcYdC+lPELl/WP6XUadORyqVLl/TVJEjybxNWIHzIq58bHCLoQUM4i3C7P4GJY4wZ+aTV2L/Dif6gbXzF/hPYNJ6nP6zKQ/1Au+ouEFtYFSt3dQmONT1j6uZmFsu5GvdDkp827RWkKEab3r3BXGeRhmsjIqLxwUAoEgk4ZABk68DNdvV6OGPtAhV/YDM2dscL1N+29rDv/F9WTxYLR4IvdY3h17U5juneSElswGsiIiKyWrJkCW666SY9FPrggw9UbbDa2lr/V72FkOaTTz7Rv+rjCUUo5kAoMnP4YAoR9C5X7ei2BgV6F625mBM2yEilNJ6nP6waRtOiKvSqUCZp3QWGXdhyrAnPhE+DYmTcj2HcviWOJ36l+tooa8jvHylENHEwECIiIiLKAocOHcKHH36otxS65ZZbVG2wlpYW/1e9hZDGHwiFPG0suFy8eFFfLXogZMcB5+YqtJeYx5lxozqvHmhqCAQy8TCPazOGLmPBUnCeKTWA+pJ6zN2czO5cRtc41VXMK82EOD4QRfbXf/3XeiGiiYOBEBEREVGGk25i0jJIwiDpPhYLIxCSQal1YVoFmYvRQkhaf0jQkhDp4uV/wooUPW1A/5hatihxdxmLIGXnKePy2HS9CmIe80fG+rHOW1QlMpC0lXGMPDUwtQwSLd3QJAQrRkPTMZREHFQ61msjIqJskbNjxw5vVVWgh3FLawc2r6/D8z9ux9e+fq+qTb2bbp6jH/O+B/gQTSIiIkqvz00Bzp8/r+YSM23aNGzZ3ozampWqJjLjNVc08sh5ecpYPGGQkEfHDz37VXzq/RRXr1zVW/5ISGQUY16+GkUClhd/XYqFCxdi06ZNak9ENFmk6/fg2bNnMXPmTDVHVleuXNH/LW67zXaAD5qAzpw5g6lTp2LKFO1FSYLi+dkaGBhgIERERESUyYHQ66+/rrfykaeNxUu2ldZFv/nNb1RNdP/tv/03PXi6++67VQ0RTRYMhDKDBPR79+4d878HZRf5+Xn44YdxzTWJd+RiIEREREQUp0wOhMbq3LlzuHz5sv6Js7V10LXXXqu/8JSvUq677jrceOONmDFjhtqaiCYTBkJE2S3eQIhjCBERERFNYBLufP7zn8cXvvAFvfuBw+HA7Nmzcfvtt+tfZV7qZbmsxzCIiIhocmAgREREREREREQ0yWRcl7FvfJNdxoiIiCj9sqHLWG1trf/R8kREycYuY0TZjV3GiIiIiCYohkFERESULAyEiIiIiCawkUMbcKJzBQZb/xJv/etD+N3vfqeWEBFRJvJ6vfqDAFgmV7l48aL+EIh0YpcxIiIiIs1EfMrYm+134ctVb6g5n/9w5eP6Rf+Cu+66S3+yGBGRgV3GMoM8BfKzn/2s/uRHmjwuXLiA3//+95g6daqqiR+7jBERERGRKQxqDypfdQ7hwqsP4+XGPLz0D19E75a/wIHGO/CztmL89re/1daJxI3qnBzk+EshXB61KOKyZIhh/+5q0/IcFAatINuHOye7+ngkel9iuKa4WfdpLsnYPxGlmrQQkjAo/M8xy0Qt4xEAMhAiIiIimoDkDQUut8hHjpbShPsahlG0fgTLv/seSjb/CssaTuDcr97Es88+izNnzqg92FmEpmGvvv/hJqD+ERcCGUOkZckQYf8SBpUc8y/3eodR0ZlnCYVSKdH7kop7FthnoPSC7fCJiMiMgRARERFRBnv99dfx6quvqrnYffrpp8Af/gD8n9+j/+mng8s/zdXLz374JfzbDgcObL0V119/PeZc+CFOPPsVvPvuu2ovkTmcm1E10ImfhkkwIi1LhuD9e+Da0o6q3n44HfpijQPOZyRhaYRb1aRLovcl1feMiIjIjIFQJKZmx4ubTX+Z461Pq0jNhBdDTsvTvBg51ZaXRnLuQXUeNC82bbu4Wf+0yl1tqjMV//Wa7kFQPRERESXk448/xuDgIPr6+lRNbPRA6MIF9P9kHwofPRa23PvYO/irdR4s2/guSldV4f7v/RqjH43i+eefV3tJAXmtUJjklkOen6JzoAplxWre4LgfFYuO4eSYDuaBq7A67aFSeJl0LkTjqQ/O6dMx3V+KsGtELTL0OU3Lp6MoaAXZPsw2pvqRXUVB2/uKU61HNDEwELLlRnUJ0Kua2BY4K/UwJXL9cbj05rnm+vFQqM7DXALNhB11m1DV/qTp/DxoflI79wb1KsrTjMU5eRjaZNp+D9CjvfoobjPvL3Ccw3UO3ws8/z2Q4muqzVCIiIgocffccw/uvPNOvPXWW3GFQkYLoRtuuEGbCx5HKFz5+Iy8M2rXBzN97733tOnoPK4taF9Ugfv9rXICIi3z87hQaPogySjWz63CCdn/otuRpyaDDeDtYTWpTdfnWY9Xot+BZEr0vsR0z4hImY+tR0cxOjqKo1uBjdW74M93JAxaccK/fHT0KMq75llCochy1/SpbY1jzMf8rbVqaYaxa5iQrHozHstnLMfKIAyE7Li70V5VBl9EUowGF9DZo/2D2tV7TuF4YQVK9T/gxSir6seQ/8VHarmrfS1/Ymc6b+HpQSeMc/egudKJgl4v2syfsjnqUGf91C2IhErSVPswJBvycaBuj3Ygp9FUW1od8VMtIiKieBUVFcUdCkmwg8uX9Q9pdPIo2wjl0qVL+moSJPm3CSsQquTVz0Vvv1P7i2+ItEwpboPXqHc40a9/iBRcgl6DBImw/4G3Ef6l1yLc7k+K4hhbxx9W5aF+oB0l+nSksCrR+xLDPYv7XIgml9w167DySBde0vOeEeza0YGV+/qwJldfrMnFmjZJjVoQX1tLQx9aNt6BdYEdZpBEGjLEU2/GY439WJmFgZANz6njKMwPfM7kmF2A/qFh23o4SlGBTvgyFje628M0W042lT52l5lDmNhIK6ECFdR4ejpRsKnO9+JDwqH+BM7dbju5L4XHcUq/Lw7UHS5Dt7yI4SsYIiKiuCxZsgQ33XSTHgp98MEHqjZYba3v02v5qrcQ0nzyySf6V308oQjFHAhFZg5V2tSHZIZIy5LBZv9617B2dFtfXuhdyeZiTpyvk3T+sGoYTYuq1Av8SGFVovclhnsW97kQTWIjL6HryEqUFql5Q+5ylM8/geHYGwkF9PXgxNZaWHeZEeJtyBBvvRmPNfZjZZhr5I8JJYO0hqlAp/4Jj8SCqXgRpOhdurTjdJeN4cWAtGKSF05uNDoLgoOcwnybJtdR2G5nbi1VjDZ5EVPWrd0nfrJFREQUq0OHDuHDDz/UWwrdcsstqjZYS0uL/6veQkjjD4RCnjYWXC5evKivFj0QGiP5QMsYQ2gMXcaCOeDcXIX2EnNLZDeq8+qBpobUvSYjoowwsmsHOuaXY7nRgGf+bMxSk8GO4NRpNalNb5xnHSNoBTrU0gBpcXQC5f6dZ5Z4GzLE3fDBhMca+7EyDVsIJYuENJXAHvWJTVl36sIOd6MT/TJ+jzHmT4KKG1w4XlKC4y7LC6X+IZsm11HYblcI08+FT3EDXIWwvHAjIiKicKSbmLQMkjBIuo/FwgiEZFBqXZhWQeZitBCS1zESyqRF3F3GIpCuaL3wd6fyfUDnRX/gsWMJcsDZn8IP+uKSSedCNN4Cgc68jXdgX98a+CObI6fgz32CzMdsf1IUGIMoUPZhpVrqJy2O7lhn6n5GNHEwELJhTfOMtM+uXrpdoaJU+zPtU1xWhfaQdsvJ4RvYeQ9QKS92xhCo6N25CrXTNr1Q0uvCNLmOxm47vStZAWb7D2E8vUxPz7Tr4IsaIiKiSOSR8/GGQSLvr19Gb28v/njlj3jhe99D13PP4Sd79+LHe/bgX59+Gnv/+Z+xp60N/9Laiv/5ox9hYGAA7dXVePHXpbj55pvVXqykpa/50e5mkZaZmMcQiksM+5d92wZLdtvHeN4RJXpfknFsq1ReJ1EmMQc6rkB3Lr1rWAd6rIMF6V3J7kBenMHOyEtduCOk/xnRxMBAyE5ePgrbu1XYIt2qJO/R/oLa1OtBUWePr/mzLOluV83F3KhWj3tPLhmPR17syJg8ie3f01wJZ8Emy/hD2n43SZNrSwsnTzOaI4ZExnbWptraDfK3QJIwyAiC4h/3iIiIaDKSp4QtWLAgrjBI3Hrrrbhp6U/wy2tqcOijFXj5/Dfxsz98G69d+hsMfLISr1/5Dt7wrsLRnGr88toa/Odn/g7Hrl+LhQsXxn0sIqLMkYs161aiY4XTNIB0H5zzNgJxjwM0gpe6YGpVlHnibcgQb70ZjzX2Y2UaBkJ2HHU47G92LE2OVYBhV1/chuGKTuSpZsol6PU9ij3l5NOe+MIVT/Ni/RzzOiswHK5Ntny6NizdyXzXopdKoDRaUx6bptqB+yAhFoMgIiKieNx99936o+cTIduuWbMGGzZsQENDAx577DHU1dXh0Ucf1evlq8xLvSyX9aRetiMiylpFLozuA1aYxgbCvlH0xd3v6zROJdCqKK3ibMgQd70ZjzX2Y2WYnB/84Afe6upqNQu0tHZg8/o6PP/jdnzt6/eq2tS76eY5+jG/8c2wD/4kIiIiSqnz58+rqcRMmzYNW7Y3o7YmZASKsIzXXEREmSJdvwfPnj2LmTNnqjmyunLlCmbMmKF/yB4TGay/pF2frOo1dZdNVr0Zj+UzlmPZuHz5Mj766CNMnTpV1cQvnp8t6SrOQIiIiIhIw0CIiCY7BkKZIe5AiCaE8QiE2GWMiIiIKEvU1taqKSIiIqKxYSBERERElCVaWlrUFBEREdHYMBAiIiIimsBGDm3Aic4VGGz9S7z1rw/hd7/7nVpCREREkxkDISIiIqIJ6s32u5C7ZBvuqNiHBTW/wJ3f3o93/te9eP3113H16lW1FhEREU1GDISIiIiIJiAJg75c9YY2JU87CZSvOodw4dWH8XJjHl76hy+id8tf4EDjHfhZWzF++9vfautE4kZ1To4+0KmvFMLlUYsSXpYMMexfnvxiWqcwaAXZPtw52dXHI9H7EsM1xc26T3NJxv6JiCibMBAiIiIimoC8Xi9wuQW4cMFSmnBfwzCK1o9g+XffQ8nmX2FZwwmc+9WbePbZZ3HmzBm1BzuL0DTs1fc/3ATUP+JCIEdIdFkyRNi//hjgY/7lXu8wKjrzLKFQKmXSPQvsM1B6wef8EmUW+V0c/HPKMtHL+++/rwf06ZRxj52/7wH+OSIiIqL0+tyUzH3svHTv+vjjj3HPPfeomtjImEELVqwA/ngF/T/Zp2qD/fGPf9Qfb2wU7SWpXl/wyGHceuut+nQwaWGyBbcP98PpsM4nukzmxyrS/j1wFebh7c1etBXrK/t4XCjMexubvW0otj2fZJxnpHNLdJnMJ8JuH8nYN00EfOx8Zvj000+xd+/eMf97UHaRn5+HH34Y11yTeLudeB87z0CIiIiIJr1MDoReffVVDA4O4s4770RRUZGqje7nP7oTC++/H/0vvojCR4+p2gg++L+BW76HvfX/H/zmz/9v/P3f/71aYBYppEh0mcwr0pJny+0Y7ncivlwiwv5hDn7MJCh6BHgm3PkZ7OoNso9GzOm37tsswrklNRBK5FwM0fZNkwUDIaLsFm8gxC5jRERERBlMWgZJGPTWW2+hr69P1UYnnzDjD3/ADTfcoM0FjyMUrnx8ZkT/KoNNv/fee9p0dB7XFrQvqsD9YUKERJf5SQuekHFuclDtVssjCNn/otuRpyaDDeDtYTWpTdfnWY9Xot+dZErpPSMiIooDAyEiIiKiDCctg+INhfSniF2+rI9LoNOmI5VLly7pq0mQ5N8mrEBwklc/F71BrXkSXaYUt8Fr1Duc6DeNrWCUoG5fQSLsf+Bt+HOfIItwuz8pimNsHX9YlYf6gXaU6NORwqoU3rO4z4WIiMiHgRARERFRFliyZAluuukmPRT64IMPVG2w2tpa/1e9hZDmk08+0b9Ka6FIxRwIRWYOTqzdkxJdlgw2+3fcj4pF7ei2BiSen6JzYC7mhCQsMfCHVcNoWlSFXn06UliVwnsW97kQERH5Hj7BQIiIiIgoCxw6dAgffvih3lLolltuUbXBWlpa/F/1FkIafyAU8rSx4HLx4kV9teiBUArJGEKF6klaY+gyFswB5+YqtJdUI7CpG9V59UBTQwqCKSIiouzAQIiIiIgow0k3MWkZFM/A0kYgJE8o04VpFWQuRgsh+cRQgpdxF3eXsQikK1ov/N2pZGwg9HrRP+YRlB1wRhzEOZ0y6VyIiCgb8CljkRysxowy31CC83cM48Ba9aIh3vq0cqN+agn2qLlghdh67DCWuRfjy+9swrmdppcMcu4vlpnqPNh9Xx42/lzNLnThzZfrcHptDiqeVnUm/us13QMxfveBiIgodhPxKWPvvvsuhp79Kj71foqrV67qLX8kJDKKMS9fjSKBy4u/LsXChQuxadMmtScimiz4lDGi7BbPz1Z/fz9bCNlzo74M6LzoxbmLvchfV4ndpyPUn27GsrDrjwcJfuQ8zKUXlWrpbWs3ofLpJ03n58Hu7cextV6FQXItU/Nwcr1p+6eAAweBJTvN+wscJxAGafvxH3sY5fvzsGyn3vCbiIiIEiBPCVuwYEFcYZC49dZbcdPSn+CX19Tg0Ecr8PL5b+Jnf/g2Xrv0Nxj4ZCVev/IdvOFdhaM51fjltTX4z8/8HY5dv1YPg+I9FhEREWUfBkJ2DnZjz3fKsESfKUbtDqDL7bGtP+PuBHY0hK6fBofWLo4zfLKc3+kedKECy2bJjAe7VzmR3+1F01J9qc+sOqw2z4eQUKkdld2HsVrfj3Bg9VMuYF0jDunz0uqoWk0TERFRLO6++2790fOJkG3XrFmDDRs2oKGhAY899hjq6urw6KOP6vXyVealXpbLelIv2xEREdHExkDIxplTxzH/S/7nkOK22QU48s6wbf24kBY5U3PQ84A5hImNtBLKV0GNhFn56+twmyyQcOjnVSiNGP6EYbfdrFKULzwOjx5YObD65TL0aOc8Yy2fhUpERJQOM2bMwOc//3l84QtfwG233QaHw4HZs2fj9ttv17/KvNTLcllP1iciIqKJj4FQkujBkKklzIH9/fpUSuhdunJ8Y/5ctLTkiVkxSr/Tjp6DbrSsKwgOchbmI858ycd2u36c9LdgKkaTdCd7oFsPs+oPqmoiIiIiIiIiShsGQsmytA1v7jiOCglqplbiZH6hWpB8h5qcOCLj9xhj/iRoSb0LQ2UlGPJ3dVN+PoSEhj+y3a4Qc6xJ0dIGbF0I7CljFzIiIqJY1dbWqikiIiKisWEgZMPaFczoKmZXL25be1gNpnwYpehH/uzUPF3LN7DzHmCVhE9jCFT07lyFKC82nadeJy2H1Hys7LbTu5IVwOEPhGQcIV9ohqfkOtqCwygiIiKy1dLSoqaIiIiIxoaBkJ1Z+Zj/dLcKW6RbFXzBiV292cFqVAy5UKt3w5LHwMc76HMsZDweCVRkTJ7E9n9mZyU25m+yjD+k7Xd9FfaUWbpznW7G7oghkbGdOaDSrn2u0zTYtoRBRhAU/7hHREREFL+RQxtwonMFBlv/Em/960P43e9+p5YQERHRZMZAyM6sOhzohuoCVgIYT8+yq9eDH6nTijx+/mU1SHPKyZg88YUrZ3Yu1s/zy/sr8ObOMN3Olrbh3DHpTqauR8oqYFm0sYpkO/+9kSL3Rz2SXichFoMgIiKidHmz/S7kLtmGOyr2YUHNL3Dnt/fjnf91L15//XVcvXpVrUVERESTEQOhSCTg0LuAWQZuDluvBkvWi7kbVPyBzdjYHS9Q7+/aFim0kuDLfz3h1rU5juneSElswGsiIiIaKwmDvlz1hjbVHlS+6hzChVcfxsuNeXjpH76I3i1/gQONd+BnbcX47W9/q60TiRvVOTnI8ZdCuDxqkcFdbVqeg8KgFWT7MNvY1icq0nkmuixR1n2aSzKvmYiIKD4MhIiIiIgmIK/XC1xuAS5csJQm3NcwjKL1I1j+3fdQsvlXWNZwAud+9SaeffZZnDlzRu3BziI0DXv1/Q83AfWPuBDIU6qRU3LMv9zrHUZFZ54lFEqXCOeZ8LJEBfYZKL2oUkuJiIjGAwMhIiIiogwm3bteffVVNRe7Tz/9FPjDH4D/83v0P/10cPmnuXr52Q+/hH/b4cCBrbfi+uuvx5wLP8SJZ7+Cd999V+0lModzM6oGOvFTPTHxwLWlHVW9/XD6h1d0wPmMpCqNcKua8RB8nsESXUZElCoSGl+5coVlkpWLFy/i8uXL6rsgPRgIEREREWWwjz/+GIODg+jr61M1sdEDoQsX0P+TfSh89FjYcu9j7+Cv1nmwbOO7KF1Vhfu/92uMfjSK559/Xu0lDp6fonOgCmXW4Qkd96Ni0TGcTCRUkRZHhclooZMqHrgKq8c17CKiiUd+f//Jn/wJZsyYwTKJymc/+1nf3+40YiBERERElMHuuece3HnnnXjrrbfiCoWMFkI33HCDNhc8jlC48vGZEf2rDDb93nvvadPReVxb0L6oAvcbLYIW3Y48NRlsAG8Pq0ltuj7POpZOiX4WEXlcKAzaxleqY0hjQs7TJNFlRESpIi2ErrvuupDfdywTu8i/eboxECIiIiLKcEVFRXGHQvpTxC5f1t9Y6KQZeoRy6dIlfTUJkvzbhBUIdPLq56K33wl/XjLwNvy5T5BFuN2fFMUxnk5xG7zG/h1O9Adt4yttYR6Y6hPhPBNepvjDqTzUD7SjRJ+OLZwiIiLKFAyEiIiIiLLAkiVLcNNNN+mh0AcffKBqg9XW1vq/Gs3OP/nkE/2rPp5QhGIOhCIzBzpt8OcxetewdnRbQxG9K9lczAlJVVLN5jx1iS5T/OHUMJoWVaFXn44UThEREWUeBkJEREREWeDQoUP48MMP9ZZCt9xyi6oN1tLS4v+qtxDS+AOhkKeNBRcZzFIkPn6BA87NVWgvMY+p40Z1Xj3Q1BA+WInGPIbQGLqMEdFE0wfn9OmY7i9F2CW9XnWRlhGRWcYFQp+bwsLCwsLCwsKS3pLppJuYtAySMEi6j8XCCIRkUGpdmFZB5mK0EJKWLhK0JES6ePXC34VKxgZCrxf9gceOJS7uLmPp4ICz36YVERGl2HxsPTqK0dFRHN0KbKzehUDuE2nZBCThufq9u7jZNAx/surNeCyfsRwrg7CFEBEREVEGk0fOxxsGiby/fhm9vb3445U/4oXvfQ9dzz2Hn+zdix/v2YN/ffpp7P3nf8aetjb8S2sr/uePfoSBgQG0V1fjxV+X4uabb1Z7sSpGm9f8WPkwJBSyDWzstrepN48hFJdI55noskTFec1EFLfcNeuw8kgXXgqT+kRaNjG4Ua1n7/I7txcFzkr4cohk1ZvxWGM/VmZhIERERESUweQpYQsWLIgrDBK33norblr6E/zymhoc+mgFXj7/TfzsD9/Ga5f+BgOfrMTrV76DN7yrcDSnGr+8tgb/+Zm/w7Hr12LhwoVxH4uIiMaJuxvtVWXwZe/FaHABnT2e5NWb8VhjP1aGYSBERERElMHuvvtu/dHziZBt16xZgw0bNqChoQGPPfYY6urq8Oijj+r18lXmpV6Wy3pSL9sREWWLkV070DG/HMtzVYVJpGUTgefUcRTm+x/jCMfsAvQPDSet3ozHGvuxMg0DISIiIqIJbMaMGfj85z+PL3zhC7jtttvgcDgwe/Zs3H777fpXmZd6WS7ryfpERJnvCDbO8w0cPW/jHdjXtwaBzCfSMiIyMBAiIiIiIiKiLBMYOHp01IXgjq6RlhGRgYEQERERUZaora1VU0RERKHdkoxuS8mqN+Oxxn6sTMNAKJJIj4zTl1XDrWZ1GfGIOTeq1TmElsX6KOee5sXIqQ46c9+5B9V50LzYtO3iZq1GVjPVmYr/ek33IKieiIiIxqylpUVNERERafLyUdjerd6XutHoBCpKHcmrN+Oxxn6sDMNAyJbdI+NUUNINVOnrGTLpEXOFcA3LeZhLr/98HXWbUNX+pOn8tGt68jhcDb7x0OFpxuKcPAxtMm2/B+jRvrOL28z7CxzncJ32jS5hUIm2H/+xh1HRmcdQiIiIKEkSaSH0/e9/P6hs374du3btwt69e/Hiiy+qtYiIskkRXKN9WBN2YKBIyyYgRx0O9wIl+gfy8ob0MOStWdLqzXissR8rwzAQsmP7yDgH6g574W0r05f4jeMj5tzVvpY/sbOcn6cHnaiAL7z0oLnSiYJeL9pUPqTTvrnrzPMhJFRqR1XQN712r/ZoB3I2qpRUwjRLqyoiIiKKWaIthB5//HF/Wb9+vf4ksYcffhi/+MUv9JCIiIiyWHGb+kDe8h4uWfVmPJbPWI6VQRgI2bD297P2B7SKd/2kUN2zusviTx6llVCBCmo8PZ0o2FQHXx7Ug87+KpTF+81rt52jFBWFx3FKz54kTCtDtySm1i5rREREFFUqxhCSkCj2UMjaNb0QLv+HUokuS4Z0H1v2aT2G3bx1mY+vG37kdezrU0mOab5f5pLucyEiolRiIJSN9C5d2h/l7rIxJI/FKKtqR7db+jYWBAc5hflIaOgr2+36EcjGitEmiWlZt/7CgrkQERFR7MY6hlBOzvf9RTzxxBP632Pja2wWoUl1Dx9uAuofcSGQESS6LBnG89hx8riwpV1NZ6TA/QqUwPADREQ0MTAQykLuRif6ZfweY8yfBBU3uHC8pATHXQ2qq5vSP4SE2jbZbleIkMHVixvgKgTaS9iFjIiIKFZjbSHk9T7uL775wBt+0dvbq3+NlcO5GVUDnfhpmHQl0WXJMJ7Hjs4D1yP1mKvdawYsREQ0nhgI2Yj3kXHpfMScb2DnPUClNN0dQ6Cid+cqDB75XK+TlkNqPlZ22+ldyQow238INSh3TiWwR66jLTiMIiIiIlvJbCFkbilkuHDhgpoaJ9IdvnCcW+9IYFOYwg+s3I2on9ubQAtvS1cu/T7Jueag0OjHFfX+pfjaiIgoqzAQshPvI+Ns15c/3vEO+hwLNbi1V8bkSWz/nuZKOAs2WcYf0va7qQrtJZbuXJ5mNEd89WBsZ36RoV17nnYj/C2QJAwygqDMH3GdiIgo0ySzhZC5pZAh3kDI49qC9kUVuD/M3/REl/l5XCg0ByCqxNLdfMzHThnttVHJMTSFbeU9gPo86/WWILhnmdGVqxdVA29jWHv95ezvxdx6GRdS9g309ju1WiIiouiuMZoIk0W8j4wbt0fMyZg88R3L07xYf5GR11mB4XAfT8nI6MPSncz0gqQSKI32SZZs578Hxn1Qj6TXSYjFIIiIiChRibQQuu6669RU9BZCFy9eVFORBIKLvPq5lgAi0WWKvJYw6h1O9Ju6tBnFvmXNGI/tD6DyUD/Q7n89k8zxDt3VJTjW9AycIQcXsYzbY1yHvMYyWllrrwX111/mOos0XBsRJdeZM2csvw9YJnp5//339d/N6SLHzNm+fbt39erVqkp7odHagc3r6/D8j9vxta/fq2pT76ab5+jH/MY32ZuaiIiI0u/8+fNqKjHTpk3Dlu3NqK1ZqWoiM15zxUNaCEkoFOtX8T/+x//A3//93+vTkciL0B07dqChoUHVhCMtn7fg9uH+MKFGosuSIZnHlm5VjZjTH6lbu3WfkebVdG8FOrcAz/jDqDDrhJyj3Tpyjo/IznzrS1exknZU9UZ72Egi12awq6eJJF2/B8+ePYuZM2eqObL69NNPsXfv3jH/e1B2kZ+fhx9+GNdck3hHrnh+tg4fPsxAiIiIiEhkQyCUiF27dmHNmjX6tLVFkDC6jUkgJE8bk8fQ24sUCiS6zESCjS23Y1hCE2nVklePAbXIED70SMKx/VIRCPm6fgWfu3WdcOdot46cYx7e3iz7k/pulOnDCMjXSOfNQIgiYyBElN3iDYQ4hhARERFRlpCWP/G68cYb1VT0MYQyStxdxpJFxuWJFJgYAt3QfGP9WOctqhIZSNrKOEaeGphaAh7phibjNRajoekYSiIOKh3rtRER0WTAFkJEREREmonaQui5557Dt771LX167C2EiGgiYwshouzGFkJEREREE9SkaiFEREREKcVAiIiIiChLGANFx+OVV15R3ZgiFyIiIppcGAgRERERZYlEWgg1NzfrXcFiKURENP5kvLQrV66wTLJy8eJFXL58WX0XpAfHECIiIiLSTNQxhIiIYsUxhDLD1atX8dnPfhbXXXedqqHJ4MKFC/j973+PqVOnqpr4xTuGUMYFQvc9wECIiIiI0utzU7IjEJIWQol0GyMiigUDocwgrUVmzJjB7ryTjLQO+uijj9IaCLHLGBEREVGWYBhEREREycJAiIiIiChLJDKG0Pe///2gsn37duzatQt79+7Fiy++qNYiIiKiyYaBEBEREVGWSLSF0OOPP+4v69evx5o1a/Dwww/jF7/4hR4SERFllz44p0/HdH8pwq4RtSjhZUSTDwMhIiIioiyRSAuhaCQkij0UcqM6pxAuj5qNOG9d5uOulsfcR17Hvj6TyDmaH91vPt9IyxJlvSeR5q3LfDL33ssxzffLXNJ9LpQ95mPr0VGMjo7i6FZgY/UuBLKdRJdlKXe1/2dmcbPpByZZ9WY8ls9YjpVBGAgRERERZYmxjiGUk/N9fxHyqHl50Wp8TTmPC1va1fSEsAhNw179EdHDTUD9Iy4EXv5HWjYOMv7eB+5XoPSCj5uhWOSuWYeVR7rwUphkJ9Fl2cON6hKgV/3MFDgr4cshklVvxmON/ViZhYEQERERUZYYawshr/dxf/HNy4tWXxG9vb3619TwwPVIPeZqx5iIb/Idzs2oGujET8O8+I+0LD0m9r0nmtTc3WivKkOxPlOMBhfQ2aP9sklWvRmPNfZjZRgGQpEcrMaMqTl6WbbT8g+pL6vGITXrZ1efNm7Uq3MOLYux+zRwZudizFjrVusrct5BdR7svs+07X3NOKPVHlprqjMV//0x3bOgeiIiIhqzZLYQMrcUMly4cEFNpYC7EfVze9Hme6UcB3dwd6JCo6WN1Efq8uSBqzAHhcYK0ozfv62JXX1ayblWa2eeIkm99zHeV78UXxuRZmTXDnTML8fyXFVhkuiybOE5dRyF+XlqDnDMLkD/0HDS6s14rLEfK9MwELLlRn0Z0HnRi3MXe5G/rlIPU+SPmh6UvAhU6usZ7OrHQyG2HpPzNpde/3ndtnYTKp9+Ul2P0M59+3FsrVevEk43Y9nUPJxcb9r+KeDAQWDJTvP+Asc5sNbhC4PKtP34jz2M8v15DIWIiIiSJJkthMwthQypC4SkGf0xNDWESyQGUJ9nCh30UoLg3k1Gd6JeVA28jdheXjvg7O/F3PpG7ehyfKC336nVRuBxoTDoPHylOoY0w+PagvZFFbg/zAEiLUu9ZN/7BO4rUUocwcZ5vsGh5228A/v61iCQ6yS6jGhyYSBk52A39nynDEv0mWLU7gC63BJsOLD6ZS/O7SzTlwTY1afeobW+lj+xM1+P5nQPulCBZbNkxoPdq5zI7/aiaam+1GdWHVab50NIqNSOyu7DWK3vR2j35CkXsK5RtZiS0Gw8W08RERFlt0RaCF133XVqKnoLoYsXL6qp5HJXl+BY0zNwhk0NYhk7xgguJH1oU83xRXCgERrcFKOtFygJ2c6kuA1eI9BwONEfdB6+Yt+yJnD8vPq5lmAk0jLFH0DloX6gXTtPu+tIXGrufQz3NQ3XRpNdYHDo0VEXilStT6LLiCYXBkI2zpw6jvlfCjT3um12AY68k2HNvVT3rJ4HzCFMbKSVUL4Kas64O5G/vg63yQIJh35ehdKI4U8YdtvNKkX5wuPw6IGVhGZl6JHuZNYua0RERBSV0UIo1q/ixhtvVFPj1EJo2IUtx5rwTPhEIkZGcDGM27eYu4mZAo3eKrRvSXfXL3OgYg1GIi1T/AHUMJoWVamBSCMFUHFK6b2PItXXRkQ6a7cko9tSsurNeKyxHyvTMBDKRnqXLumeVqZ3zQpqyROzYpR+px09B91oWVcQHOQszEec+ZKP7Xb9OOlvwVSMJulO9kC3HmbVH1TVREREFJXRQijWr2LKlClqajxaCA2gvqQeczcns0vRAN4OvN6OQnVp8kpzFptxbMxj4Iyhy1jmSeW9j+G+ElF65OWjsL1b/Ry60egEKkq1n/pk1ZvxWGM/VoZhIJSFDjU5cUTG7zHG/EnQknoXhspKMLSjQXWNU34+hLh6oBlstyvEHGtStLQBWxcCe8rYhYyIiChW5pY/sYqnhVBsAl2hfOPNWOctqhIZzNjKOEaeZXBk07FlnJxnzOGHDGYs3aUaUKz919B0DCXRBo+Ou8tYssi4PDatiIJkwr2P977Gem1E8SiCa7QPa8IO/pPosizlqMNhvQun7/cAeg+jTn4RJqvejMca+7EyTM727du9q1evVrNAS2sHNq+vw/M/bsfXvn6vqk29m26eox/zvgcy5GGY0h1LWuDs9P35kidzrcYe3+DJOnmaVzdKL7YFhym29ckm4/HkYePPq9AZdCw5/pOYc8zajSxcveyjEnjKWucbUDpyyyPr/my2k9ZMc4fQ4D9H47xlQOr4u7oRERGlwuemAOfPn1dziZk2bRq2bG9Gbc1KVROZ8Zor1Z577jl861vf0qetLYKEEQpJqPDEE0/g8ccTCYmIaCJI1+/Bs2fPYubMmWqOrK5cuYIZM2bov5dp8rh8+TI++ugjTJ06VdXEL56frZf+7RW2ELI1Kx/zn+5WrVekWxVQXpxIvCfBSbyDPsdCDWJ9UcbkSWz/Z3ZWYmP+Jksoo+13fRX2lFm6c51uxu6I3buM7cwtfrRrn+sE/C2QjABKzpthEBERUbwyo4UQERERTQQMhOzMqsOBbqBCxuqZWgIEPT0rk8iYPPGdm7R2kvF7vry/Am+qFlBBlrbh3DHpTibXrsoqYFm0sYpkO/89M+6beiS9TkIsBkFERESJMo8NFKtXXnlF/5Q5WiEiIqLJhV3GiIiIaNLLli5j0kIokVDo+98P7Spmh13GiCYvdhnLDOwyNjmxyxgRERER2UokDBIS8sRaiIiIaHJgIERERESUJRIZQ4iIiIgoHAZCRERERFki0RZCRESUXc6cOQOv18syicr777+f9m6CHEOIiIiIJr2JPIaQdfygG264AX/yJ3/iLw888IBaQkSTHccQygyffvop9u7dO+Z/D8ou8vPz8MMP45prEm+3E+8YQgyEiIiIaNLLlkAoERII2Y0NZIRFHDuIiAQDIaLsFlcgtG8bu4wRERERZYtUjCEkYVDsTyFzo9r0qPqcnEK4PGpRxGXJkOixU3Fesk/rMezmrct83NXmcwm/jn19KskxzffLXNJ9LkRElCqDXS8xECIiIiLKFmMdQygn5/v+Ip544gn9jb7xNTaL0DTsG+9guAmof8SFQEYQaVkyJHrsVJ9XnDwubGlX0xkpcL8CpRdsx09ENHG88+svZ16XsW98k39qiIiIKP0m8hhCsXQJk0Cop6cHJSUlqiYcaT2yBbcP98PpsM5HWibzY5XosSMtk/lERNtnpON74CrMw9ube4ESu3UMdvWplEnnQunGLmNE2S2en61vf5tdxoiIiIiyRjJbCJlbChkuXLigplLIXY2cwnFuoRORBDbVcKu5pHM3on5uL9qK1XzMJJAxdd/S76Gcaw4KjX5cUe9tiq+NiIiyx69/x0CIiIiIKFuMdQwhr/fxkGIWbyDkcW1B+6IK3B+mxUikZX4eFwrNIYcq1TEkFokeO6bzShk3qkuOoakhXBo0gPo8670oQXDPMqMrVy+qBt7GMBxw9vdibn2jtmfZN9Db79RqiYiIIvvSf3+TgRARERFRtkikhdB1112npqK3ELp48aKaiiQQXOTVz7UEEJGWKcVt8Br1Dif6g8ap8RX71jOJHjuG8/KHU3moH2hHiT4dWzgVK3d1CY41PWPT5SqWcXuM65Dkpw2+21SMNul9FlRnkYZrIyKi7LLgni8zECIiIiLKFkYLoVi/ihtvvFFNJauFkDm4sAYQkZYlQ6LHjuG8/OHUMJoWVaFXn44UTsVp2IUtx5rwzJgG4DGuYxi3b4njiV+pvjYiIso+eQ8wECIiIiLKFkYLoVi/iilTpqipZLUQGiPzODdj6DKWXQZQX1KPuZvDtExK2ADeHpavqquYV5oJcXwgIiKKHQMhIiIioixhbvkTq3haCKVd3F3G0kHG5YmldVOgG5pvrB/rvEVVIgNJWxnHyFMDU8sg0dINrUE732I0NB1DScRBpWO9NiIimgwYCEUin2CpT6oWN1v+tOrLgj+FcVcbLwLCrJ82lidQBJXFkNPyNC9GjvWjN7meoDoPmhebtl3crL+4MF+jufiv13TPguqJiIhozMwtf2IVTwuh6IrR5rV77HikZSbmMYTikuixYzyvuMg+Q4Os4GIcU60bkgaZz8vuHK3rmPav708CHi/61YYOZ3+C99YslnMhIqKJgIGQLaP5rfzR7UWBs1IPU/xBSTeCB/nzNONUmfFH2rz+eCiEy99PPnBOxvk66jahqv1J0/lp1/TkcbiMJ15o17I4Jw9Dm0zb7wF63NpLgTbz/gLHOVynvTqQMKhE24//2MOo6MxjKERERJQkE66FEBEREY0bBkJ23N1oryqDLyIpRoML6OyRYMOBusNeeNvK9CV+jjrU+T/4yUN+oZpMA3e1r+VP7MzXo/H0oBMVKNU/8fGgudKJgl5Lc+2g6wtHQqV2VPUehmRDPtq92qMdyCmPQhUSprFvOxERUaISaSH0yiuvwNx6164QERHR5JKzfft27+rVq9Ws9kKjtQOb19fh+R+342tfv1fVpt5NN8/Rj/mNbwY/XHO8SLeqSuzxtXwR0vqlu8zU3Fe6ZnWjLOyTKiItSyK9RY6EMObwRo79JPKHzcGMsNYHzjFPu9bG2Yd9+5DWQXlD2BT13C37s91OQqBKYI/5uCVor+oN03SaiIho/Jw/f15NJWbatGnYsr0ZtTUrVU1kxmuueEgLoURCoe9/P/auYY8/zlZDRJNVun4Pnj17Vk0RUbLNnDlTTUX20r+9wkDIzlgCIRln58n84cC2yaaHL070hw1VrMGPIbRezrO7TJ5IYboO2bee39RF6X8eJhAKu50EQr7uZ0GnGjbMIiIiGj/ZEAgREaVSun8PEtH4kUCIXcaSSsKPFIdBGnejE/0yfo8x5k+CihtcOF5SguMueTKFSf8Q9KeYxst2u0Lk56lJQ3EDXIVAOx+PSkREFLNExhAiIiIiCoeBkA3H7AL0DwXiDc+p4ygMSTXMjK5RaoDlFPIN7LwHqJQ+/2MIVBylqCgsRIVv8CAfva4d3fHu1G47GZ+ovwCz/YfwhWY5Ob575Y3aNY2IiIgMiXQXIyIiIgqHgZCdvHwUtnersMWNRieCgxMrdyOcBZss3bSEdK2Kd9DnWKjBrb1l6E5w/57myjDnrO13UxXaS3IQ/BT6ZjRHDImM7cwBlXbtedqN87dACoRmXq+1SxsRERFFk0gLIRk/yFy2b9+OXbt2Ye/evXjxxRfVWkRERDTZMBCy46jDYRleR3/yhjx/PnKAIS2I0F7if1KHlPQ8br0YbXGGKzI+kpxfXmcFhsMN4FPcBu+wdCcLXIs06CmN1pRHtvPfMyn6c/tNLaYkxGIQRERElKhEWwjJQNFGWb9+PdasWYOHH34Yv/jFL+IacJqIiIgmDgZCkUjA4ZXWLOEGPpYgJtDdyVF32L+uUXxBSPyBzdjYHS9Q7z/XSANHSyBmvp6QdW2OY7pnUjhgNBERUfKkYgwhCYliD4Wk5bPpA6OcQrj8n38luiwZMum8ZJ/WY9jNW5f5yIM/AucSfh37+lSSY5rvl7mk+1yIiGisGAgRERERZYmxjiGUk/N9fxFPPPGE/mbe+BqbRWga9n3wM9wE1D/iQiAHSHRZMmTqecXJ48KWdjWdkQL3K1B6kRnPCSYiongwECIiIiLKEmNtIeT1Pu4vvvnAm3rR29urf42Vw7kZVQOd+GmYBCXRZcmQqecVnQeuR+oxV/t3YMBCRESpxkCIiIiIKEsks4WQuaWQ4cKFC2pqnLirkVM4zi10IvLAVTiGJ7xG425E/dzeBLrcW7py6fdQzjUHhUY/rqj3NsXXRkREGYeBEBEREVGWSGYLIXNLIUO8gZDHtQXtiypwf5hBCRNd5udxodAccqgS9BRUGyk9r5Rxo7rkGJoawqVBA6jPs96LEgT3LDO6cvWiauBtDMMBZ38v5tY3anuWfQO9/U778SOJiGjSYSBERERElCUSaSF03XXXqanoLYQuXryopiIJhBN59XMtIUOiyxR5OIVR73Ci39SlzSj2rWdSeF7+cCoP9QPt/ieqxhJOxcpdXYJjTc/AGXJwEcu4PcZ1SPJjPPikGG36E2DNdRZpuDai+PXBOb0Iu0bUbNR5IkoEAyEiIiKiLGG0EIr1q7jxxhvVVLJaCJnDCWvIkOiyZEjhefnDqWE0LapCrz6dxKepDruw5VgTngmfBsXIuI5h3L4ljid+pfraiIgoYzEQIiIiIsoSRguhWL+KKVOmqKlktRBKIfM4N2PoMpZdBlBfUo+5m8O0TErYAN4elq+qq5hXmglxfCAiIjL7MPMCoY8usbCwsLCwsLCkt2QLc8ufWMXTQiijxN1lLB1kXJ5YWjcFuqH5xvqxzltUJTKQtJVxjDw1MLUMEi3d0Bq08y1GQ9MxlEQcVDrWayPKNMHdx0Z2FWG6fz5SVzO7bmfsjkaTxLlh5Gzfvt27evVqVQO0tHZg8/o6PP/jdnzt6/eq2tS76eY5+jHve4AP2SQiIqL0+twU4Pz582ouMdOmTcOW7c2orVmpaiIzXnOl2nPPPYdvfetb+rS1RZAwQiEJK5544gk8/ngGh0RElFLp+j149uxZNRXezJm/gHP6Dsw+2oc1uVIjIY3dvGW6aAdOHAHKQ5ZF2k6WGQL1FX8S+TyJMtHMmTPVVGQv7dvOQIiIiIgoWwIhaSFk7g4Wi66uLpSXl6s5ewyEiCidgVDkN62RghzrfGA6r2U6ekr3ASvMy1agQzbxm4+tNstW7huFq8h6LKLsEf1nK0ACIY4hRERERJQl4g2DxCuvvKKHPdEKEVFWO70LO7APriI17ycB0ChGR6XsQ3BUZVq2byU6duwCe4rRpDEjj4EQERERUbZIZAyh5uZmveVPLIWIKDsdwcYVXSivDUmDiMjWTQyEiIiIiLJFIi2EhHQDi7UQEWWGI9g4bzqmT5ciXbus88Hmb21LoIuXaZ8rTmBr2xqwlxhNJgyEiIiIiLJEIi2EiIiyTxFcehevSMUY48e3bp8/DZJ58zLzWEDWZXb7M29DNHExEIrkYDVmTM3Ry7Kdlod06suqcUjNAh7svs+3rpT6g6o67dyoV+cQWhZj92ngzM7FmLHWrdZX5HqC6oKvZ8Z9zTij1R5aa6ozFf/9Md2zoHoiIiIas0RbCBERERFZMRCy5UZ9GdB50YtzF3uRv65SD1P8QcmLQKW+nmEYjvWyrlaOuTBUZg6L0q0QW4+pc/GXXv/53rZ2EyqfflJdj9CuaftxbK0v9s2ebsayqXk4aVyPlKeAAweBJTvN+wsc58Bahy8MKtP24z/2MMr35zEUIiIiSpJEWgh9//vfDyrbt2/Hrl27sHfvXrz4ovaChoiIiCYlBkJ2DnZjz3fKsESfKUbtDqDLLcGGA6tf9uLczjJ9SUAxlixVk7NmI19NpsOhtb6WP7EzX4/mdA+6UIFls2TGg92rnMjv9qLJuB4xqw6rzfMhJFRqR2X3YazW9yO0e/WUC1jXqMIxCdPGMygjIiLKbskYQ2j9+vVYs2YNHn74YfziF7/QQyIiIiKafBgI2Thz6jjmfylPzQG3zS7AkXeG1VwUQWFSCqnuWT0PmEOY2EgroXwV1JxxdyJ/fR1ukwUSDv28CqURw58w7LabVYryhcfh0QMrCdPK0CPdyaxd1oiIiCiqVIwhJCFR7KGQG9U5hXD5G/9Gmrcu83FXy2PuI69jX59J5BzNj+43n2+iyxJl3ae5ZPp9JCKi8cJAKIn0sXkk7HixDOd2qu5XqaB36VLHuWhpyROzYpR+px09B91oWVcQHOQszEec+ZKP7Xb9OOlvwVSMJulO9kC3fq/Gb6wlIiKi7DPWMYRycr7vL0IeNS+hgfE15TwubGlX0xPCIjQNe+H1ejHcBNQ/4kIge0l0WaIC+wyUXlSppURERFYMhJLotrWHfWPn6GFHvN24YneoyYkjMn6PMeZPgpbUy1hHJRja0RDcmunnQ0jo1G23K8Qca1K0tAFbFwJ7xnWsJSIiouwy1hZCXu/j/uKbD4QHore3V/+aGh64HqnHXO0YEzGkcDg3o2qgEz8Nk+wkuoyIiChV5G8/AyEb1i5i1i5kES1tQ+d3zK1ikss3sPMeYJU8yWsMgYrenasQ5cUOVaHR66TlkJqPld12eleyAjj8gZAalHtqJfCUXEdb6rvWERERTRDJbCFkbilkuHDhgppKAXcj6uf2oi3uz7Ms3aEKjdY0Uh+uO5RR74GrMAeFxgruatO2Jnb1GUOuo1q7KiIiouT57I2fYSBka1Y+5j/drcIW6VaF4ODE6qDbFMy40fO00SpGHgOfitZCanDrizImT2L7P7OzEhvzN1nGH9L2u74Ke8os3blON2N3xJDI2M4cUGnXPtcJ+FsgSRhkBEHxj3tEREQ02SWzhZC5pZAhdYGQG9Ulx9DUEC4NGkB9ninw0UsJgnuWGd2helE18DZiG9XRAWd/L+bWN2pHl+MDvf1OrTYCjwuFQefhK9UxpDEe1xa0L6rA/WEOkOgyIiKiVGIgZGdWHQ50AxUyVs9U7RVE0NOzwph1Co36ujGunzQyJk98xzLGOvry/gq8GW6so6Vt6tH5xvVoZRWwLNpYRbKd/54Z90E9kl4nIRaDICIiokQl0kLouuuuU1PRWwhdvHhRTSWXu7oEx5qegTNs6BHL2DdGaCSpTpv26scQHCaFBjfFaOsFSkK2Mylug9cIihxO9Aedh6/Yt2oKHD+vfq4lcEp0meIPp/JQP9CuXYPdNRIRESWGgVAkEnDImEBhB26WIMbU3UkCJLVu8PrxBzZjY3e8QL1/rKOX1ZPFwrFcT+i6Nscx3TMpiQ14TUREROEYLYRi/SpuvPFGNTVOLYSGXdhyrAnPhE+DYmSERsO4fYu5m5gpTOqtQvuWdHf9ModZ1sAp0WWKP5waRtOiKvTq05HCKSIiovgwECIiIiLKEkYLoVi/iilTpqip8WghNID6knrM3Rylq1ZcBvB2bH3GNKqrmFeaCdmMw2MeQ2gMXcaIiIiyDQMhIiIioixhbvkTq3haCMXG3E1LxvqxzltUJTKQtJVxjDzLwNSmY8sYRc+YgycZjFm6qjWgWPuvoekYSqINHh13l7F0kLGQbFoREdGEJL93rly5wjLJinwoc/nyZfVdkB4527dv965evVrNAi2tHdi8vg7P/7gdX/v6vao29W66eY5+zPsemIgPIiUiIqJM9rkpwPnz59VcYqZNm4Yt25tRW7NS1URmvOZKteeeew7f+ta39GlriyBhhEISqjzxxBN4/PFEQiIimgjS9Xvw7NmzmDlzppojq6tXr+Kzn/1s0BhwNPFJt+3f//73mDp1qqqJXzw/W6+99hpbCBERERFli8xoIURERKkkLYQkDPK1vGSZLGU8AkAGQkRERERZwjw2UKxeeeWVsC88rYWIiIgmFwZCRERERFkikRZCzc3NelewWAoRERFNHgyEiIiIiLJEIi2EhIwLFGshIsp8fXBOL8KuETUbcV6mp2O6qTj79JWIJr2MG1T6G9/koNJERESUftkwqLS0EEo0FCIiiiZ7BpWWkGcHZh/tw5rcaPOWZSO7UDTvFNaNulAkq2YgeeLUjBkzYu/O665GTonvGY+FrmEcrlPPW0xWvRmPpU+P6Vg25AljH330EQeVJiIiIqJQDIOIiMYoNw934ASG/a2Jsp0b1SVAr9cLr7cXBc5KNHuSWW/GY439WJmFgRARERHRBDZyaANOdK7AYOtf4q1/fQi/+93v1BIiokmorwcdK9eZWhKZu5oZjPoR7CqajiJjhT4nphftQkZlSe5utFeVoVifKUaDC+js8SSv3ozHGvuxMgwDISIiIqIJ6s32u5C7ZBvuqNiHBTW/wJ3f3o93/te9eP3113H16lW1FhHRRHcEG+epMYRWAPtcsXYWy8Wavn24Y2ML+iQkkm371mi1mcNz6jgK8/PUHOCYXYD+oeGk1ZvxWGM/VqZhIEREREQ0AUkY9OWqN7QpGcsgUL7qHMKFVx/Gy415eOkfvojeLX+BA4134Gdtxfjtb3+rrROJG9VBj6svhMv64aeMn2BapzBoBdk+zDa29Ymy7i/SfPhju6vN12d3fnb1RJRZ5mPr0VGMjmrl6GzsCGoVZAqLwg44XQTXPmCFL0nK2HGHiOJ3mYEQERER0UTk9Xq113otwIULltKE+xqGUbR+BMu/+x5KNv8KyxpO4Nyv3sSzzz6LM2fOqD3YWYSmYRkfwYvhJqD+ERf8eYg+mOYx/3KvdxgVnXmWUCgLeFzY4hsTlIgmmtzlKJ9/BKdOq3lzWLRvJTp2ZFiXMKKUuZGBEBEREVEmk+5dr776qpqL3aeffgr84Q/A//k9+p9+Orj801y9/OyHX8K/7XDgwNZbcf3112POhR/ixLNfwbvvvqv2EpnDuRlVA534qZ73eODa0o6q3n44/Q9VccD5jKRGjXCrmsynXccj9Zjb2ws++5ZoAhp5CV1H5mP2LDUfleoqNirNhJzaXGaxdksyui0lq96Mxxr7sTINA6FITE2eF1uHB9eXVYd9ceNpXoycxc2BT8vSSpouB5ppB5fF+ijn+vlVW85crieozoPmxaZt1fX4mk+HFv/9sTQTD7lvREREFJePP/4Yg4OD6OuL722IHghduID+n+xD4aPHwpZ7H3sHf7XOg2Ub30Xpqirc/71fY/SjUTz//PNqL3Hw/BSdA1Uo842mGeC4HxWLjuFkIi8J5HVFoakFUjq4G1E/txdt1uuIyvIaTD9vD1yFpm5z43E9RBOWuavXCnSEzJuZls3rQrn/8fTCPL7QCWxtM48RJINKr8CJrbUo0v6r3XoCKzJtUOm8fBS2d6v3pW40OoGKUkfy6s14rLEfK8MwELKl/VEP+8g4FZR0w+ZTI/mH71fT46UQLn9TbaMEPuVy1G1CVfuTpkfgadf05HG4GtQrH08zFufkYWiTafs9QI/2nV3cZt5f4DiH67RvdHmRU6Ltx9JMnKEQERFR4u655x7ceeedeOutt+IKhYwWQjfccIM2FzyOULjy8Rl5i9OuDzb93nvvadPReVxb0L6oAvcbr3cX3Y7wn4UO4G3/h6YDqM8zBSd6KdHPIiKPC4VB2/iK9TOusZHXf8fQZLwmChLLeRvd6bTXSQNvY1haSPX3Yq7eQkq9tux3arVENDZFcEkXr4jFCH2s65rDILtlUi/TMqj0KPrUBrlr+jCaYYNKa2/ucLgXKFG/k9B7GPLWLGn1ZjzW2I+VYRgI2bF9ZJwDdYe1P/RtZfoSK0/zk4BLe8Gi5tPBXe1r+RM7yyPwPD3oRAV84aUHzZVOFPR6gz8Z07656yJ+UiahkjQTN3/Ta/dqj3Ygp9FMXMK08K2qiIiIyF5RUVHcoZD+FLHLl/UPaXTadKRy6dIlfTUJkvzbhBUIRvLq5wYHHHoIEs4i3O5PigJjEAWKTfes4jZ4jf07nOgP2sZX4m/JY89dXYJjTc+YuryZxXLexr2RNwJt/teRbfobBHMdEVESye/KcL8Tk1VvxmP5jOVYGYSBkA1rfz9rf8CwPM2oHNqEtlI1n2qqe1Z3WfzJo7QSKlBBjaenEwWb6nwvtiQc6g/T3Dsau+0cpagoPI5TevYkYVoZuiUxTe7HeURERBPekiVLcNNNN+mh0AcffKBqg9XW1vq/6i2ENJ988on+VR9PKEIxB0KRmYMRU8Chdw1rR7f1T7zelWwu5sT5WiXthl3YcqwJz4RPg2Jk3Jth3L6FTx8jIqLMxkAoaaRlTScqwjYxTjK9S1cOcrrLxpA8FqOsSl60SRe3guAgpzDfprl3FLbb9SOQpRWjTV5AlnVDwizmQkRERLE5dOgQPvzwQ72l0C233KJqg7W0tPi/6i2ENP5AKORpY8Hl4sWL+mrRAyE7Djg3V6G9xNwa2I3qvHqgqSGxljHmMXdS2mVsAPUl9Zi7OZnduYxucsYwBNJMiC2liYgoczAQShJPcyU6K/akpY+gu9GJfhm/Z4zhU3GDC8dLSnDcZXmR1j9k09w7CtvtChEyuHpxA1yFsLxoJCIionCkm5i0DJIwSLqPxcIIhGRQal2YVkHmYrQQkg+bJGhJiDSV94+fIEVPQtA/plY3Stxdxsxj/shYP9Z5i6pEBpK2Mo6RpwamlkGlpRuavNYqRkPTMZRwUGkiIsoQDIRsxPfION9A0v3OPN+LjDztBUu/E3kpetKYb2DnPUClvOAYQ6Cid+cqDB75XK8L09w7Grvt9K5kBZjtP4SMIyTnXQnsketgX3oiIqJI5JHz8YZBIu+vX0Zvby/+eOWPeOF730PXc8/hJ3v34sd79uBfn34ae//5n7GnrQ3/0tqK//mjH2FgYADt1dV48deluPnmm9VerKSlr/mx8mGYxk8IDWzstrepl30lNAizapEcsRjHU+uGpEHmc4rlvC3H1Pcng0oHAjGH9noxseshIiJKrt9f/iMDIVtxPTLO8gJg2IXCQheGD8u4PG5Uq8e9J5ca3NorY/Iktn9p1eQs2GRp1aTtd5M097Y0wfY0ozliSGRsZ20mrt04fwskCYOMICjzR1wnIiLKBPKUsAULFsQVBolbb70VNy39CX55TQ0OfbQCL5//Jn72h2/jtUt/g4FPVuL1K9/BG95VOJpTjV9eW4P//Mzf4dj1a7Fw4cK4j0VERETZh4GQnax5ZJyEUfGdm6d5sd6SKa+zAsPh2kbLp3HD0p1Mrl2VSqA0zKpBbJqJ64+k10mIxSCIiIgoHnfffbf+6PlEyLZr1qzBhg0b0NDQgMceewx1dXV49NFH9Xr5KvNSL8tlPamX7YiIaPycOXMm0OCAZVKU999/X38fnU4527dv965evVrNAi2tHdi8vg7P/7gdX/v6vao29W66eY5+zG98M+xDR4mIiIhS6vz582oqMdOmTcOW7c2orVmpaiIzXnMREWWKdP0ePHv2LGbOnKnmyEoG99+7d++Y/z0ou8jPz8MPP4xrrkm83U48P1vuQ//OQIiIiIhIMBAiosmOgRBRdovnZ6vz/z3ILmNERERE2aK2tlZNEREREY0NAyEiIiKiLNHS0qKmiIiIiMaGgRARERHRBDZyaANOdK7AYOtf4q1/fQi/+93v1BIiIiKazBgIEREREU1Qb7bfhdwl23BHxT4sqPkF7vz2frzzv+7F66+/jqtXr6q1iIiIaDJiIEREREQ0AUkY9OWqN7Sp9qDyVecQLrz6MF5uzMNL//BF9G75CxxovAM/ayvGb3/7W22dSNyozimEy6NmI85bl/m4q3OQE2Ud+/pMIuco12KUMOfrrjYtz0Fh0ArZfO1ElEryCPIrV66wTLJy8eJFXL58WX0XpAcDISIiIqIJSN5Q4HILcOGCpTThvoZhFK0fwfLvvoeSzb/CsoYTOPerN/Hss8/izJkzag8p4HFhi+RSE8YiNA179Xs93ATUP+KCP8eRMKjkmH+51zuMis48SyhERBRKHjv/J3/yJ5gxYwbLJCqf/exn9X/7dMq4x87f9wAfO09ERETp9bkpmfvYeene9fHHH+Oee+5RNbGRMYMWrFgB/PEK+n+yT9UG++Mf/xj06aRX+08UPHIYt956qz4dTFqvbMHtw/1wOqLNW5d54CrMw9ube4ESu3UMdvWZJNK1G9fqRVuxvrKPx4XCvLex2duGYttrzIZrp4mKj53PDPL7WAICaVlIk4e0Dvroo48wdepUVRM/PnaeiIiIaAKRMGhwcBB9fX2qJjb6p4wXLuhhUOGjx8KWex97B3+1zoNlG99F6aoq3P+9X2P0o1E8//zzai9J5G5E/dze4IAkJhKQmLpmFRqtcKQ+UpcrCWVM3bSkxY5/WxO7+rHw/BSdA1Uos16r435ULDqGk0k9GBERUWIYCBERERFlMGkZdOedd+Ktt96KKxTSA6E//AE33HCDNhc8jlC48vGZEf2rDDb93nvvadPJ5Ea1dJ9qCJcGDaA+zxT46KVEP6sAo2tWL6oG3sawqo3MAWd/L+bWN2pHl+MDvf1OrTYCacETdB6+Uu1WyyPwuLagfVEF7jcOsOh25KnJYAN4238BsVw7ERFRajAQIiIiIspwRUVFcYdC+lPELl/2jSUkZKDKCOXSpUv6ahIk+bdJEnd1CY41PWPTBSowDk+g9CJ4EAEjOJFUR7pbGYIDldDgphht0kMtZDuT4jZ4jaDI4UR/0Hn4in2rpsDx8+rnBgdOtsHVItzuT4piuXYiCtUH5/Qi7JIcWxdt3qfPOR3TnfG1tiSayBgIEREREWWBJUuW4KabbtJDoQ8++EDVBqutrfV/NQam/OSTT/Sv0looUjEHQkk17MKWY014ZkwD4hjByTBu32LuJmYKVHqr0L4lyV2/ojIHOqbASe8a1o5ua0CldyWbizljuRVElJiRXdhxYiVWntgREhRlPdMTDRc3m34LJqvejMfyGcuxMggDISIiIqIscOjQIXz44Yd6S6FbbrlF1QZraWnxf9VbCGn8gVDI08aCizzuViQ3EBpAfUk95m6O0lUrLuYuV9GormJeaSZUrc2FIS/ejTGExtBlLJgDzs1VaA86pnYuefVAU0P4lkpElFIjL3UB5bWoLQe6XppIiZDxe06C6V4UOCvhyyGSVW/GY439WJmFgRARERFRhpNuYtIySMIg6T4WCyMQkkGpdWFaBZmL0UJIWrtICGLP3E1LxruxzltUJTKQtJVxjDzLwNSmY8sYRc+YgycZVFq6qkkAU4yGpmMoiTZ4dNxdxiKQrmh6d7XAvdHeJaCfjw4jGgcj0POg5bnIXa4nQlqNmXQxm47pejG6mqluZ327UKSWFWVi0yJ3N9qrylTQrP2ucwGdPdpvumTVm/FYYz9WhmEgFMnBasyYmqOXZTst/5D6smocUrPizM7F/vWty9LHjXr/OVjLYuw+rc5zreWjLrmeoDoPdt9n2va+ZpzRag+tNdWZiv/+mO5ZUD0REREl5NVXX407DBJ5f/0yent78ccrf8QL3/seup57Dj/Zuxc/3rMH//r009j7z/+MPW1t+JfWVvzPH/0IAwMDaK+uxou/LsXNN9+s9mJVjLYwgUlwMR6XrtYNSVOk3rxOuMerW9cx7d+/P0t9yD5lUOlAAONw9gfGCjIzjyEUF7tzN5F9m84x+FbYbR/DfokoPiMvoQvlWJ6rTecu16a6ENJIaP5WHB3dh+AH5h/Bxh1A2+goRo9uBTZWZ1x3M8+p4yjMDwxh75hdgP6h4aTVm/FYYz9WpmEgZMuN+jKg86IX5y72In9dpR6m+IOSF4FKfb2A0+/0o7Jb1pfShiWqPv0KsfWYcR5G6fWf721rN6Hy6SfV9QjtmrYfx9Z69SrldDOWTc3DyfWm7Z8CDhwEluw07y9wnANrtVctEgaVafvxH3sY5fvzGAoRERGNgTwlbMGCBXGFQeLWW2/FTUt/gl9eU4NDH63Ay+e/iZ/94dt47dLfYOCTlXj9ynfwhncVjuZU45fX1uA/P/N3OHb9WixcuDDuYxERZTJfd7HlkDwI2v+lkdDGFtPg0n096LgjTy03m4+tbWt89blrsG7lEZzyv4ciyn4MhOwc7Mae75SpUKcYtTuALrcEGw6sftmLczvL9CXBCjFnlppMo0NrfS1/Yme+Hs3pHnShAsv0c/dg9yon8ru9aFqqL/WZVYfV5vkQEiq1o7L7MFb774F2r55yAesaVWspCdPGq+UUERFRdrr77rv1R88nQrZds2YNNmzYgIaGBjz22GOoq6vDo48+qtfLV5mXelku60m9bEdENDH0oWXjERzZOE91CZuOedo8Onq0JWqNng6sLI0WhI9g+ISaJJogGAjZOHPqOOZ/KdDc67bZBTjyTqTmXh54hvqxcW4au0qp7lk9D5hDmNhIK6F8FdSccXcif30dbpMFEg79vAqlEcOfMOy2m1WK8oXH4dEDKwnTytAj3cmsXdaIiIgoJWbMmIHPf/7z+MIXvoDbbrsNDocDs2fPxu23365/lXmpl+WynqxPRDRhSOsfvTvYKEb95Si2zu9Aj54I9aGnYyXC50FHAgNQS7ezI3brjR9rtySj21Ky6s14rLEfK5P86B//gYFQ8qiWQ6o7VaCLWQroXbqk21qZfrygljwxK0bpd9rRc9CNlnUFwUHOwnwk1NDJdrt+nPTfi2I0yT16oFsPs+oPqmoiIiIiIqKYHcHGecZA0CvQETLvI61/5vu7ixmk29h8dPQ44dTX7cCKoP04Veuh+bjjVLVvn/M24o59LmRch9q8fBS2d8P3cbsbjU6gotSRvHozHmvsx8ogf/d/1TAQSg0JW/oDXbKS7FCTU/s1VRgY8ydBS+pdGCorwdCOhuDxjn4+hISyLNvtwnSlW9qArQuBPWXsQkZERBSr2tpaNUVENJkVwRXU4idc6cOaXG1N1yj6ZMIid00fRl2l2tRK7AvaLnhg6dm12npqmSsTh1dz1OGw/4mG8jTDw6iTDCJZ9WY81tiPlVFmMBCyY+0iZu1CFov82an51/cN7LwHWCXd08YQqOjduQpRXmw6T71OWg6p+VjZbad3JSuAwx8IqUG5p1YCT8l1jOfg20RERNmlpaVFTRERESmmJxoGPc0wWfVmPJbPWI6VQRgI2ZmVj/lPd6uwRbpVITg4ieR0MxqfNlrFyGPg4x30ORZGFzUZkyex/Z/ZWYmN+Zss4w9p+11fhT1llu5c2jXtjhgSGduZAyrt2uc6AX8LJAmDjCAo/nGPiIiIKH4jhzbgROcKDLb+Jd7614fwu9/9Ti0hIprspKWRtRtYuDqiiYmBkJ1ZdTjQDVTIWD1TS4Cgp2eFI8GPrKuVufKUrnQFHjImT3zHOrNzsX6eX95fgTd3hoktl7bh3DHpTqauR8oqYFm0sYpkO/89kyL3TT2SXichFoMgIiKidHmz/S7kLtmGOyr2YUHNL3Dnt/fjnf91L15//XVcvXpVrUVERKEkGPJ1OyOamE4zEIpIAg59kOhwAzdLEGPu7qQGSw5ZP/7AZmzsjheov23tYd95vqyeLBaOBGKm6wld1+Y4pnsmJbEBr4mIiGisJAz6ctUb2lR7UPmqcwgXXn0YLzfm4aV/+CJ6t/wFDjTegZ+1FeO3v/2ttk4kblTrYyMYpRAu/5CJiS5Lhhj27642Lc9BYdAKsn24c7KrJyIiym4/+sf/h4EQERER0UQk4xfgcgtw4YKlNOG+hmEUrR/B8u++h5LNv8KyhhM496s38eyzz+LMmTNqD3YWoWnYNz7CcBNQ/4gLgbwk0WXJEGH/EgaVHPMv93qHUdGZZwmFiIiIJo+/+7++y0CIiIiIKJNJ965XX31VzcXu008/Bf7wB+D//B79Tz8dXP5prl5+9sMv4d92OHBg6624/vrrMefCD3Hi2a/g3XffVXuJzOHcjKqBTvw0TK6S6LJkCN6/B64t7ajq7YfTPxykA85nJDVqhO/xwERERJMPAyEiIiKiDPbxxx9jcHAQfX19qiY2eiB04QL6f7IPhY8eC1vufewd/NU6D5ZtfBelq6pw//d+jdGPRvH888+rvaSZtOQpTHLLIc9P0TlQhTLrsImO+1Gx6BhOpiiUIiIaC2mt6WvRyDJZyvvvv693aU6nnO3bt3tXr16tZoGW1g5sXl+H53/cjq99/V5Vm3o33TxHP+Z9D1SpGiIiIqL0+NwU4Pz582ouMdOmTcOW7c2orVmpaiIzXnPFQsKgt956C3feeSeKimJ79o20ACq87z68efgwvlwV/fXVx/39uKGwEHtqa/EmqmwecS9j6mzB7cO+1jYeVyHyOisw3O+EI+FlJhIIbbndV+9xoTCvHgNqkaGqN9yjfCPsX/bzCPCM9VjScqgwD29vlv3J9iX6KEuhpCuauXUR0cSVrt+DZ8+excyZM9UcWUmgv3fv3jH/e1B2kZ+fhx9+GNdck3i7nXh+tjr/34MMhIiIiIgyPRAS8YZC/+HKx1e/+lW88cYbuKu6Grh8WS0Jb/TwYUz/q7/Cv6xdi+q6pz4AAFt4SURBVKM51finf/ontcTMGpxUodfbBl8+k+iyZIiwfz1YehubQ44ngZCeFMHpkO0DgVKAXT3RxMRAiCi7xRsIscsYERERURZYsmQJbrrpJj0U+uCDD1RtsNraWv9XvcuY5pNPPtG/6uMJRSiXLl3SVzO2sxcYvNkbErIkuiwZbPavdw1rR7d1sCC9K9lczGHQQ0REkxQDISIiIqIscOjQIXz44Yd6C6FbbrlF1QYzunnJ16tXr+rT/kAo5GljweXixYv6atEDoRQyjyEkLXtMj4k3SnXco0A74NxchfaSagQ2daM6rx5oakhBMEVERJQdMq7L2De+yS5jRERElH4TbQyhvu25+roHDhzAso0bgRMn1JLwjr/xBgoqK9FeXY3jNzwa0xhCwRJdZmIeQ0hVxSaG/euPnjd1Kgsai8hu+xjPm2iCYJcxouyW9WMIMRAiIiKi8ZCpgZA8cl6eMhZPGCTk0fFDz34Vn3o/xdUrV/WWP9JqyCjGvHw1inS3evHXpVi4cCE2bdqk9kREkwUDIaLsxjGEiIiIiCaQG264AQsWLIgrDBK33norblr6E/zymhoc+mgFXj7/TfzsD9/Ga5f+BgOfrMTrV76DN7yr9AGkf3ltDf7zM3+HY9ev1cOgeI9FRERE2YeBEBEREVEGu/vuu3HPPfeoufjItmvWrMGGDRvQ0NCAxx57DHV1dXj00Uf1evkq81Ivy2U9qZftiIiIaGJjIEREREQ0gc2YMQOf//zn8YUvfAG33XYbHA4HZs+ejdtvv13/KvNSL8tlPVmfiIiIJj4GQkREREREREREk8hnp3yGgRARERFRtqitrVVTRERERGPDQCgSeTxpTo5eFjd7VKWiL6uGW80a3NW+9XNyFsO6SXrI41GNc7AW3zl5mhcjp9py5nI9QXUeNC82bbu4WasxX19w8d8f0z0LqiciIqIxC/8oeCIiIqL4MRCy5UZ1CdDr9cLr7UWBs1IFPCoo6QasD8iXsOTJ/GH9ka1e72HUOdSCtCuEa1jOwVx6/efrqNuEqvYnTYGVdk1PHoeroVjNNmNxTh6GNpm23wP0uIHiNvP+Asc5LBcrYVCJth//sYdR0ZnHUIiIiChJEmkh9P3vfz+obN++Hbt27cLevXvx4osvqrWIiIhosrlG3rhTGO5utFeVwReRFKPBBXT2SLDhQN1hL7xtZfqSADe6j7uwZxxSIHd1vK2RzNej8fSgExUo1U/dg+ZKJwp6vWhT+ZDOUYc683wICZXaUdVrDsK0e7VHO5CzUbWkkjAttFUVERERxSbRFkKPP/64v6xfv15/ktjDDz+MX/ziF3pIRERERJNPzrZt27w1NTVqVnuh0dqBzevr8PyP2/G1r9+ralPvppvn6Mf8xjet7W7Gh3SrqsQeX8sXIa1fusvg9ack0jWrG2XeNl9opC8Hqtrb0S7zhS4MH65DSuMhvUWOhDDm8EbO60nkD1tbKFnrA+efp11r4+zDvn1I66C8IWwyrsuWZX+220kIVAnsMR+3BO1VvaZ7SURENP7Onz+vphIzbdo0bNnejNqalaomMuM1FxHRRBLL78GzZ8+qKSJKtpkzZ6qpyNyH/p2BkJ2EAiG9u5Qv+DC6j/m3TyY9fHGiP2yoYg1+DKH1co7dZb1Aiek6ZN96fhMtzAoTCIXdTgIhX/ezoFMNG2YRERGNn/EIhIiIJqJYfw8S0fj5/63fwEDITmIthEzLQ9ZPHglyStpl/B5r6CNiD4SMYEnbUeA6bVv6WIUJhGJqIWTwBUXO/ir0Rj0WERFR6qU7ECIiIiIaL//xH//BQaXtOGYXoH9oWM0BnlPHUZifp+bGl29g5z1ApTzJawxj8jhKUVFYiArf4EE+el07uuPdqd12Mj5RfwFm+w8hQZCct4REch0Mg4iIiIiIiIjSjYGQnbx8FLZ3q7DFjUYngoMTq+Iy05O7PL4Blssk6pCWNKl4BL0a3Npbhu4E9+9proSzYJOl5Y62301VaC/JQfBT6JvRHDEkMrYzB1TatestkBpU6GO0FpLzDte6iYiIiIiIiIjSgYGQHUcdDsvwOjnSmkWePx8twChG23AFOvNk/Tw4C3rTNDaOdtw4wxXpDpejXVdeZwWGw51kcRu8wy4cL5FrUaUSKI12PbKd/55J0Z/bbxpHSUIsBkFERERERERE441jCBERERFpOIYQERERTRYcQ4iIiIiIiIiIaBJiIERERERERERENMkwECIiIiIiIiIimmQYCBERERERERERTTIMhIiIiIgyXh+c04uwa0TNEpmN7EJR0S7o3x7maaKsJb/zpmO6qTj71CKKAe8fxYaBEBEREVHGGsGuInkxvwIdOIKN82Taqb3UJzLJXYO28i7Mkzd+8zbijnVrkKsWEWWv+dh6dBSjo1o5uhUnVvB3X3x4/yg6BkJEREREGUnCoHnoKj+qvaDfh5XGi/t9wAqGQmSRu6bP98ZPK64iVUk0UeTm4Q6cwDCbviWG949sZFwg9NElFhYWFhYWFpb0low08hK6jqzEujWWth5FLuxb2YEdev+x4K5kI7uKMD2oa5nRwsgoxrJwXdCs60qR4Emt27cLRaq+KHhDRXVRsHRXCj6nSOdrXqb2pfdxiHJ86SKl6qUEukXEeixhnQ++F86+eO+Nb/2gLhp9TnVvzMeSaW0783WGPafgZbHfU6IJoq8HHSvXYU2u72fL/zvA/3Ol2P4+EOrnTS/hf34C7OqzlP/+6TNRrpn3eDJhCyEiIiKicXD27NmIBadP4cj82Zil1o+uDy1d0knAyug2IK2MIsnFmj5jPWMbF3yNTY5g4w6gTXU9wMZqmxfx87X/uvBS4J0DXjoV7pyE3fnKm5EVwD7tWP6mLnbH195QSBcpWdffLSL8G4/wxwpHjm+0zPLt11UU773R1l+3Eh09gXdKfT0dWBnUlSvcdcYi0rUELwv3fcXCko4STbhtzMXH6CarFflR0X9O5GdxH+7Y2KJ9t2s//1LfZ/xcxfD7YP5WHI36uzBYuPNLdYkm3Dbm4hPu/sVictzjiVxi9dOeXgZCRERERONl5syZtgWzZmP+kVM4rdYNGMHwCeCOvOCWQ33yqn3dOtyh5n1O49SRO2BZVTG9WYjaBW0+trapNwS5a7Bu5RGcCj0xXXn5HdjYovbW14Ku2eWWc/IJf75AV7UvjAl+72Jz/JFhnNDedpQa69qcW/hjma9fxmhS7Fpm2bI5t6JSrOzoUfe1Dz0ntqLWdE3hrzM6u/smrMvCfV+xsKS6xCrctkbxMcJXCR5mY4e/NUkRXHrXWe37fZ8RzGqi/T6QVjJ35Klgw8z8u8Da4iX9P0exCretUXzs7p+IfM0T/R5P5BKPr/1VEQMhIiIiooykv9A2uoaZ9LVg4xHTC3Jxehd2YF9ouCAvzm1bGQXeLAS6oMXCF0jZWl6LrSd8QUhfzwmUL8/z1ZvZna/2pkHO64g10QkS5fhWtscyvVmK89Nse+ZzK0Lt1hP6fR3ZtQMnypeb3iTFcp1h2F6LJtIyomyXuxzl80PD3njorfSCfnEaTL8L9q1Ex44J+JS+kPuXmmue1Pc4SzEQIiIiIspQRa6jKO+ah6CnjMkHtv7uSkKrX9GFcnPzE0VenM8PCiISdQRdRj8w1YIm7Gt+XS6Wl0sQsgs9MMasMLM/X3nTUN7Wh31YYRmnyOb4+kCpHfD3zBrZhR0d5nOLdCwb+huneAIy+3uTu7wc6GrRu3GVLzffCLvrjCTStSRwnUTZRP/Zmo/ZerqtujGNShMWU+vGiL8P+tAT9Lthkgm6f7HgPZ4sGAgRERERZaxIY9cEzN/aZglefIOCrjixFW22XZ+O+Jvwr9BexEfuIjUfd5yq9jX318ePCD0Hs9w163DHxo2we2cQer7B/EGYfyBTu+MXwaWPYeG7junzulB+NPjcoh0rlDF+hgRxvv2Gdqcwi3BvpJXXHR3ouCNcMBbuOgP/JoEQMPBmLNK1xH+dRJnO9POg/2z3ad/jvrG3Tmyt1X7OfK3wVvh/fux+H/TBqf88dWBF2J8t03FWnAh0Ac164e6fWhTxmnmPJ5Ocbdu2eWtqatQs0NLagc3r6/D8j9vxta/fq2pT76ab5+jHvO+BKlVDRERElB6fmwKcP39ezSVm2rRp2LK9GbU1sXU+koEf4+3vPz7khf4OzA56M5FO4338SKKfW59zOnpKE30UvOy/B6VhQkCiTBXL77b0/v4L93OUuT9bmXf/YpFd93gii+d7w933MlsIRXSwGjOm5uhl2U6PqlT0ZdU4pGbP7FzsXzdQAsvTx436kPMwymLsPq3Oda1bra/I9QTVebD7PtO29zXjjFZ7aK2pzlT898d0z4LqiYiIiCYb6U5hGUyaiIgoUzAQsuVGfRnQedGLcxd7kb+uUg9T/EHJi0Clvp7PbWsPa+vJur7y5o5CzN/RgCVqeXoVYuuxwLn4Sq//fG9buwmVTz+prkdo17T9OLbWF/tmTzdj2dQ8nFxv2v4p4MBBYMlO8/4Cxzmw1uELg8q0/fiPPYzy/XkMhYiIiGiS8XXZ07tTjKlrRBFc/HSdaIzC/RzxZyu5eI+zFQMhOwe7sec7ZSrQKUbtDqDLLcGGA6tf9uLczjJ9SXhutKwrQIOEJGlwaK2v5U/szNejOd2DLlRgmT7ImAe7VzmR3+1F01J9qc+sOqw2z4eQUKkdld2Hsdo/WJl2r55yAesaVUspCdPGo9UUERERJU5e1I9nd63xPn4kdudmjP2UqedNREST3f/3xs8wELJz5tRxzP9S4DGpt80uwJF3htVcFAe7MZSO1kGqe1bPA+YQJjbSSihfBTVn3J3IX1+H22SBhEM/r0JpxPAnDLvtZpWifOFxePTASsK0MvRIdzJrlzUiIiIiIiIiShsGQknn635VXpzC1kF6ly7ptlamd80KaskTs2KUfqcdPQd9rZmCgpyF+YgzX/Kx3a4fJ/0tmIrRJN3JHujWw6z6g6qaiIiIiIiIiNKGgVCySUuZ/E1xt9iJx6EmJ47I+D3GmD8JWlLvwlBZSWhrpp8PIa4eaAbb7Qoxx3o/ljZg60JgTxm7kBERERERERGlGwMhG9YuYtYuZHb07lcPjC2oicY3sPMeYJU8yWsMgYrenaswuDWTXicth9R8rOy207uSFcDhD4RkHCE570rgKbmOtnEaeJuIiIiIiIho8mIgZGdWPuY/3a3CFulWhRi6gXlwYD8srWHkMfDxDvocCzW49UUZkyex/Z/ZWYmNIa2ZtP2ur8KeMkt3rtPN2B0xJDK2MwdU2rXPdQL+FkgSBhlBUPzjHhERERERERFRcjAQsjOrDge6gQoZq2dqCRD09Cw7wzgZ1BomHWRMnvjClTM7F+vj93x5fwXe3BmmNdPSNpw7Jt3J5NpVWQUsizZWkWznv2fGfVOPpNdJiMUgiIiIiIiIiGg8vfDCC8jZtm2bt6amRlUBLa0d2Ly+Ds//uB1f+/q9qjb1brp5jn7M+x6oUjVERERE6fG5KcD58+fVXGKmTZuGLdubUVuzUtVEdvbsWcycOVPNERFNDLH8buPvP3u8fzQW8Xxv/Md//AdbCBERERERERERTTYMhIiIiIiIiIiIJhl2GSMiIqJJL9O7jF25ckVf/5NPPsGnn36qarPH1KlTMWPGDFx33XWqJjJeb3bh9UY22a5XrpVdnhLH+0djEc/3hnQZYyBEREREk14mB0LyZvL999/Hn/7pn+rrX3NNdjXwljfA586dw29+8xt8/vOfj/qmktfL681kvN7ooVCyAo3tL/0XWl/53zh/6YqqCTVtynX49t1/im3lX1Q12S9Z9+/AgQN49dVXcenSJVUTasqUKZg/fz7KyspUzcTB75/oOIYQERERUYaTN2N/9md/hptvvjnr3kwKOWd5cSpFXqhGw+vNLrzeyCbb9SbL+v3vYrv7vyK+mReyvPWVD/Q3/xTQ1dWF0dFRPP7442hubrYt69atw+XLl/XwaCLh90/ssu+3EhEREdEkcvHiRUyfPl3NZS95QyldZqLh9WYnXm94k+16k+W5wfjCJ3lTH6wPTu2+y733laVoHVGLRJ/Tv2xp0IKJ4Y033sDy5cv1FkCRSFfAhx56SG9JFMx6/8zFci81fU6t3tmn5ixGWrE0zPYjrUtDt5F/F71uBK1LA9vY7dpOcr5/nNr/zYLPafrSVq3GxOY6/aIt178nrcdMPQZCRERERBnu2muvVVPZS65Bup/EgtebfXi99ibb9SZDtJYdVucvXVVTZguw7eio3lLm6DZgw2rjDbz2Zn8FsE+rHx3dh/wNq0MCjmwn3cQk7ImFhEbhu5UF7l+g7ENIp+iRVjQOrcTKocbw9/H0SQyu3BeyfW5NA1Z2mLcZQWvjELbVFmnTp+FoUMfU/vGGVsQXlCTn+8dED3Pm4aRxTlJ2AwesJxXmOv1s7oN+3RI09Wibq5p0yrhASPrws7CwsLCwsLCksxARUXap/Mp/V1PR6eHDYBcOSPjQ14OOlaWQ2AHa/2u3AV36AkrEyIEuoLwWteXh7+OIZwgL5sxSc2aWez9yAF0ox7JcmSlCke8fSPvHcyBfTSZT7N8/I2hdvQH5+0bhMs5J5Nagxjx/+iQQ9jp97O9DLmoOjmLUVarm04sthIiIiIiIiChrdPztXO3/Xt9MnKxvzHMd+Rg8eVrNUXxGoOdBy3KRu0xPhFQrrIDTJweR79BTnhAS1OVvaNFb/0iwlN9Qg5A1gwK85Ijr+0eCqsGVKI1yAn09HbbXKSLdh/HywgsvMBAiIiIimnhewuprr9W7efjKV9Bifb/z0mrT8mvxlaAVZPsw29jWZ6pI9yGGe5TxEr2+bLx2OWfrNdjNW6/vWqx+SV9pggi9vkDJhn/L+JTNu1lN+cib+X9/50Psee19VRPdSGsjOhYYrU8oacytenKXaVOqFZbfCDxDCyI0nClC6coO9PT1oWVDflDooo8xJGPt9JRiNKhpTnwS/v5ZMAf+0zZPhxXtOqMtHx8PPvggAyEiIiKiiWkRmk5dxdWrV3GqCaivbEHgvfNqXFt63L/86tVTqOicbQmFJooI9yHismyR6PVNhGuPJHB9V7ULPF66GhMqEzJfn7/0YJVaOpFMn/oZ/MvfFujT8YVBg9gwzzeA77wN+dh3MEzrExoTX3exZeq+5kIaCW1oMQ+scxonB/MRqWFMUa2MEbQCQ9tqg1oB5dYc9I23U9oTOgBzHBL7/pmFOeZ+aoMnI/9+DOruFk70+zBeGAgRERERTXCzajdh1UAnevRXtKfR8uRTWNXzGmr9n1bOQu0eSQUaJ9ib5mDB9yFYpGXZItHrmwjXHtGs2SjAcZyaqNc3wXW89mv87J2PcOYf74mzZZB5UGSXP2ywdhGzH9uFIpNWPYMY3DDP15JHD94GtX+wnsAA0CMeDEVrXSMtixYs0LudhVXkwr6Vg0i0V19i3z+5qHGpAFE/P2nFpC8IKzgYCyOW+zBOGAgRERERTSane9A5sAply9W8YVYpKhbxTTNNQC9146lVm1A76zRavmLqHikt5b4y0VpGTUzypv4vv9cfRxgUwaw5WOAPLSTU8I2BQ3GSsX0WbMNRPXAzylFsM4UnEpQM5jvsgxLNSOtqbMhvQI15pb6+QKikTfV0jK27VfzfP+bHzueipmElOlZYHn8/0opWfd7X3a0h6AKCxXIfxgsDISIiIqIJ7nTLk3hqUQVKjRfUi/KRpyaDDWBoWE1q0/WzreOTlOIptTQbhdwHk0jLskWi1zcRrj2U6fu3FOjZLQnoLNS+1oMCvSXcS1gt9a/VZuSn9pPdtCnXqamA0Yv2jxKfNiWOR/vn1uDgPmCF3qpFnj9/MDiMmADsHyUf6ty5c/r68ZJBlBeEtIqRbmML0NHTqj9Kfd4GqMfIhzLGCJrXVY6j1jGCZnnQqFodJfJvlPTvnyKXevy9cU5aWQ0sK5LgaAU6tP98309GkTpzl0X7+zDeGAhF4q5GTk6OXhY3e1Sloi+rhlvN6iKtnzZuVKtzCC2LIaflaV6MnOqgM/ede1CdB82LTdsubtZqZDVTnan4r9d0D4LqiYiIKM0Cb4hn1xcEv/EdGII/9wmyCPn+pGiijFES4T5EXJYtEr2+iXDtkZjHEMrHk/7Blpdjdw9Q6kuJtDnKRDVf+zM1FZtvL/hTNWUogms0Qoggb/BVq5YxjFecse655x7s379fD3sikdDI7XbjrrvuUjUGu/sXqC9yjeJgmBusj/3jqvE9Sj1kH4Ht/WMEhRvbSUI7f6uj+P+NkvP9E+hmqLOcU+C8zV0TzWUfVvqX2d+HgDDHTAMGQrbcqC4Ber1eeL29KHBW6mGKPyjpBqr09Qyy/nG4hq3rj4dCdR7m0us/X0fdJlS1P2k6P+2antTOvaFYzTZjcU4ehjaZtt+j/c10A8Vt5v0FjnO4zuELg/z3QMowKjrzGAoRERGNC3OgY3rjq3cNewrd1sGC9K5kBZg9sVIBjc190EVali0Svb6JcO0x0r/nza3fKNOtX/7nqLn3lrAtPcxkuay77aFbVQ2JZcuW4cYbb8QPfvAD1NXV2ZYnnnhCb8FSXl6utpwY+P0TOwZCdtzdaK8qgy8iKUaDC+jskWDDgbrDXnjbyvQlfp5TOF5YgVKHzBSjrKo/bX903NW+lj+xM1+PxqO9AIRx7h40VzpR0OtFm8qHdA7tl4Z5PoSESu2o6j0MyYZ8tHu1RzuQs1G1pJIwzdKqioiIiNJsFmo3rcJTQU9degmrZ9cDTQ0TOxigyUkPO43Wb6qr2FVpJjTRnjw2sWx76It4b/tdGG1eaFtk+friP1dbkFlZWRm2bt2KH/7wh7ZFli9fPjF/66fn+ydcSx9DpGWZg4GQDc+p4ygMtJmGY3YB+iMlPI5SVKATvozFje72KpRFDFCSQHXP6i4zhzCxkVZCBSqo8fR0omBTHXx5kPYHsz+Bc7fbTu5L4XGc0u+LhGll6JbuZNYua0RERJQ+y3dDfz98ra/LkIwNpL1DxmuBx44RZaBANzffeFbWeTPTstmdqDglT9WTQaVLcVwPPpejoek4SjmoNBFNYgyEkkZaw1SgM0/GzpG+Zm2qdVEK6F26pNtamd41K6glT8ykFVM7ut1uNDoLgoOcQruBJqOw3c7cWqoYbdKdrKxbD7OYCxEREaXCcuy+an6sfBgSCundhXxFH3PXz277GPabUSKdb7ZdSziJXl82Xrucc+D7NXwxrsm6rlEvg0oHgs9Zta/halaOnWT375eN/65ENF5eeOEFBkJJIyFNJbBHHzvHi7Lu1IUd7kYn+mX8HmPMnwQVN7hwvKQEx10NweFVv91Ak1HYbldoGqBSKW6AqxBoL2EXMiIiIiIiomQ6cOAAvvvd7+Kxxx6zLbK8u7tbbTGxbH/pv/DF9W9get3PbYss39D1ntpi8nnwwQdxjYQXFMraRczahcxKul2hotTX7UpTXFaF9u7URB2+gZ33AJXSGmkMgYrenatQO21TfzO9TloOqflY2W2ndyUrwGz/IdSg3Dl6eqZdRwpbUhEREREREU0yXV1d+pOuHn/8cTQ3N9uWdevW4fLly3p4NJGs3/8utrv/C+cv2T9qXsjy1lc+0MOjyUiyILYQspOXj8L2bhW2SLcqyXvsB+rRA6TOHhhjO7u721WAJI+Bj3fQ51iowa29MiZPYvv3NFfCWbDJMv6Qtt9NVWgvsbRw8mi/NCKGRMZ25oBKu/Y87cb5WyBJGGQEQfGPe0RERDQZXXPNNXq3l2wX6zXwerMTrze8yXa9lBneeOMNfbDoKVOmqJrwZsyYgYceegivvvqqqjH0wTl9uv4EstCyFK0jajWlz6nVO/vUnMVIK5aG2X6kdWnoNn1Of52+T7XNUusBo3hu8Kyaio2EQsHk+p3a/81G0LrUdB1LW7UaE5vrjOteyvWHHDe1GAjZcdThcC9QImP16GMCRQkwitswXNGJPH39HJSg1/co9pSTMXniC1c8zYv1c8zrrMBwuAGItGvxDkt3Mt+16KUSKI3WlEe2898zKfpz+033QUIsBkFERETxuP7663H2bHwvbjPRRx99hKlTp6o5e7ze7MTrDW+yXS9lhkuXLulhTywkNJL1Qy3AtqOjekujQNmHlWqp30grGodWYuVQY0hQpDt9EoMr94Vsn1vTgJUd5m1G0No4hG21Rfo+PaWBY+ZvWB1+3zaitQyyOn8pSuCphz3zcLLBOCet7AYOWJObMNfpE+1eqrCpR9uFqkkXBkKRSMChxgQKzU0kiAnu7uSoO+xf3+vfIP7AZmzsjheo95/nYfVksXAkEDOuJey6Nscx3TMpiQ14TURERIaZM2fqbyilZOOn9HLOv/nNb/QSyxsUXm924fVGNtmulyafkQNdQHktasuBrgOhqc2IZwgL5oQb6bwItdtM24wcQBfKsUwe055bg5oiX7UMBj9ngZpMosqv/Hc1Fc0IWldvQP6+Ubj856QJOkfN6ZNA2OuMRS5qDo5i1FWq5tMnZ+vWrd41a9aoWaCltQOb19fh+R+342tfv1fVpt5NN8/Rj/mNb1apGiIiIqL0OX/+vJpKzLRp07BlezNqa2L7fE/eIMqbxVhcuXIF7733Hs6dO6d/4JJN5LHfcm9uvfVWXHfddao2Ml5v9uD1RjfZrjeW323x/P6bbJJx/2TAaBkjKFZ1dXX44Q9/qOaEdHNqxJyjB1EjAY2ftV5atqwGdmvzaIVvsgbmTaTrV0+pEaZYt5f5HpSOujCrdSlaHAeDQxddYJ2QRTZkwOhIOv52Lv79nQ+x57X3VQ0w2rxQTQnTMaV10LyTaIhyfPvrtF6zIVx9/NdqFc/PlnQVZCBEREREpMnkQIiIKFskI9CYzJJx/9IWCElY4g+BTOGQfxtrXeh+fUHKPmBF+CBEljfOOYqDwScSkTkQKpt3M7qP/lbNhQ+DREggtNSDWrmuoGu0E+k6Y7yXOqlLbyDELmNEREREREREFBdfd7FlKijJxbJyYEOLeWCd0zg5mA+HfZKCotptGFqxAkPbai0hiIQs8YdBVtOnfgb/8rcF+rRdGBRqFubkq0kxeFK7kgjM3d2yDAMhIiIiIiIiIopDH1o2DGJwwzz/U7PmafPo6NGWKCMeDC2Yg4gj6+QuQ/mCBSgPSlOMFjejYwqDRMdrv8bP3vkIZ/7xnhjDIJGLGpdqEaSfXwd6Ijz6KzgYyy4MhIiIiIiIiIgodn096FiwDUeDnpx1FNtM4YkEJYP5johByUjramzIbwjuTtXXElo3BhIK/eX3+mMMg4R03TIe/56LmoaV6FgxHU5zKDTSilZ9XoKxfDQk62TT6IUXXmAgRERERERERDRR2D9KPpQMdi7rx6uvpwMLQlrFSLexBejoadW7e83bAN9j5MMYaV3qa1XUVY6jlpGk5clk6Fjhb3kkZWkcz52fNiV0APTRi/aPop825Vo1ZaPIhdGj0rUtcD7TVwPLiiQ4WoEO7b8VpnOdrtcNYsO8pXE9Lj/dHnzwQQ4qTURERCQ4qDQR0dglY1Bksf2l/0LrK/8b5y9FeiN/Hb59959iW/kXVU32S8b9O3DgAD766CMUFxdjxowZqjaUhEb79+/HDTfcgPLyclWb/eR7Z7v7v9RcdDX3/hm2PXSrmouH3YDRItKy1InntUVGPmXsvgcYCBEREVF6fW4KAyEiomRIRqCxfv+72P2z/63moltf/OdYv/zP1Vx2S8b9E93d3RgcHMTly5dVTagbb7wR99xzD5YvX65qJo4N+9/Dvw7+LmqgKGGQfP8khoFQ0jAQIiIiovGS6YHQlStX9PU/+eQTfPrpp6o2e0ydOlX/lPq660Kb8YfD680uvN7IJtv1yrWONdD44vo3Ir6Rt5IuP+9tn6/mhLwZNx7fLdPShSecBdgW9IZdBjOeBxkbWSdj5ER83HjyJeP+0eQVz/cGAyEiIiIiTSYHQvJm8v3338ef/umf6utfc012DQEpb4BljIrf/OY3+PznPx/1TSWvl9ebyXi90UOhZAQa0+t+rqZiN9q8UE0JayAUrqWGpX6kFUvnbUD+vlH4h7SRgYNP16Am/DA4KZGM+0eTVzzfGxIIZddvJCIiIqJJRt6M/dmf/RluvvnmrHszKeSc5cWpFHmhGg2vN7vweiObbNebTpVf+e9qKhlG0LraEgaJ3PSGQUTpln2/lYiIiIgmkYsXL+pPLcl28oZSusxEw+vNTrze8Cbb9aZLx9/O1f7v9c0kw8gBdA2uRKlt+COticxPjLLOZx4ZWPq73/0uHnvsMdsiy2WsoYlIBpaWrofS2syuyPINXe+pLSYnBkJEREREGe7aa6M8EjcLyDVI95NY8HqzD6/X3mS73mQrm3ezmvKRMOjf3/kQe157X9XYWDAHs9RkTOJdP4N1dXVhdHQUjz/+OJqbm23LunXr9EGnJTyaSGRQcnnKWLRxqGR56ysf6OHRZMVAiIiIiIiIiDLS9Kmfwb/8bYE+HXMYhFmYk68mYzV4EqfVZHiDOBl5hYzxxhtv6E8OmzJliqoJTwYLf+ihh/SxZIJJC6jpeuu20BLaMqrPqdU7+9SchYzNFGb7kdalodv0OYPrZH66Uzub+Dw3GF/3RgmFgsn1W48rA46brmNpq1ZjYnOdfhGW6/dP1S9Nc7MzBkKRHKzGjKk5elm206MqFX1ZNQ6pWV2k9dPGjXp1DqFlMXZrv8TO7FyMGWvdan1Fzj2ozoPd95m2va8ZZ7TaQ2tNdabiv17TPQiqJyIiIiIiilPHa7/Gz975CGf+8Z4YwyCRixpXHE8Hy12G8gUd6LFNHopQu20BOlYYb9ztnlqWGS5duqSHPbGQ0EjWDyVPYBvVWxoFyj6EPDZhpBWNQyuxcqgxfBe60ycxuHJfyPa5NQ1Y2WHeZgStjUPYViv99lT40oPQ48UgnifUifOXrqopG3qYMw8nG0z3YjdwwPr9EuY6/Wzug+zbU2rsdx/yN6wOfx9T4IUXXmAgZM+N+jKg86IX5y72In9dpR6m+IOSF4FKfT3ldDOWhV1/PBRi6zE5D3Pp9Z/vbWs3ofLpJ03np13T9uPYWl/sm5VrmZqHk+tN2z+lfcMfBJbsNO8vcJwDax2+MKhM24//2MMo35/HUIiIiCjtXsLqa6/Vu3n4ylfQYn1d8tJq0/Jr8ZWgFWT7MNvY1meqSPchhnuU8RK9vky/djk/6/nazVuv5VqsfklfKQtE+neItMws0X3Euv/MIKHQX36vP8YwSIRr4RFJLmoaVuqBT1CjFe3Nequaz605qN6027zhn6RGDnQB5bWoLQe6DoQmGSOeISyYE64znoRspm1kHCeUY5me4mn/Hge1++wq1RelQuyDksc44Pjpk0DY6/SxvQ9B+5mFOQvUZBo8+OCDDIRsHezGnu+UYYk+U4zaHdo3q1uCDQdWv+zFuZ1l+hLDGXcnsKMhzPqpd2itr+VP7Cznd7pH++GrwDL9+9OD3aucyO/2ommpvtRnVh1Wm+dDSKjUjsruw1jt/z7X7tVTLmBdo2pJJWGapVUVERERpcgiNJ26iqtXr+JUE1Bf2RLoDiFhUOlx//KrV0+honO2JRSaKCLch4jLskWi1zcRrt0QuJar2sUcL12NrMmEkvJvlOg+Yt1/+k2bEvp4+9GL9q0+pk1JwjhNRS6MHt2GIX8rIK2sBpbZDjRNEpboedCyXOQu0xOh4G5UmtMnB5HvCN9WS1oJ5W9o0YM7CZbyG+Jo1TUGcQ1KHnXAcZ++ng7b6xSR7kPAaZwczEfU1ZKIgZCNM6eOY/6X8tQccNvsAhx5Z1jNZQjVPavnAXMIExtpJZSvghoJs/LX1+E2WSDh0M+rUBox/AnDbrtZpShfeBwe/a+LhGll6JHuZNYua0RERJQys2o3YdVAJ3r0v8en0fLkU1jV8xpq/a8fZqF2j7wjbMyiN9LxC74PwSItyxaJXt9EuHa/WbNRgOM4lYXXkox/o4nyPVDztT9TU7H59oI/VVOGIrhGXdr/jemDqAl5kx2mPrcGB/2tgLRy0C6gsNvnJGNu1SPd7rS54EZCI/AMLYjQcKYIpSulq14fWjbkRw1dEpGUQcmjDjge7TqjLffpc67A0LZa9X2bHgyEkkQPjEwtYQ7s79enUkLv0iXd1sr0rllBLXliVozS77Sj56AbLesKgoOchflRvuFt2G7XbxqArRhN0p3sgW49zKo/qKqJiIgoPU73oHNgFcqWq3nDrFJULMrON9JEfi9146lVm1TYKd2iwnWFMupPo+Urpu6S0nLuK5nTSmYyW7/8z1Fz7y1hWwqZyXJZd9tDt6oaSidfd7FlKjTLhTQS2tBi7nMXvcVLUa20ykpdEJKUQcmjDTge1N0tnGj3wTdmUuOcoziY5pSRgVCyLG3DmzuOo0KCmqmVOJlfqBYk36EmJ47I+D3GmD8JWlLvwlBZCYb8Xd2Unw8l9ofQdrvC0DR0aQO2LgT2lLELGRERUaqdbnkSTy2qQKnx93hRPgLtoM0GMORvED2A+tnmMUaklOIptTQbhdwHk0jLskWi15f91276Xi0FenZb0047s1D7Wg8K9JZxL2G1bPtabWIfjCZBMv6NJtL3wLaHvoj3tt+F0eaFtkWWry/+c7UFpZe06hnE4IZ5/i5287R5dPQExm4a8WAoWusafUDvBXq3s1QY86DkUQcctwZjYUS8DxIGrQZ2j6Y9DBIMhGxYu4hZu5CFc9vaw2ow5cMoRT/yZzvUkuTyDey8B1gl4dMYAhW9O1chyotN56nXScshNR8ru+30rmQFcPi/+9Wg3FMrgafkOtqCwygiIiJKksCb5Nn1BcFvdAeGEL4j/CLk+1/uBMYXCZQerFJLs0eE+xBxWbZI9PomwrUbTN+rp/LxZFCroMB1SgkdcHo5dvcApb4kSZtLt2T8GyW6j1j3TxRGXw86FmzDUXMXu9Gj2GYKTyQoGcx32AclmpHW1diQ35DS7ndjG5Q82oDjvu5uDREuIOJ96GtJ+fVHwkDIzqx8zH+6W4Ut0q0KwcFJJAerUTHkQq3eDUseAx/voM+xUINbX5QxeRLb/5mdldiYv8ky/pC23/VV2FNm6c51uhm7I4ZExnbmgEq79rlO02DbEgYZQVD84x4RERFRPMyBjumNrt417Cl0W98Y613JCjB7wv19trkPukjLskWi1zcRrj0M/fvb3NLNdJ09q/DUk5nWJSwZ/0aJ7iPW/VO2sX+UfKhz587p68dLBlFeENIqRrqNLUBHT6veBWreBqjHyIcaaV3qa1XUVY6jQY/vGrukD0puO+C4BEcr0KH9t8Ko14vUDWLDPN98xPvgGQI6Vpi2nY6l6XruvIaBkJ1ZdTjQDdUFrAQIenpWOBL8yLpakcfPv6wGaU45GZMnvnDlzM7F+nl+eX8F3twZptvZ0jacOybdydT1SFmlfcNHG6tItvPfMyly39Qj6XUSYjEIIiIiGl+zULtJe2Mc9CSml7B6dj3Q1MA3hZTd9GDT3NItGtVV7Ko0E8qmp5MR2bvnnnuwf/9+PeyJREIjt9uNu+66S9UYog/EXeQK38VJfzy/q8b32PiQfQS29z/G33bgbiHrG4ODxy65g5IrtgOOL8C2o6Z6f9mHlf5lMdwHU0ln1zEGQpFIwKF3AQs3cLMEMebuTmqwZL1Y69MZgtgdL1Dv79oWKbSSQMx/PeHWtTmO6Z5JSWzAayIiIkqp5buhv/+91tddRMYG0t4R47XAY8eIxlmgO5Nv7CrrvJlp2exOVJwyP0HPtKz0OJr2mLtFyaDSpTiuB6HL0dB0HKXZMKg0B7+mKJYtW4Ybb7wRP/jBD1BXV2dbnnjiCb1FSnl5udpyYuCg5LHL2bp1q3fNmjVqFmhp7cDm9XV4/sft+NrX71W1qXfTzXP0Y973QJWqISIiIkqPz00Bzp8/r+YSM23aNGzZ3ozampWqJrKzZ89i5syZas7eu+++i7lz56q57Hbs2DHcemvkF9683uzF6w2Viut9afW16C67ipjHzk6SWK5XxPK7Ldbff5MR7x+NRTzfG3//93/PFkJERERERETZ4SV0P7UKZezbSURj9OCDDzIQIiIiIiIiyg7LsZsDQBNRkjAQIiIiIspg11xzjf4UoGwX6zXwerMTrze8yXa9lDkOHDiA7373u3jsscdsiyzv7u5WW0ws21/6L3xx/RuYXvdz2yLLN3S9p7aYnBgIEREREWWw66+/Xh8TINt99NFHmDp1qpqzx+vNTrze8Cbb9VJm6Orq0p9W9fjjj6O5udm2rFu3DpcvX9bDo4lk/f53sd39Xzh/yf5R80KWt77ygR4eTVYMhIiIiIgymAwOKW8opWTjp/Ryzr/5zW/0MmPGDFVrj9ebXXi9kU2266XM8MYbb2D58uWYMmWKqglP/k0feughvPrqq6rG0Afn9On6E8hCy1K0jqjVlD6nVu/sU3MWI61YGmb7kdalodv0OQN1Mq22WWo9YBTPDcYXwkooFEyu36n932wErUtN17G0VasxsbnOWO+lfg9VfbzXOxZ8yhgRERFNepn8lDFx5coVvPfeezh37hy8Xq+qzQ7yuG+5N/J0ouuui/wIYAOvN3vweqObbNcby++2eH7/TTbJuH/SHUxaAMVKHkH/wx/+UM0JCTEaMefoQdTkqipdmHoJQlafRD6GMGe3dX2NBDs9pRh1FcmMaXvrviRwWQ3o+5BlPSgddaHI9lzsSXeweI02L1RTwnx8jVzjvA3I3zcK/TJUXevpGtSY5pe2OHAw6nUaTPUw7yv+6zWL52dLgsCMC4S+8U0GQkRERJR+mRwIERFli2QEGpNZMu5fOgMhaemzGru1/1brXw9aUgxjua8+ePugZXqwJHlQDXKDQiTrPqKLJRCq/Mp/x57Xfq3mIgVCElTNw8kGUxgUjnbOSz21Ya4z9nvpYw7GVFUc4vnZkkCIXcaIiIiIiIgoo0z2QZGzwwgOdAHly3KRu6wc6DoQ3I1Kc/rkIPId4ZON3JoG5G9ogXTNGtF2lN9QA1lzxDOEBXNm6euIXEc+Bk+eVnNj1/G3c7X/x9hab+QAugZXojRSGKTp6+mwvc74nMbJwXwkZVcxYCBEREREREREGWOyD4qcNSQsQTmWSXiRu0yb6sKB4IF14BlaAFO2Y1GE0pUd6OnrQ8uG/KihSyLK5t2spnwkDPr3dz7EntfeVzU2FsyB/7TN02FFu87Y9TlXYGhbra+rWhowECIiIiIiIqKMkZxBkW0GPw4a7Dd0neB66zpqYGGntGmRZYGBgMMNtjzRSaselC/TW/VA+780EtrQYh6KOXprl6LabRhakboQZPrUz+Bf/rZAn445DMIszMlXk2LwpHYlEZiDsYT5vrca5xyNuWvcWL3wwgsMhIiIiIiIiChzXLp0KeanmkloJOtHNdKKxg41naA+5zx0lR/1j20DLMC2o6N6a6aj24ANqy1PnprQpFXPIAY3zPOHYvO0eXT0aEuUEQ+GorWukZZFCxbo3c4M1i5i1i5k8eh47df42Tsf4cw/3hNjGCRyUePydV/znZ+0YtIXhBUcjCXCGDdoNG1hkHjwwQcZCBEREREREdFEpr3hXi1PidqH2Ib9DyUDG6/APts37DIezspBa5epCayvBx0LtuHoqC8Q85Wj2GYKTyQoGcx3RAxKRlpXY0N+Q/AAyrPmYIE/WJLgyTdOUaIkFPrL7/XHGAYJaf1lPHY+FzUNK9GxYjr0hmEGecqYPu/r7tYwliCnryX0HqQJAyEiIiIiIiKauPQ33PsiPyUqkgNOzOsqx9GEd5BeMbea0pw7dy5q17xwZBDlBSGtYqTb2AJ09LTq3Z/mbQC21Ya/ZxKw6a2Kwt3X3Boc3Aes0FserQD2xffErWlTrlNTAaMXr6ipUNOmXKumbBS5MHpUuraZugiuBpYVSXC0Ah3af75zNYrUDWLDvNi6EUoLKHSsMG0/HUvT1P+QgVAk7mrk5OToZXGzR1VKta/OWm+3fnq5Ua3OIbQshpyWp3kxcqrdan1Fzj2ozoPmxaZtFzdrNcHXbi7+6zXdg6B6IiIiIiKitNPetK8Ysgkm5E27+Y28FHkzb6ats6EDK9UTsOyMtDaiY8FYx5FJjnvuuQf79+/Xw55IJDRyu9246667VI2hCK7RcCFMoL7IFb57U27NQYy6alBzUFoMWfcR2F5fT1oVyWPm1dIgEsKolkfx5nA1X/szNRWbby/4UzVlkPOUR86bSEjlbwllPu9At8HgYrRGi34v/ffCVNLVdYyBkC03qkuAXq8XXm8vCpyVepgCTzNOlUmdpd5u/XFRCNewcY6Bc61SSx11m1DV/qTp/DxofvI4XA3FarYZi3PyMLTJtP0eoMcNFLeZ9xc4zuE6hy8MKtH24z/2MCo68xgKERERERHRuPA9tWl3mDfkItybeWu3Mm2dfdI6JFxrj0CgNG9DPvbZhRtptmzZMtx44434wQ9+gLq6OtvyxBNP6OdeXl6utpwY1i//c9Tce0vYlkJmslzW3fbQrapm8mEgZMfdjfaqMvgikmI0uIDOHo+kKahTuQmQh/xCNWm3fhq4q30tf2JnOT9PDzpRgVKHPoPmSicKer1o81+nJui6w5FQqR1VvYch2ZCPA3V7tAM5G+FreyStjqrVNBERERERUQqdbkXj0DbsHmtri1nShSkfG+YZ48oYzIGSpUXJOCsrK8PWrVvxwx/+0LbIcnma20S07aEv4r3td2G0eaFtkeXri/9cbZEIu9Y/ItKyzMFAyIbn1HEU5uepOcAxuwD9Q8NqzjCMof4CzHbEun6Sqe5Z3WXmECY20kqoQAU1np5OFGyqgy8P6kFnfxXKIoY/Ydht5yhFReFxnNKzJwfqDpehW7qTWbusERERERERJc0gNqzYgPwoXb1iVuTC0W1DWLF0Mj1JjCY6BkJj4K4uwXFXg2oVlEZ6l64c5HSX6V2zglryxKwYZVXt6Ha70egsCA5yCvMRiLbiYLtdPwLZWDHapDtZWbceZjEXIiIiIiIis6QNirxyDANJhyFjvezL34B5DIVogmAglBDfgMtP5g/7xs5JM3ejE/0yfo8x5k+CihtcOF4SJtTqH0JCbZtstyuEqfGUT3EDXIVAewm7kBERERERUUByBkUexWhIGmTuxmPXpSfyOjKYsm9AYbvtM8OBAwfw3e9+F4899phtkeXd3d1qi4llsl9/rBgI2bB2+Qp0CZMwqBLYowZSVuzXTz7fwM57gEp5ktcYAhW9O1chKnyDB/noddJySM3Hym47vSuZr1udjy9My8nx3UOvty39LayIiIiIiChjTfZBkceqq6tLH9fo8ccfR3Nzs21Zt24dLl++rIcnE8lkv/5YvfDCCwyEbOXlo7C9W4Ut0q0KvuDE3QhnwabQMXvs1temq9Xj3pNLxuORQEXG5Els/57myjDXou13UxXaSyzduTzaD03EkMjYzhxQadeep90IfwukQJjm9cY/7hEREREREU0Ok31Q5LF444039Pti25VOmTFjBh566CG8+uqrqsbQB6f/MfxSzE9YS3SZps/pX7Y09JFtSTP26w/oc2rn6wweStxPv57ggcZHWpf6r9G6LNM8+OCDDIRsOepwuBcokbF6cuR58r4AQ1r+oL1EH//GKPpj1W3WTz0Zkye+Y3maF+vnnddZgeFwAxAVt8E7LN3JAtcoDXpKozXlke3898C4D+aWVBJiMQgiIiIiIiJKFelKJ2FHLOzHawo8Qe3oNmDDavO4SYks64NzBbBPq5dH++dvWB3mMf7JkZzr14zIU+pWYuVQo+VcR9C6dDqm9wArVY3h9MlBrNznu/5Me/JcODlbt271rlmzRs0CLa0d2Ly+Ds//uB1f+/q9qjb1brp5jn7Mb3yzStUQERERpc/58+fVVGKmTZuGLdubUVtjfXkY3tmzZ9UUEdHEMnPmTDUVnvz+i7bOZBXLvYm2joyPI12iYiXd76TFVYC09GnEnKPGGEnm+QSXnXZiek+pf1wnaUmzGrtxMAWDMI39+n2Mc9yt/T/8ucr19aDUFPz0OZfCU2tcf/rF87MlLaMYCBERERFp0h0IERFNVgyE7E3UQGjZAUsAJN2tTAFRMiUnEJJWQKuB3dq1oBW+SRlM3EyuzxwIyTbzsGFQn8GCbUdTEnhFEm8gxC5jRERERERERBTWSGsjOhaUY1mYbCPRZRlv5AC6oM49d5k21YUDUbu45aLmoNFdLLXd4pKFgRARERERERERmQxiwzzf4MjzNuRjX1DrmESXZY+RA11A+TJ17rlYVg5saIlniOgilK4cRFf0FGlcMRAiIiIiIiIiIpPA4NChgyPHvyzXkY/Bk6fVHDDiGcKCObPUXKbpQ8uGQQxumKeeFibh1iDQ0aMtiU++I7PjMAZCRERERERERJQ6s+ZggT9QkcBFGuBkaFjS14OOBdtwVA+1jHIU2xZ0oCfWREieUNaxABmbeSkMhIiIiIiIiIgmiIiPUrc4d+6cvn7K5dbg4D5ghd7iRp4/bww8nXxjvf6+ng4s8HcXM0i3sQXoiJgIySDTvhZF0+dtQH4KrzFZGAgRERERERERTRD33HMP9u/fr4cdkUho4na7cdddd6kaQxFco3ZhRqLLNEUuf4ubFDxczG+s11/kGg37dLDcmoOWp6LJ9Zq7zMl8oFVRKq8xGV544YXMe+z8fQ/wsfNERESUXp+bwsfOExGlCx87by8Zj50X3d3dGBwcxOXLl1VNqBtvvFEPT5YvX65qJo7Jev3xPnaegRARERFNegyEiIjSh4GQvWQFQjQ5xRsIscsYEREREREREdEkw0CIiIiIKJP1Of2PvZVStGtELSAiIiJKHLuMERER0aSXsV3GJAxacQJbj/ZhjT6+5Qh2Fc1DV/lR9PkqiIiyTizdWg4cOKB3aYn0tCh5OtT8+fNRVlamarJfsrqMTdb7Z+D3T3QcQ4iIiIhIk5mBkC/8ObXO8qSSkV0omncK64KebEJElD2ivWnt6urCJ598gvLy8pBHgpvJU6TkKVGf+9znsGzZMlWb3ZIRCE3m+yf4/RN7IMQuY0RERESZaOQldB1ZiVJr6pO7HOXzT2BY7znWB6epO5mvFMHXq0yWGdOSIxWZlgkJnALbOft8tX1O076MSsu+guejHEcCLGN/053a2lbqGop2aWcUELyfSMewnotx3qq+L3D8oO52QecVuH77/WkibqPVRbwGba24761Q+9aL+bzM6xjs6omyyxtvvKE/+SnSm3kxY8YMPPTQQ/ob22DmnxtrWYpW/89RuPrsl/z7Z743iS4bQevSwLLA78/kS8X3T8j56t25g/+mjbQuNW0T7u9d5mEgFMnBasyYmqOXZTs9qhI4tNZXZ63X6dtU45CaTT836tW5hZbF2H0aOLNzMWasdav1FTnvoDoPdt9n2va+ZpzRas3Xbi7++2C6Z0H1REREFEQ+xYtUdPNnY5ZvyuIITml/033mY+vRUYyOStmH8O2T+tDSJWsaAl3PfNsFWiEVuUz76tgRZ7hgPY72onpeF8qN89sH7Ai7w/naf114yfTG4aVT5v2YWY9hkGtaAezTjuNvUnUEG3cAbXLso1uBjdWBQGXeRtwh66plJ1ZYgxTr/qJtE/0aEr6387fiqO2/bXjhvqdYWNJVxkq6+cib9VjIm/7w3YIWYJv/d6PpZ08t9Qmsc3QbsGF1q/aTm/2Sff9C700iy07D0eCrH9UWDK1IXWCS9O+foPNVwVYPQn4nnz45iJXG34gsacXLQMiWG/VlQOdFL85d7EX+uko9TMHpZngekDpLvRGgvAhUyuy4KsTWY8Y5Bs7VOK/b1m5C5dNPqvMW2rlvP46t9cW+We0al03Nw8n1pu2fAg4cBJbsNO8vcJwDax2+MKhM24//2MMo35/HUIiIiMiGNOu2K7ojp7SX0OHMx+zwSVFYfc4VwLp1uEPNG62P1oUbh8g/iPUKdKgqnyPYOM/45NO6zCf0OMM4Yd5uRYd2SeGvqLz8DmxsUW8P+lrQNbs8sB+TkGMoXdW+gCuoe512n7a2rYF+lblrsG6lCtL08zK1vjIvU0L2F8M2Ua8hkXvb14OOO/J81xDEvE3op9fhvqdYWNJRslVuTQNWDnbhwERIhJIs0r2JfVkRivy/Px3IV5NZQT/fIXj068hFzcFRjLpK9UXBFmBOHH+bMwEDITsHu7HnO2VYos8Uo3aH9sLA7QFm1WH1Ur1Sk4c5C9UkHFj9shfndqZ/QKpDa30tf2Jnuh5xugddqMAy/ZvXg92rnMjv9qLJf52aoOsOR0KldlR2H8Zq/w+Bdk+ecmkv2hpViykJzcaz9RQREVEW0buGdaDH+hGqHubcgbxYx5Q+vQs7sM8SlNiQLlF6oxj5dPMotgY1w4nSEsn2OCvV/lSxO5Hltdh6okf/BLav5wTKl+f56s1sj3FEK/NtwyafEQyfUJNRxbK/MCJdQ4L3tq+nAytD+g0K0zb7VqJjR3B3NSKijCVB98rS7BkHTz/fBtRE/Ls7As/QIDaooH5pFvQ/fOGFFxgI2Tlz6jjmfynwR/y22QU48s6wmjMM4+TPC+AYrxRQdc/qecAcwsRGWgnlq6DmjLsT+evrcJsskHDo51UojRj+hGG33axSlC88Do/+ekpCszL0SHcya5c1IiIissjFmnXaG/2gZvW+bkvYWhvjC+kj2LiiC+W1lrVV2BTSfev0KRwxuqnpwZNeGwO74+ThDoQ5Tli5WF5+Qlt3F3qwTj1VzczmGLr5KG/rwz6ssDyW/wi6jD5cqlWUnq2o8/KHbSO7sKPDPF5TmP1F3UZEuIaE7m0fekKOQUSpMNLaiI4F5VgWa9g+iUS6N/Es84+x01Nq/+FAxgiEO9MlzI96vqrlkAr28zeszvgxqR588EEGQmNxaG0JhnY0qFZEaaR36ZLuaWV616ygljwxK0bpd9rRc9CNlnUFwUHOwnyb8QqisN2uHyf9H7AVo0m6kz3QrYdZ9QdVNREREYUqcunj7qxQ3YKkO5GMaRPPI+fnb20LE67kYk3fPtyxcZ7ar+pyVFSLrdiIeVJXfQp3hB/EJ6zwxymCSx+7J3CcwGDKoXLXrNPOaSPsEpDwxwgoch1FeZd2LP/gzvNxx6lq33H18X+MMR1853VihTonfZyj0PEegvcX2za21xD3vZVBTaX7WIf695dp6SZmBISmLmMrTgS6xhFRHAJv+udtyMe+gzX8OfKLdG8SW5Zbc9AXmJT2aMszfRBv8xhCc9AY1/kWoXTlILqyoP8hA6GE+MYLavzSsG/snDQ71OTUXgIUBsb8SdCSeheGysKEWj8fshmvIArb7QpD+1IubcDWhcCeMnYhIyIiikhCIf0TR18J/pCyCK7RPlNIYp6XaXN4FG5d634lKFJ1fS64+sz7SvA4uWvQZzpO6KfCofvyrRLrMczT6vz7AuHI7No+yzUqQedlOt9I+4tpG9+5hl5DIvfW0t3O353Md4xAvd2+iCgy05v+LBkEOH0i3ZtElyna37V9KwdNjQYyXO4ylC+I/3zzHZn/y5iBkA1rF7FAFzIJgyqBp9RAyuPAN7DzHmCVPMlrDIGK3p2rEOXFpuvQ66TlkJqPld12elcyc7c6X5g2Y6rvHp672Jb+FlZERERERESUPn19Qd2fezqyaADmkQPoGozjfEda0Zgl18dAyM6sfMx/uluFLdKtCr7g5GAjNuZvimPMHnkMfLyDPsdCDWJ9UcbkSWz/Z3ZWhrkWbb/rq7CnzNKd63QzdkcMiYztzAGVdu1znYC/BVIgTDt3Mf5xj4iIiIgmD2ntY/10PVwd0cRj/yjwUOfOndPXp4CMvH+zPGiULq56ke7PB6MM0py45Fy/aQwhvYtwtPOVbr7G+huQn8LrSyYGQnZm1eFAN1AhY/VMLQHU07OkpRCeLtHHvzHK+D5WXcbkiS9cObNzsX7eX95fgTd3hul2trQN545Jd7LANc5YBSyLNlaRbOe/Z1LkvplbUkmIxSCIiIiI0oHdp4iy1T333IP9+/frb9YjkTf9brcbd911l6oxyM9/uDfk5nq7dbJf6u6fSHBZbg0O6t3IfCWk93ASJef6A+c6GvaaZB1zQB+8TSqvL5lytm7d6l2zZo2aBVpaO7B5fR2e/3E7vvb1e1Vt6t108xz9mPc9UKVqiIiIiNLjc1OA8+fPq7nETJs2DVu2N6O2JuSB7GGdPXsWM2fOVHNERBNDLL/bYlmnu7sbg4ODuHz5sqoJdeONN+pv/pcvX65qsh/vX3Lw+ye6V199lYEQEREREQMhIqLkSFagMVnx/tFYxPO9IYEQu4wREREREREREU0yDISIiIiIiIiIiCaRF154gYEQEREREREREdFk8uCDDzIQIiIiIiIiIiKabBgIERERERERERFNMgyEiIiIiIiIiIgmmYx77Pw3vsnHzhMREVH6ZeJj571eL65evarmiIjGzyeffIJrrrkGN954o6oJj49NHxvePxqLeL435LHzDISIiIiINJkYCEkY9NnPfhbXXXedqiEiGh8XLlzA73//e0ydOlXVhMdAY2x4/2gs4vnekECIXcaIiIiIMpS0EJIwKCcnh4WFhWVcC4NpoomHgRARERERERER0STDQIiIiIiIiIiIaJJhIERERERERERENIm88MILDISIiIiIiIiIiCaTBx98kIFQRO5q/yBqi5s9qlKqA4OrxVKfXm5Uq3MILYshp+VpXoycardaX5FrDarzoHmxadvFzVpN8DWai/96TfcsqJ6IiIiIiIiIMgYfO29LgpVulHnbUKxPP4n84cOoQzOah+tQV2ysE6XeIfPpZHdsc711HQl/KoE9at7TjMV5ThT0etGmX4+vLnB9IsxxJAwqOQ5X0H7z0FkxjMPBJ0NERJRxMvGx81euXMGMGTP0D1mIiMbT5cuX8dFHHyXtsfNkj/ePxiKex84zELIj4UZ3GbwqEZFWNZXYYwk2LEGKn119arirF+NUg3GsWAIhy/VIAKSfbh0cKsQZ2mQKg8IKFyqF2U4Pl4awSQ/WZJ1GzD4s00RERJmFgRARkb1kBkJENP4kEGKXMRueU8dRmJ+n5gDH7AL0Dw2rOcMwhvoLMDsoeBF29Ummumd1l8UfPDnqNqHA2QjpJObp6UTBJgmD9Bl09lehLN7Exm47RykqCo/jlN5zzIG6w2Xolu5k1i5rRERERERERJQ2DITGwF1dguOuhpDWLnb1SSOtbiRUkRZM3mgteewUo6yqHd1uNxqdBcFBTmE+AlFYHGy360cgSytGm3bO3rJuPcxiLkRERERERESUfgyEEiJdn3LwZL51bBy7+uRyNzrRj0K4GsYWORU3uHC8JEx41T8Ea1uomNhuVwhTYyuf4ga4CoH2kmq9lRIRERERERERpQ8DIRvWLmL///buN7Su+v4D+Od2jq2BGU2DIGMwbaOS9vdg/nBIyvDPrC4phJRhtweDlsFSDdJExFJKfaQEsYMlRdRmQ1rYg5nh7AJpNpVBHrRsyM89WC2/mWj3ZPh7EI1hQzPIvL987z1JbtLcLk2bfz2vFxx6vp+bc+85h/YS3v1+P2duCVkKfVLDnWKVfkIL69de84liFIunIvalJ3ldRaBSWs7VFHt3V5xvqZZmDmXjpap2XGkpWeXyuXJoViiU71Wx1FsIAAAAWE0CoWoaGqOp73QWtqRlVVEOToaORdeOo5f27KlWnz72QPa492sr9eNJgUrqybO89x/t3bfIOU+/79H26GtZsJwrPWXssiHRzHGVAdX0tTdM37jZGUhzoVmxeOV9jwAAAIBrQyBUzbbOOHsmoiX16im0RJzJns71/vm0zqnU/2Zm29k7WrW+8lJPnisLV9ITxtL5NfTvjZHFGhA1n4jiSFpONnctaULP7v80lScdN3vP0pbuW+WMqRRiCYIAAABgLf32t7/12HkAgMRj5wGq89h5uL547DwAAABADgmEAAAAAHJGIAQAAACQMwIhAAAAgBwpFosCIQAAAIC8EQgBAAAA5IxACAAAACBnCt3d3cWOjo5sGHH85ZPxzOHOeP21vrj/gfuy6srbcsudpc98sLU9qwAArI6bN0dMTExko+Wpra2NZ5/vjYOP788qlzc2Nhb19fXZaHFTU1NRV1cXhUIhqwCsjcnJyRgfH4+ampqssrilfLcBa294eNgMIQAAAIA8GRgYEAgBAAAA5Elra6tACAAAACBvBEIAAAAAOSMQAgAAAMgZgRAAAABAzgiELufNA1FXUyhtj7w4mhUj3n6iXJtfH41XHpyrP/lmVl51Q/Fkdg6XbjvjlQ8iLr64M+qeGMp+PpOudV5t/vXUPdgbF6erlddeuc3eh4p7Nq8OAAAArBsCoaqG4sm2iP7PivHJZ2ei8dC+UpgSH/TGaGuqLajHSGw7nNX/0hMX2g7E26m8Jpqi+y8z5ziznYl92au3PXE09r36XHbeyWi88vz56H6yuTycvsZHahrirzPXk7afR/z+zYiHXqx8v7nP+f0T28phUNv0+8x+9kjs+U2DUAgAAADWGYFQNW+ejlM/bouHSoPmOPhCxBtDoxFbO+Oxh0vFaQ1x573Z7vTPPDRT33pHNGa7q+HtJ8ozf5au4nqSDwbjjdgbj2xNg9F45Sdd0Xi6GD+bvc5p8657MSlU6ot9p8/GY6X3SbbFYz/viTh0LAvH0qyjtQzKAAAAgEQgVMXF98/HPXc1ZKOI2+7YEe/870g2mjESf/3jjtg2G4Bk5oVJKyhbnjXYWhnCLE2aJdSYBTUXh/qj8XBn3JZeSOHQH9tj92XDn0VUO27r7thz7/kYLQVW2+KxP7TFYFpOtnDJGgAAALBqBEJX4e0nWuLCC0/PBj+l3jwp7Bhoi09ezJZfrYTSkq7scz5bMJNnyZpj94/7YvDNoTh+aMf8IOfexrjCfKms6nHn4q+zM5ia42dpOVnr6dK9WrteSwAAAJBPAwMDAqHlKTdcPnbXSLl3Tua2J86We+eUwo4rXca1dG//rCveSf17Znr+LNNDT6ZeR/NDrZI/XohlnXrV45rizoVJ0cNPR/e9EafWtNcSAAAA5E9ra6tAqJqFS8TmlpClMGhfxM+zRsqLefhE9P+4clbMtVVu7Hwq4ifpSV5XEaiUlnM1xZ7miuso1dLMoWy8VNWOKy0lq1xWVw7T6mrK9/CTz06s/NI6AAAAYB6BUDVbG+OeV09nYUtaVhXl4OTNY3Gk8eilPXveHKoIZoZi8NWZWTHpMfArMVso9eNJgUrqybO897/44r5FrmX6fQ+3x6m2Bcu5PuiNVy4bEs0cVxlQTV/7f3VFzM5AmgvTPvnsyvseAQAAANeGQKiarZ3x+9MRe1OvnpqWiOzpWWmmULzaUup/M7OVHqu+9f04Nlub+/mVl3ryXNlnzfQ6+u/f7I3/WazX0cMnskfnz11j3U8iHvlPvYrScbP3bOY+VM6kSiGWIAgAAADWWqG7u7vY0dGRDSOOv3wynjncGa+/1hf3P3BfVl15W265s/SZD7a2ZxUAgNVx8+aIiYmJbLQ8tbW18ezzvXHw8f1Z5fLGxsaivr4+Gy1uamoq6urqolAoZBWAtTE5ORnj4+NRU1OTVRa3lO82YO0NDw+bIQQAAACQNwIhAAAAgJwRCAEAAADkjEAIAAAAIGcEQgAAAAA5MjAwIBACAAAAyJPW1laBEAAAAEDeFLq7u4sdHR3ZMOL4yyfjmcOd8fprfXH/A/dl1ZW35ZY7S5/5/R+0ZxUAgNUzMTGR7S1PbW1tPPt8bxx8fH9WubyxsbGor6/PRoubmpqKurq6KBQKWQVgbUxOTsb4+HjU1NRklcUt5bsNWHvDw8NmCAEAAADkjUAIAAAAIGcEQgAAAAA5IxACAAAAyBmBEAAAAEDOCIQAAAAAckYgdDlDB0qPeU3bzt7RrJjK5drC+ozR3p1R2Nkbl76yGobiQHZul247I51u6fwODGU/n0nXOq82Gr07K47Nrqfy2iu32ftQcc/m1QEAAIB1YWBgQCBU3VAcaIk4UyxGsXgmdnTtK4UpMdob77el2oL6rKE41nUu218rTdEzMnOOc+fanr26rfNotPc9V3Heo9H73Pnoebo5G/bGzkJDXDhacfypiMGhiOYTle839zlnO7eVw6CW6feZ/eyR2NvfIBQCAACAdaS1tVUgVNXQ6ehrb4tyRNIcT/dE9A+OpjQlOrPcJKIhGpuy3cxo73MRPT2xoLyihg6UZ/4sXcX1JKOD0R97Y/e20iB693XFjjPFODF7ndPmXfdiUqjUF+1nzkbKhsq2Reep6Q/qOhbluUdp1tGBbB8AAABYKwKhKkbfPx9NjQ3ZKGLbHTvi3IWRbDRjJC6c2xF3zAQgo72x78LROLE7G6+0bHnW6bbKEGZp0iyhHVlQMzrYHzuOdkY5DxqM/nPt0XbZ8GcR1Y7btjv2Np2P90vZ07boPNsWp9NysoVL1gAAAIBVIxC6CkMHWuJ8z9PZLKI0s6Y/9s4su1pJpSVdhSicbistzZo3k2fJmqOtvS9OD6UlbjvmBzlNjTEXhV2Bqsedi7ksrTlOpOVkbadLYZZcCAAAAFafQGhZ0tKnQjzXOFLunZMqvfuif++pK56psxxDx7riXOrfc5XhU/PTPXG+pTLUypy7EAvnQi1J1eOaomKyVVnz09HTFNHXYgkZAAAArDaBUBULl4jNLSFLYdC+iFNZI+WSciPpc10N5adrNXTFuXNd0bBCTxorN3Y+FbEvPcnrKgKV0nKupthbbh5UVqqlmUPZeKmqHVdaSlaxrC4L0wqF8j0sFk/MD6MAAACAFScQqqahMZr6TmdhSwp8ohycDB2Lrh1HF8wEypZBzWwjPdHU1BMjZ1NfnvQY+Ctt+rwUqR9P+rzUk2d5759mNV16LdPve7Q9+loWLOca7Y3ey4ZEM8dVBlTT194wfeMql9VlYVqxeOV9jwAAAIBrQyBUzbbOOHsmoiXN+Cmk58+XA4w0Uyj6WsozgbJtbR+rnsKoKwtXRnt3ls67oX9vjCzWgKj5RCnUOt8yd41pQs/u/zSVJx03e8/SVnpuf8VMqhRiCYIAAABgrRW6u7uLHR0d2TDi+Msn45nDnfH6a31x/wP3ZdWVt+WWO0uf+f0ftGcVAIDVMzExke0tT21tbTz7fG8cfHx/Vrm8sbGxqK+vz0aLm5qairq6utJ/tACspcnJyRgfH4+ampqssrilfLcBa294eNgMIQAAAIA8GRgYEAgBACyUegL29/fHL37xi0W39Fr6GQCAjai1tVUgBACwmLRcq5rLvQYAsBEIhAAAFkg9e77zne9ko0ul1/T1AQA2MoEQAMAivvGNb0RjY2M2mpNq6TUAgI1MIAQAUMW3v/3tuPHGG7NRlPZTDQBgoxMIAQBUccMNN8R3v/vd2Lx5c2lL+6kGALDRFbq7u4sdHR3ZMOL4yyfjmcOd8fprfXH/A/dl1ZW35ZY7S5/5YGt7VgEAWB03b46YmJjIRstTW1sbzz7fGwcf359VLm9sbCzq6+uz0eJS8+q6ujr9ioA1Nzk5GePj41FTU5NVFreU7zZg7Q0PD5shBAAAAJA3AiEAAACAnBEIAQAAAOTIwMCAQAgAAAAgT1pbW6s3lQYAyIurbSidaCoNXM80lYbrS2oqXTUQuha/GAEA5MVKBULpd7LbbrstqwCsjYsXL5bCoM2bN2eVxQmEYGMQCAEAXCMrEQh98cUX8ctf/tLvZcCaS99xP/rRj2LTpst3HREIwcYgEAIAuEZWIhAC2Gh8t8HGkAIhTaUBAAAAckYgBAAAAJAzAiEAAACAnBEIAQAAAOTMijaV/tWvfhUff/xxNgIAuHa2bNkSP/zhD7PR2tNUGsB3G2wUTz31lBlCAAAAAHnS2trqsfMAANeCGUIAvttgo/DYeQAAAIAcEggBAAAA5IxACAAAACBnBEIAAAAAOSMQAgAAAMgZgRAAAABAzlR97DwAAFfmSh87D3A98th5WP/SY+cXDYQAAFiepQZCAABr5amnnro0EAIAAADg+pVmCOkhBAAAAJAzAiEAAACAnBEIAQAAAOSMQAgAAAAgZwRCAAAAADkjEAIAAADIGYEQAAAAQM4IhAAAAAByptDd3V3cs2dPNgQAAADgevbTn/60HAh1dHRkJQAAAACuZ8PDw5aMAQAAcH356KOPsr31yfldHed3bQiEAAAAAHJGIAQAAACQMwIhAAAAgJwRCAEAAMC68lZ03XRT3NT1Vjaekeq74qUPF+7PWPj6Yu9R9uFLu+KmS44nTwRCAAAAsO7cE/e892hUyXOWKL3HC4uEPm/F8SPvZPvklUAIAAAA1qE9h7rjvRdeiquZxLN9e8Qbv1vwDm8Nxsn9+2N/NiSfBEIAAACwHm3tiEPbj8SBq1jXdcfBQ7H9yPGYm2j0Ybz0wnvRfXB3NiYP/vznP5e2SgIhAAAAWKd29fw6th85cBW9fnbF7v0nY3AmEfrwd/FG7Inv3Z6NyaWBgQGBEAAAAKxfu6Ln19vjyPHlNxPadXBu6dlbx4/E9kMdIQ/Kl29961ulbUZra2tsKhQK8a9//SsrAQAAAOvKroPRfUmD6a1xxz3Z7owPR+K92B4NC9Oe278Xe+KN+N1bL8UL73XHwV1Zneta5TKxyv2UAX35y1+OTdPin//8Z6kIAAAArDe3R8eJ7njv0UfjZFZJtYbt78SRA3NNp9Psn3f2745L857p4w9tjyOPHonY8z2zg3IuZUBf/epXY9OXvvSl+Mc//pGVAQAAgHXn9o440T1/StCunnejO47E3TfdFDdNb4++1x3v9lSZ/pNmGd2zPw51iIPyonKZWOV+yoA2b94chZ6enmJDQ0PcfffdpQIAAABsZB999FHceuut2Wj9cX5Xx/lVN7MsLIU/i+3fdddd8e6778Y3v/nN8gyh+vr6+OCDD0ovAgAAAHD9SdnPli1bykvGUlPpP/3pT3H27NkYHByMTz/9NPsxAAAAADaKyqVhlftpZtANN9wQn3/+edTV1UXKggoXL14s/vvf/460ffLJJ/Hxxx/H17/+9fja175W2r7yla+UDgYAAABgY0hPE0v9gtL297//vTQzKIVBaaVY2gp/+9vfil988UUpEEp/Tk5OxsTERCk1StvU1FTpjYrFYunP9Wq1zm+934fluB6vabX4+wCsB/7dshbS/ywC14Z/T8vn3i3f9XjvVuua1vre/d+nn2d7i7v15prSOaZHy6elYTU1NXHjjTeWJvykJ82nMGjTpk3x/3t5/ctrNPcQAAAAAElFTkSuQmCC;" vertex="1" parent="1">
          <mxGeometry x="40" y="20" width="1156" height="762" as="geometry" />
        </mxCell>
        <mxCell id="DhdpTAGQwJF97SSmaI3E-68" value="" style="rounded=0;whiteSpace=wrap;html=1;fillColor=none;strokeColor=none;" vertex="1" parent="1">
          <mxGeometry x="660" y="555" width="50" height="25" as="geometry" />
        </mxCell>
        <mxCell id="DhdpTAGQwJF97SSmaI3E-69" value="" style="rounded=0;whiteSpace=wrap;html=1;fillColor=none;strokeColor=none;" vertex="1" parent="1">
          <mxGeometry x="660" y="585" width="50" height="25" as="geometry" />
        </mxCell>
        <mxCell id="DhdpTAGQwJF97SSmaI3E-81" style="edgeStyle=orthogonalEdgeStyle;rounded=0;orthogonalLoop=1;jettySize=auto;html=1;exitX=1;exitY=0.5;exitDx=0;exitDy=0;entryX=0;entryY=0.5;entryDx=0;entryDy=0;strokeColor=#FF0000;" edge="1" parent="1" source="DhdpTAGQwJF97SSmaI3E-73" target="DhdpTAGQwJF97SSmaI3E-68">
          <mxGeometry relative="1" as="geometry" />
        </mxCell>
        <mxCell id="DhdpTAGQwJF97SSmaI3E-73" value="" style="rounded=0;whiteSpace=wrap;html=1;fillColor=none;strokeColor=none;" vertex="1" parent="1">
          <mxGeometry x="580" y="555" width="10" height="25" as="geometry" />
        </mxCell>
        <mxCell id="DhdpTAGQwJF97SSmaI3E-79" value="" style="edgeStyle=orthogonalEdgeStyle;rounded=0;orthogonalLoop=1;jettySize=auto;html=1;strokeColor=#00ff00;" edge="1" parent="1" source="DhdpTAGQwJF97SSmaI3E-74" target="DhdpTAGQwJF97SSmaI3E-69">
          <mxGeometry relative="1" as="geometry" />
        </mxCell>
        <mxCell id="DhdpTAGQwJF97SSmaI3E-74" value="" style="rounded=0;whiteSpace=wrap;html=1;fillColor=none;strokeColor=none;" vertex="1" parent="1">
          <mxGeometry x="580" y="585" width="10" height="25" as="geometry" />
        </mxCell>
      </root>
    </mxGraphModel>
  </diagram>
</mxfile>
